<?xml version="1.0" encoding="utf-8"?>
<!-- Generator: Adobe Illustrator 28.2.0, SVG Export Plug-In . SVG Version: 6.00 Build 0)  -->
<svg version="1.1" xmlns="http://www.w3.org/2000/svg" xmlns:xlink="http://www.w3.org/1999/xlink" x="0px" y="0px"
	 viewBox="0 0 500 500" style="enable-background:new 0 0 500 500;" xml:space="preserve">
<style type="text/css">
	.st0{opacity:0.7;fill:#19003C;}
	.st1{opacity:0.8;}
	.st2{fill:#BA68C8;}
	.st3{opacity:0.7;fill:#FFFFFF;}
	.st4{opacity:0.8;fill:#FFFFFF;}
	.st5{display:none;}
	.st6{display:inline;}
	.st7{opacity:0.75;fill:#FFFFFF;}
	.st8{opacity:0.2;}
	.st9{opacity:0.3;fill:#BA68C8;}
	.st10{opacity:0.2;fill:#BA68C8;}
	.st11{opacity:0.4;fill:#FFFFFF;}
	.st12{opacity:0.6;}
	.st13{opacity:0.7;}
	.st14{opacity:0.1;}
	.st15{opacity:0.4;}
	.st16{opacity:0.5;}
	.st17{fill:#E0E0E0;}
	.st18{fill:#F0F0F0;}
	.st19{fill:#455A64;}
	.st20{fill:#37474F;}
	.st21{opacity:0.5;fill:#FFFFFF;}
	.st22{opacity:0.3;fill:#FFFFFF;}
	.st23{fill:#263238;}
	.st24{fill:#F5F5F5;}
	.st25{fill:#FAFAFA;}
	.st26{opacity:0.3;fill:#FAFAFA;}
	.st27{opacity:0.2;fill:#FAFAFA;}
</style>
<g id="Background_00000078736267566981498740000003540967147850458005_">
	<path id="Background" class="st0" d="M339.82,159.07c-11.15-27.08-29.31-51.33-52.93-69.09c-22.4-16.85-54.27-21.69-82.41-17.48
		c-28.03,4.19-62.79,20.95-80.58,43.74c-16.85,21.59-26.61,40.41-44.68,61.19c-16.16,18.58-27.71,32.42-37.76,55.72
		c-2.75,6.36-4.43,13.1-5.15,19.96c-1.73,16.45,2.07,33.63,10.1,48.16c11.37,20.6,31.67,39.97,52.88,49.8
		c48.22,22.34,92.69,28.09,159.34,2.85c33.93-12.85,65.1-36.44,80.35-69.68C357.41,244.04,356.07,198.55,339.82,159.07z
		 M63.95,144.23c2.38,3.04,6.29,5.09,10.05,4.35c3.48-0.69,6.12-3.5,8.46-6.2c8.65-9.98,16.77-20.42,24.32-31.28
		c6.57-9.46,15.84-20.14,7.22-31.14c-13.37-17.06-36.27,0.91-45.22,13.95c-7.82,11.39-11.08,25.9-8.88,39.59
		C60.5,137.32,61.57,141.19,63.95,144.23z"/>
</g>
<g id="Stars">
	<g id="Stars_00000176729652218174900280000013382111409598376106_">
		<g id="XMLID_3582_">
			<g>
				<g id="XMLID_00000057132137401706890230000006408168221916652467_" class="st1">
					<path class="st2" d="M436.08,258.76c-6.18,0-11.2-5.08-11.2-11.33c0-6.25,5.02-11.33,11.2-11.33c6.18,0,11.2,5.08,11.2,11.33
						C447.28,253.68,442.25,258.76,436.08,258.76z M436.08,236.79c-5.8,0-10.52,4.78-10.52,10.64c0,5.87,4.72,10.65,10.52,10.65
						s10.52-4.78,10.52-10.65C446.6,241.56,441.88,236.79,436.08,236.79z"/>
				</g>
				<path id="XMLID_00000001665422898970561120000005869327475626160300_" class="st2" d="M439.26,247.43
					c0,1.78-1.43,3.22-3.19,3.22c-1.76,0-3.19-1.44-3.19-3.22s1.43-3.22,3.19-3.22C437.84,244.21,439.26,245.65,439.26,247.43z"/>
				<path id="XMLID_00000013901637753407698020000002501390591622556844_" class="st3" d="M439.26,247.43
					c0,1.78-1.43,3.22-3.19,3.22c-1.76,0-3.19-1.44-3.19-3.22s1.43-3.22,3.19-3.22C437.84,244.21,439.26,245.65,439.26,247.43z"/>
			</g>
		</g>
		<g id="XMLID_15357_">
			<g id="XMLID_15389_" class="st1">
				<path class="st2" d="M351.87,78.61c-4.35,0-7.89-3.58-7.89-7.98c0-4.4,3.54-7.98,7.89-7.98c4.35,0,7.89,3.58,7.89,7.98
					C359.76,75.03,356.22,78.61,351.87,78.61z M351.87,63.33c-3.98,0-7.21,3.27-7.21,7.3c0,4.02,3.24,7.3,7.21,7.3
					c3.98,0,7.21-3.27,7.21-7.3C359.08,66.6,355.85,63.33,351.87,63.33z"/>
			</g>
			<path id="XMLID_15358_" class="st2" d="M354.08,70.63c0,1.24-0.99,2.24-2.22,2.24s-2.22-1-2.22-2.24s0.99-2.24,2.22-2.24
				S354.08,69.39,354.08,70.63z"/>
			<path id="XMLID_00000171695773426246005100000005727367649953849534_" class="st3" d="M354.08,70.63c0,1.24-0.99,2.24-2.22,2.24
				s-2.22-1-2.22-2.24s0.99-2.24,2.22-2.24S354.08,69.39,354.08,70.63z"/>
		</g>
		<g id="XMLID_1661_">
			<g id="XMLID_4504_" class="st1">
				<path class="st2" d="M68.85,392.69c-4.61,0-8.36-3.79-8.36-8.46c0-4.66,3.75-8.46,8.36-8.46c4.61,0,8.36,3.8,8.36,8.46
					C77.21,388.9,73.46,392.69,68.85,392.69z M68.85,376.46c-4.24,0-7.69,3.49-7.69,7.77c0,4.29,3.45,7.77,7.69,7.77
					c4.24,0,7.69-3.49,7.69-7.77C76.53,379.95,73.08,376.46,68.85,376.46z"/>
			</g>
			<path id="XMLID_4379_" class="st2" d="M71.2,384.24c0,1.31-1.05,2.38-2.35,2.38c-1.3,0-2.35-1.07-2.35-2.38
				c0-1.32,1.05-2.38,2.35-2.38C70.15,381.85,71.2,382.92,71.2,384.24z"/>
			<path id="XMLID_00000098178512523192721140000006984570232578912652_" class="st3" d="M71.2,384.24c0,1.31-1.05,2.38-2.35,2.38
				c-1.3,0-2.35-1.07-2.35-2.38c0-1.32,1.05-2.38,2.35-2.38C70.15,381.85,71.2,382.92,71.2,384.24z"/>
		</g>
		<g>
			<g>
				<g>
					<path id="XMLID_00000095306319762751287040000007768985675832191666_" class="st2" d="M441.86,100.35
						c0,1.29-1.04,2.34-2.32,2.34s-2.32-1.05-2.32-2.34c0-1.29,1.04-2.34,2.32-2.34S441.86,99.06,441.86,100.35z"/>
					<path id="XMLID_00000023973935222584576570000003110340480407654807_" class="st3" d="M441.86,100.35
						c0,1.29-1.04,2.34-2.32,2.34s-2.32-1.05-2.32-2.34c0-1.29,1.04-2.34,2.32-2.34S441.86,99.06,441.86,100.35z"/>
				</g>
				<g>
					<path id="XMLID_00000119836890576304783320000010309447270179787408_" class="st2" d="M434.93,106.75c0,0.77-0.62,1.4-1.38,1.4
						c-0.76,0-1.38-0.63-1.38-1.4s0.62-1.4,1.38-1.4C434.32,105.36,434.93,105.98,434.93,106.75z"/>
					<path id="XMLID_00000047042363854494053150000003208862422249302189_" class="st3" d="M434.93,106.75c0,0.77-0.62,1.4-1.38,1.4
						c-0.76,0-1.38-0.63-1.38-1.4s0.62-1.4,1.38-1.4C434.32,105.36,434.93,105.98,434.93,106.75z"/>
				</g>
				<g>
					<path id="XMLID_00000155856121026375593820000007703484898371285427_" class="st2" d="M431.02,98.01c0,0.62-0.5,1.13-1.11,1.13
						c-0.62,0-1.11-0.5-1.11-1.13c0-0.62,0.5-1.13,1.11-1.13C430.52,96.88,431.02,97.39,431.02,98.01z"/>
					<path id="XMLID_00000004524451807125685180000009764728891022884526_" class="st4" d="M431.02,98.01c0,0.62-0.5,1.13-1.11,1.13
						c-0.62,0-1.11-0.5-1.11-1.13c0-0.62,0.5-1.13,1.11-1.13C430.52,96.88,431.02,97.39,431.02,98.01z"/>
				</g>
			</g>
			<g>
				<g>
					<path id="XMLID_00000119806295701304566120000013632646708475166101_" class="st2" d="M48.96,172.88
						c0,1.29-1.04,2.34-2.32,2.34s-2.32-1.05-2.32-2.34c0-1.29,1.04-2.34,2.32-2.34S48.96,171.59,48.96,172.88z"/>
					<path id="XMLID_00000098220487527860436250000000302795090827091845_" class="st3" d="M48.96,172.88
						c0,1.29-1.04,2.34-2.32,2.34s-2.32-1.05-2.32-2.34c0-1.29,1.04-2.34,2.32-2.34S48.96,171.59,48.96,172.88z"/>
				</g>
				<g>
					<path id="XMLID_00000041259086046380175380000007438828814668452749_" class="st2" d="M42.04,179.28c0,0.77-0.62,1.4-1.38,1.4
						c-0.76,0-1.38-0.63-1.38-1.4s0.62-1.4,1.38-1.4C41.42,177.89,42.04,178.51,42.04,179.28z"/>
					<path id="XMLID_00000047031929150160743480000008024667988817190794_" class="st3" d="M42.04,179.28c0,0.77-0.62,1.4-1.38,1.4
						c-0.76,0-1.38-0.63-1.38-1.4s0.62-1.4,1.38-1.4C41.42,177.89,42.04,178.51,42.04,179.28z"/>
				</g>
				<g>
					<path id="XMLID_00000046338515912661391480000006481582427690281623_" class="st2" d="M38.12,170.54c0,0.62-0.5,1.13-1.11,1.13
						c-0.62,0-1.11-0.5-1.11-1.13c0-0.62,0.5-1.13,1.11-1.13C37.62,169.41,38.12,169.92,38.12,170.54z"/>
					<path id="XMLID_00000044180162072316431640000016777344378124237239_" class="st4" d="M38.12,170.54c0,0.62-0.5,1.13-1.11,1.13
						c-0.62,0-1.11-0.5-1.11-1.13c0-0.62,0.5-1.13,1.11-1.13C37.62,169.41,38.12,169.92,38.12,170.54z"/>
				</g>
			</g>
			<g>
				<g>
					<path id="XMLID_00000150790252068847012350000007429135625792832141_" class="st2" d="M255.06,410.91
						c0,1.29-1.04,2.34-2.32,2.34c-1.28,0-2.32-1.05-2.32-2.34c0-1.29,1.04-2.34,2.32-2.34
						C254.02,408.57,255.06,409.62,255.06,410.91z"/>
					<path id="XMLID_00000047769685620291790560000010785455325488561536_" class="st3" d="M255.06,410.91
						c0,1.29-1.04,2.34-2.32,2.34c-1.28,0-2.32-1.05-2.32-2.34c0-1.29,1.04-2.34,2.32-2.34
						C254.02,408.57,255.06,409.62,255.06,410.91z"/>
				</g>
				<g>
					<path id="XMLID_00000018218707522278659970000008291326484533947792_" class="st2" d="M248.14,417.31c0,0.77-0.62,1.4-1.38,1.4
						c-0.76,0-1.38-0.63-1.38-1.4c0-0.77,0.62-1.4,1.38-1.4C247.52,415.91,248.14,416.54,248.14,417.31z"/>
					<path id="XMLID_00000111186730558286273240000008410584823071821213_" class="st3" d="M248.14,417.31c0,0.77-0.62,1.4-1.38,1.4
						c-0.76,0-1.38-0.63-1.38-1.4c0-0.77,0.62-1.4,1.38-1.4C247.52,415.91,248.14,416.54,248.14,417.31z"/>
				</g>
				<g>
					<path id="XMLID_00000124144449242781755610000008040885320703037085_" class="st2" d="M244.22,408.57
						c0,0.62-0.5,1.13-1.11,1.13c-0.62,0-1.11-0.5-1.11-1.13c0-0.62,0.5-1.13,1.11-1.13C243.72,407.44,244.22,407.94,244.22,408.57z
						"/>
					<path id="XMLID_00000159459658007944111210000006470443705524408705_" class="st4" d="M244.22,408.57
						c0,0.62-0.5,1.13-1.11,1.13c-0.62,0-1.11-0.5-1.11-1.13c0-0.62,0.5-1.13,1.11-1.13C243.72,407.44,244.22,407.94,244.22,408.57z
						"/>
				</g>
			</g>
			<g>
				<g>
					<path id="XMLID_00000097484231683676504920000015494814956690874028_" class="st2" d="M391.62,233.83
						c0.05,0.94,0.83,1.66,1.76,1.61c0.92-0.05,1.64-0.84,1.59-1.78c-0.05-0.94-0.83-1.66-1.76-1.61
						C392.29,232.1,391.57,232.9,391.62,233.83z"/>
					<path id="XMLID_00000016041571615987050830000008726899822692133041_" class="st3" d="M391.62,233.83
						c0.05,0.94,0.83,1.66,1.76,1.61c0.92-0.05,1.64-0.84,1.59-1.78c-0.05-0.94-0.83-1.66-1.76-1.61
						C392.29,232.1,391.57,232.9,391.62,233.83z"/>
				</g>
				<g>
					<path id="XMLID_00000127761795772228795290000017114163470140770733_" class="st2" d="M388.16,241.03
						c0.36-0.35,0.94-0.33,1.28,0.04c0.34,0.37,0.33,0.95-0.04,1.29c-0.36,0.35-0.94,0.33-1.28-0.04
						C387.78,241.96,387.8,241.38,388.16,241.03z"/>
					<path id="XMLID_00000152949911707899092760000004003894690788785836_" class="st4" d="M388.16,241.03
						c0.36-0.35,0.94-0.33,1.28,0.04c0.34,0.37,0.33,0.95-0.04,1.29c-0.36,0.35-0.94,0.33-1.28-0.04
						C387.78,241.96,387.8,241.38,388.16,241.03z"/>
				</g>
			</g>
			<g>
				<g>
					<path id="XMLID_00000127728727669466871960000015920349110528521661_" class="st2" d="M158.61,60.16
						c-0.44,0.83-0.13,1.85,0.69,2.3c0.82,0.44,1.83,0.13,2.27-0.7c0.44-0.83,0.13-1.85-0.69-2.29
						C160.07,59.02,159.05,59.33,158.61,60.16z"/>
					<path id="XMLID_00000104705850102299015290000004560014664986869393_" class="st3" d="M158.61,60.16
						c-0.44,0.83-0.13,1.85,0.69,2.3c0.82,0.44,1.83,0.13,2.27-0.7c0.44-0.83,0.13-1.85-0.69-2.29
						C160.07,59.02,159.05,59.33,158.61,60.16z"/>
				</g>
				<g>
					<path id="XMLID_00000067235505782873833430000013215397837617390984_" class="st2" d="M152,64.55c0.49-0.11,0.97,0.2,1.08,0.7
						c0.11,0.49-0.2,0.98-0.69,1.09c-0.49,0.11-0.97-0.2-1.08-0.7C151.2,65.14,151.51,64.66,152,64.55z"/>
					<path id="XMLID_00000031192940892862578750000002915957528603725980_" class="st4" d="M152,64.55c0.49-0.11,0.97,0.2,1.08,0.7
						c0.11,0.49-0.2,0.98-0.69,1.09c-0.49,0.11-0.97-0.2-1.08-0.7C151.2,65.14,151.51,64.66,152,64.55z"/>
				</g>
			</g>
			<g>
				<g>
					<path id="XMLID_00000123422735440748712140000008478251235189297073_" class="st2" d="M464.66,282.4
						c0.93-0.01,1.67-0.77,1.66-1.71c-0.01-0.94-0.76-1.69-1.69-1.68c-0.93,0.01-1.67,0.77-1.66,1.71
						C462.98,281.65,463.73,282.4,464.66,282.4z"/>
					<path id="XMLID_00000111914022673981707780000008009369526324205243_" class="st3" d="M464.66,282.4
						c0.93-0.01,1.67-0.77,1.66-1.71c-0.01-0.94-0.76-1.69-1.69-1.68c-0.93,0.01-1.67,0.77-1.66,1.71
						C462.98,281.65,463.73,282.4,464.66,282.4z"/>
				</g>
				<g>
					<path id="XMLID_00000085936822550210194780000002993068694082039691_" class="st2" d="M471.63,286.18
						c-0.33-0.38-0.29-0.96,0.09-1.29c0.38-0.33,0.95-0.29,1.28,0.09c0.33,0.38,0.29,0.96-0.09,1.29
						C472.53,286.6,471.96,286.56,471.63,286.18z"/>
					<path id="XMLID_00000091718394813819058180000007093644667633372091_" class="st4" d="M471.63,286.18
						c-0.33-0.38-0.29-0.96,0.09-1.29c0.38-0.33,0.95-0.29,1.28,0.09c0.33,0.38,0.29,0.96-0.09,1.29
						C472.53,286.6,471.96,286.56,471.63,286.18z"/>
				</g>
				<g>
					<path id="XMLID_00000116219269608168933120000002847222060878775219_" class="st2" d="M471.07,277.71
						c-0.33-0.38-0.29-0.96,0.09-1.29c0.38-0.33,0.95-0.29,1.28,0.09c0.33,0.38,0.29,0.96-0.09,1.29
						C471.97,278.13,471.4,278.09,471.07,277.71z"/>
					<path id="XMLID_00000032625133606367222330000016583531315152612758_" class="st4" d="M471.07,277.71
						c-0.33-0.38-0.29-0.96,0.09-1.29c0.38-0.33,0.95-0.29,1.28,0.09c0.33,0.38,0.29,0.96-0.09,1.29
						C471.97,278.13,471.4,278.09,471.07,277.71z"/>
				</g>
			</g>
		</g>
	</g>
</g>
<g id="Planets" class="st5">
	<g id="Saturn_00000134213852057262396550000010986103149428409245_" class="st6">
		<g id="Planet_7_">
			<ellipse id="XMLID_1519_" class="st2" cx="381.66" cy="365.72" rx="49.41" ry="49.98"/>
			<ellipse id="XMLID_1551_" class="st7" cx="381.66" cy="365.72" rx="49.41" ry="49.98"/>
			<g class="st8">
				<path class="st2" d="M341.09,372.78c4.05-0.69,8.07-1.58,12.05-2.6c3.97-1.02,7.91-2.18,11.8-3.48
					c3.98-1.33,8.05-3.36,12.31-3.39c3.71-0.02,7.25,0.53,10.97-0.03c3.65-0.55,7.18-1.74,10.5-3.36
					c6.93-3.38,12.67-8.64,17.78-14.36c2.18-2.44,4.25-4.98,6.29-7.54c-0.76-1.15-1.55-2.28-2.4-3.35c-2.09,2.62-4.2,5.24-6.4,7.77
					c-4.63,5.31-9.82,10.29-16.04,13.63c-3.19,1.72-6.61,3-10.19,3.59c-3.78,0.62-7.44-0.15-11.21-0.02c-3.88,0.14-7.45,1.7-11.06,3
					c-3.62,1.3-7.28,2.47-10.98,3.51c-4.28,1.21-8.61,2.2-12.96,3.11c-2.7,0.56-5.41,1.02-8.12,1.48c-0.3,0.05-0.6,0.1-0.9,0.15
					c0.11,1.04,0.24,2.08,0.41,3.12C335.68,373.77,338.44,373.23,341.09,372.78z"/>
				<path class="st2" d="M346.47,360.57c6.26-1.2,12.28-3.4,17.94-6.35c5.4-2.82,10.7-7.24,17.22-6.3c4.6,0.67,10.5,0.19,14.62-2.14
					c5.65-3.2,11.09-7.42,15.15-12.54c1.15-1.45,2.5-2.84,3.72-4.3c-1-0.93-2.03-1.82-3.09-2.66c-0.29,0.36-0.57,0.71-0.85,1.04
					c-1.02,1.17-2.07,2.31-3.11,3.46c-2.27,2.49-4.3,5.13-7.08,7.08c-2.94,2.06-6.13,3.99-9.53,5.17c-1.92,0.67-7.6,2.16-8.94-0.32
					c-0.35-0.66,0.21-1.42,0.73-1.95c4.4-4.47,9.09-8.69,12.67-13.86c0.9-1.29,1.81-2.62,2.28-4.12c0.32-1.02,0.42-2.09,0.47-3.16
					c0.01-0.28,0-0.56-0.03-0.83c-0.86-0.32-1.74-0.62-2.62-0.89c-0.02,0.1-0.05,0.2-0.07,0.31c-0.67,3.58-3.81,7.5-5.97,10.34
					c-3.02,3.99-6.83,7.29-10.62,10.51c-9.05,7.67-19.11,13.97-30.65,17.01c-5.28,1.39-10.49,1.71-15.81,1.64
					c-0.19,1.21-0.35,2.43-0.46,3.66C337.09,361.87,341.92,361.44,346.47,360.57z"/>
				<path class="st2" d="M361.5,343.76c8.89-3.83,17.85-9.13,24.53-16.31c1.67-1.8,3.16-3.78,4.31-5.97
					c0.69-1.31,1.47-2.99,1.72-4.63c-0.76-0.17-1.53-0.31-2.3-0.44c-0.04,0.12-0.06,0.24-0.11,0.36c-0.33,0.98-0.73,1.93-1.2,2.84
					c-1.02,1.98-2.33,3.78-3.8,5.44c-3.08,3.47-6.81,6.24-10.66,8.77c-8.46,5.56-17.73,9.75-27.56,12.14
					c-3.58,0.87-7.25,1.52-10.93,1.92c-0.33,0.88-0.64,1.77-0.92,2.67C343.84,349.68,352.91,347.46,361.5,343.76z"/>
				<path class="st2" d="M342.7,339.11c3.07-0.04,6.12-0.44,9.1-1.18c5.7-1.41,11.05-3.86,16.16-6.75
					c5.08-2.87,10.45-5.9,14.78-9.87c1.67-1.53,3.15-3.29,4.26-5.27c-1.44-0.16-2.88-0.26-4.34-0.29c-1.24,1.67-2.77,3.15-4.38,4.43
					c-4.2,3.35-8.99,6.17-13.69,8.73c-4.67,2.54-9.59,4.74-14.79,5.88c-2.5,0.55-5.07,0.89-7.63,0.91c-0.8,1.08-1.56,2.18-2.27,3.31
					C340.83,339.08,341.76,339.12,342.7,339.11z"/>
				<path class="st2" d="M427.23,376.75c-3.36,5.48-7.5,10.45-12.32,14.67c-4.72,4.13-10.72,8.55-17.26,8.41
					c-3.34-0.07-6.05-2.27-9.39-2.35c-3.61-0.08-7.03,1.68-10.34,2.91c-4.21,1.57-8.47,2.93-12.82,4.04
					c-3.92,1-7.96,1.71-12.01,2.05c1.33,0.95,2.7,1.84,4.12,2.66c4.08-0.37,8.12-1.12,12.08-2.19c3.93-1.06,7.79-2.36,11.6-3.77
					c1.75-0.65,3.49-1.39,5.31-1.82c1.31-0.31,7.18,0.22,6.42,2.23c-0.46,1.2-2.95,1.94-3.98,2.48c-1.53,0.81-3.05,1.65-4.58,2.49
					c-3.41,1.88-6.84,3.76-10.39,5.36c-0.6,0.27-1.22,0.52-1.83,0.77c1.81,0.37,3.65,0.65,5.51,0.81c2.83-1.29,5.58-2.75,8.31-4.24
					c4.39-2.39,9.06-4.6,13.67-6.68c4.64-2.08,9.45-3.8,13.64-6.71c5.86-4.08,11-9.37,15.16-15.19c0,0,0,0,0,0
					c1.48-4.14,2.45-8.5,2.8-12.98C429.84,372.14,428.61,374.49,427.23,376.75z"/>
				<path class="st2" d="M367.17,372.68c-3.74,2.28-7.8,4.15-11.91,5.63c-3.92,1.42-7.97,2.51-12.03,3.46
					c-2.34,0.54-4.7,1-7.06,1.45c-0.25,0.05-0.49,0.1-0.74,0.14c0.38,1.02,0.78,2.03,1.22,3.01c2.25-0.26,4.48-0.62,6.71-1.03
					c4.49-0.84,8.89-1.99,13.19-3.53c4.25-1.53,8.32-3.4,12.17-5.79c3.65-2.26,6.95-5.22,11.13-6.47c0.46-0.14,0.22-1.03-0.18-1.1
					C375,367.62,370.99,370.35,367.17,372.68z"/>
				<path class="st2" d="M384.8,388.37c7.32-3.64,14.43-7.86,21.28-12.33c6.65-4.34,12.69-9.27,17.64-15.56
					c2.01-2.55,3.82-5.27,5.58-8.01c-0.44-1.62-0.95-3.19-1.54-4.73c-1.93,2.95-3.89,5.88-6.01,8.69
					c-4.59,6.09-9.91,11.11-16.19,15.39c-6.27,4.28-12.9,8.16-19.6,11.71c-6.78,3.59-13.85,6.7-21.31,8.54
					c-3.91,0.96-7.88,1.65-11.9,1.84c-4.16,0.2-8.24-0.12-12.33-0.64c0.71,1.08,1.45,2.13,2.23,3.14
					c6.26,1.47,12.98,1.07,19.23-0.02C369.87,395,377.55,391.98,384.8,388.37z"/>
				<path class="st2" d="M394.84,370.18c-3.94,2.43-8.05,4.92-12.35,6.65c-0.14,0.06-0.13,0.43,0.04,0.38
					c4.44-1.35,8.72-2.7,12.85-4.88c3.94-2.08,7.73-4.53,11.21-7.34c6.72-5.44,12.61-11.93,17.31-19.23
					c0.6-0.94,1.18-1.89,1.74-2.85c-0.49-0.97-1.02-1.9-1.56-2.83C417.14,352.46,406.9,362.75,394.84,370.18z"/>
				<path class="st2" d="M428.36,361.84c-2.55,3.71-5.43,7.18-8.31,10.62c-3.21,3.83-6.67,7.21-10.78,10.04
					c-1.95,1.35-3.97,2.6-6,3.82c-1.21,0.73-2.47,1.35-3.67,2.1c-1.08,0.67-2.37,1.11-3.36,1.89c-0.36,0.29-0.04,1.29,0.45,1.24
					c1.22-0.13,2.29-0.69,3.46-1c1.18-0.32,2.31-0.68,3.46-1.14c2.58-1.04,5.04-2.21,7.41-3.67c4.56-2.82,8.42-6.57,11.89-10.64
					c2.83-3.32,5.67-6.71,8.17-10.31c-0.04-2.13-0.24-4.29-0.56-6.45C429.84,359.53,429.13,360.7,428.36,361.84z"/>
			</g>
			<path id="XMLID_1518_" class="st9" d="M378.14,315.86c18.61-0.47,42.23,28.31,37.01,56.88c-5.55,30.38-41.41,44.05-61.23,34.33
				l-0.02,0.01c10.92,7.49,24.75,10.58,38.64,7.41c26.62-6.08,43.33-32.84,37.32-59.76C424.4,330.28,402.11,314.1,378.14,315.86z"/>
			<path id="XMLID_1517_" class="st10" d="M392.54,414.48c26.62-6.08,43.33-32.84,37.32-59.76c-3.91-17.52-16.48-30.8-32.11-36.26
				c1.94,0.71,26.47,9.6,27.91,45.1c1.5,36.95-33.1,50.91-40.8,52.05C387.4,415.44,389.97,415.07,392.54,414.48z"/>
			<path class="st11" d="M369.66,336.05c-0.94-4.21-5.08-6.86-9.24-5.91c-4.16,0.95-6.78,5.14-5.84,9.35
				c0.94,4.21,5.08,6.86,9.24,5.91C367.98,344.45,370.6,340.27,369.66,336.05z M348.94,348.03c-7.16,1.63-11.65,8.83-10.04,16.07
				c1.62,7.24,8.73,11.79,15.89,10.15c7.16-1.63,11.65-8.83,10.04-16.07C363.21,350.94,356.1,346.39,348.94,348.03z M373.96,347.71
				c-3.28,0.75-5.34,4.04-4.6,7.36c0.74,3.32,4,5.4,7.28,4.65c3.28-0.75,5.34-4.04,4.6-7.36
				C380.5,349.05,377.24,346.96,373.96,347.71z"/>
		</g>
		<g id="Rings_00000107551761541314430250000001610249817820582549_">
			<g class="st12">
				<path class="st2" d="M354.91,409.24c0.6-0.16,1.2-0.34,1.81-0.53c26.24-7.76,58.2-31.76,73.14-54.92
					c0.36-0.53,0.69-1.07,1.03-1.61c14.8-24.18,4.77-37.85-22.4-30.5c-0.7,0.19-1.41,0.4-2.12,0.62c2.21,1.27,4.32,2.72,6.32,4.33
					c9.16,0.24,13.49,5.37,11.86,13.85c-0.67,3.51-2.34,7.58-5.12,12.13c-11.85,19.36-39.06,39.79-60.81,45.66
					c-5.1,1.37-9.43,1.81-12.95,1.45c-8.5-0.87-12.12-6.56-9.69-15.5c-0.57-1.43-1.07-2.9-1.51-4.42c-0.29-0.98-0.54-1.97-0.76-2.97
					c-0.41,0.63-0.82,1.26-1.2,1.89C317.71,402.91,327.74,416.58,354.91,409.24z"/>
			</g>
			<g class="st13">
				<path class="st2" d="M351.16,423.09c6.93-1.87,14.2-4.7,21.55-8.27c21-10.17,42.61-26.4,58.32-43.8
					c5.51-6.08,10.29-12.3,14.06-18.47c18.29-29.9,5.9-46.79-27.7-37.72c-4.89,1.32-9.98,3.13-15.15,5.33
					c1,0.45,1.99,0.95,2.94,1.48c1.63-0.56,3.25-1.05,4.86-1.48c28.39-7.67,38.86,6.61,23.41,31.87c-0.92,1.51-1.92,3.02-2.99,4.53
					c-15.65,22.36-45.61,44.85-71.28,53.53c-1.72,0.58-3.45,1.11-5.13,1.56c-28.4,7.67-38.87-6.6-23.4-31.88
					c0.86-1.42,1.8-2.84,2.79-4.26c-0.23-1.09-0.41-2.17-0.54-3.27c-3.58,4.35-6.76,8.75-9.43,13.11
					C305.15,415.28,317.55,432.17,351.16,423.09z"/>
			</g>
			<g>
				<path class="st2" d="M413.43,318.4c4.79-1.21,9.72-2.02,14.65-1.84c2.46,0.11,4.91,0.47,7.24,1.23
					c2.31,0.77,4.53,1.93,6.27,3.65c1.75,1.7,3.02,3.85,3.7,6.2c0.66,2.36,0.79,4.85,0.56,7.3c-0.45,4.92-2.25,9.64-4.44,14.05
					c-4.54,8.81-10.78,16.67-17.57,23.86c-6.82,7.2-14.3,13.74-22.21,19.69c-7.92,5.94-16.27,11.3-25.05,15.82
					c-8.77,4.51-18.01,8.25-27.66,10.14c-4.82,0.88-9.78,1.29-14.6,0.45c-2.4-0.42-4.75-1.16-6.86-2.37
					c-2.12-1.18-3.91-2.93-5.14-5.04c-1.26-2.09-1.89-4.54-2.01-7.01c-0.13-2.47,0.19-4.96,0.76-7.38c1.2-4.84,3.39-9.38,5.92-13.67
					c-2.61,4.24-4.9,8.74-6.21,13.6c-0.63,2.43-1.01,4.94-0.93,7.48c0.07,2.53,0.67,5.08,1.94,7.3c1.25,2.22,3.12,4.08,5.32,5.34
					c2.19,1.29,4.61,2.08,7.08,2.54c4.95,0.92,10.01,0.55,14.91-0.28c4.91-0.87,9.71-2.28,14.37-4.02
					c4.67-1.73,9.21-3.78,13.64-6.05c8.87-4.52,17.3-9.88,25.28-15.83c7.94-6.02,15.45-12.63,22.29-19.91
					c3.42-3.63,6.68-7.44,9.66-11.46c2.99-4.01,5.72-8.25,7.94-12.76c2.18-4.52,3.96-9.34,4.37-14.42c0.2-2.53,0.05-5.11-0.67-7.57
					c-0.74-2.44-2.11-4.71-3.96-6.44c-1.85-1.76-4.17-2.9-6.55-3.64c-2.39-0.73-4.89-1.04-7.37-1.1
					C423.11,316.17,418.2,317.09,413.43,318.4z"/>
			</g>
			<g>
				<path class="st2" d="M417.56,322.82c3.39,0.17,6.87,0.98,9.57,3.09l0.99,0.8l0.83,0.96l0.42,0.48c0.12,0.17,0.22,0.36,0.33,0.54
					l0.65,1.09c0.67,1.55,1.15,3.2,1.21,4.91c0.21,3.4-0.59,6.8-1.78,9.99c-1.16,3.22-2.89,6.2-4.67,9.11
					c-3.72,5.75-8.16,11.01-12.97,15.87c-4.8,4.88-10,9.35-15.45,13.47c-5.44,4.13-11.16,7.9-17.12,11.21
					c-5.98,3.28-12.19,6.15-18.69,8.18c-3.25,1-6.57,1.77-9.93,2.15c-3.36,0.38-6.8,0.38-10.07-0.49c-0.8-0.27-1.64-0.42-2.39-0.82
					l-1.15-0.53c-0.37-0.21-0.71-0.46-1.06-0.68c-0.75-0.41-1.3-1.06-1.94-1.62c-0.3-0.3-0.52-0.67-0.79-1
					c-0.26-0.34-0.53-0.67-0.69-1.06c-1.66-3-1.85-6.65-1.21-10.02c-0.72,3.35-0.63,7.03,1,10.14c0.16,0.41,0.43,0.75,0.69,1.11
					c0.26,0.34,0.48,0.73,0.79,1.04c0.64,0.59,1.2,1.27,1.96,1.72c0.36,0.24,0.71,0.51,1.08,0.73l1.17,0.57
					c0.76,0.43,1.62,0.61,2.43,0.91c3.34,0.95,6.85,0.98,10.26,0.65c3.42-0.34,6.8-1.07,10.09-2.04c6.6-1.94,12.86-4.86,18.9-8.12
					c6.02-3.31,11.79-7.07,17.29-11.21c5.47-4.17,10.68-8.7,15.49-13.63c4.81-4.92,9.31-10.22,12.97-16.1
					c1.77-2.97,3.48-6.01,4.62-9.31c1.16-3.26,1.95-6.75,1.67-10.25c-0.1-1.75-0.63-3.46-1.37-5.04l-0.69-1.11
					c-0.12-0.18-0.22-0.38-0.35-0.55l-0.44-0.48l-0.88-0.96l-1.03-0.79C424.47,323.63,420.95,322.92,417.56,322.82z"/>
			</g>
			<g>
				<g>
					<g class="st14">
						<path class="st2" d="M349.56,437.76c12.72-3.38,26.5-9.52,40.06-17.49c14.65-8.6,29.02-19.29,41.5-30.89
							c11.55-10.73,21.46-22.23,28.43-33.52c3.28-5.33,5.86-10.5,7.65-15.35c6.57-17.76,1.9-28.26-3.19-33.95
							c-8.56-9.58-24.56-11.87-45.05-6.44c-8.78,2.33-18.08,5.98-27.45,10.63c0.75,0.13,1.51,0.3,2.25,0.47
							c8.74-4.23,17.37-7.56,25.56-9.74c19.95-5.3,35.45-3.15,43.67,6.03c4.81,5.4,9.23,15.41,2.9,32.51
							c-1.77,4.77-4.29,9.84-7.53,15.09c-6.44,10.41-15.39,21.01-25.85,31.01c-13.68,13.13-29.92,25.22-46.37,34.55
							c-12.54,7.11-25.2,12.61-36.93,15.73c-19.97,5.3-35.47,3.16-43.67-6.03c-4.83-5.39-9.23-15.41-2.91-32.48
							c1.77-4.79,4.3-9.87,7.55-15.11c4.47-7.26,10.17-14.6,16.75-21.78c0.06-0.76,0.13-1.53,0.22-2.29
							c-7.17,7.65-13.35,15.53-18.15,23.32c-3.3,5.33-5.87,10.49-7.68,15.37c-6.56,17.74-1.89,28.24,3.18,33.92
							C313.07,440.91,329.08,443.2,349.56,437.76z"/>
					</g>
				</g>
				<g>
					<g class="st8">
						<path class="st2" d="M351.05,430.96c10.2-2.71,21.13-7.35,32.04-13.33c16.9-9.28,33.69-21.8,47.48-35.37
							c8.88-8.75,16.52-17.94,22.11-26.99c2.98-4.85,5.32-9.53,6.95-13.92c5.7-15.42,1.8-24.35-2.47-29.15
							c-7.36-8.24-21.45-10.11-39.67-5.26c-7.17,1.9-14.69,4.76-22.31,8.36c0.63,0.15,1.27,0.34,1.89,0.55
							c7.09-3.27,14.07-5.87,20.75-7.64c17.73-4.71,31.36-2.98,38.37,4.88c4.03,4.51,7.69,13,2.22,27.8
							c-1.59,4.3-3.9,8.91-6.83,13.68c-5.17,8.38-12.13,16.88-20.21,25.04c-14.56,14.72-32.81,28.31-51.03,38
							c-10.1,5.37-20.17,9.55-29.62,12.06c-17.73,4.71-31.36,2.98-38.36-4.88c-4.05-4.51-7.69-12.99-2.23-27.77
							c1.6-4.33,3.9-8.93,6.85-13.7c3.64-5.91,8.16-11.88,13.34-17.75c-0.01-0.66,0.01-1.34,0.04-2
							c-5.66,6.29-10.58,12.7-14.49,19.05c-3,4.84-5.34,9.54-6.97,13.94c-5.7,15.4-1.8,24.34,2.48,29.12
							C318.73,433.92,332.81,435.78,351.05,430.96z"/>
					</g>
				</g>
				<g>
					<g class="st15">
						<path class="st2" d="M351.75,426c8.39-2.22,17.32-5.84,26.28-10.48c18.62-9.61,37.43-23.62,52.03-38.76
							c7.04-7.29,13.13-14.84,17.73-22.3c2.78-4.51,4.94-8.84,6.45-12.9c5.03-13.6,1.75-21.31-1.89-25.4
							c-6.39-7.16-19.03-8.68-35.57-4.29c-5.95,1.58-12.17,3.85-18.47,6.69c0.57,0.19,1.14,0.4,1.69,0.64
							c5.83-2.57,11.58-4.63,17.1-6.1c16.07-4.27,28.26-2.87,34.33,3.92c3.4,3.82,6.45,11.09,1.64,24.1
							c-1.47,3.98-3.6,8.24-6.33,12.68c-4.27,6.91-9.8,13.91-16.22,20.69c-15.14,16.05-35.15,30.95-54.8,40.81
							c-8.3,4.17-16.52,7.42-24.3,9.49c-16.07,4.25-28.26,2.86-34.33-3.93c-3.4-3.82-6.45-11.09-1.65-24.07
							c1.48-3.99,3.61-8.27,6.35-12.69c3.01-4.89,6.67-9.82,10.81-14.69c-0.05-0.6-0.08-1.21-0.09-1.81
							c-4.54,5.23-8.53,10.56-11.78,15.82c-2.79,4.51-4.96,8.85-6.47,12.92c-5.03,13.59-1.75,21.29,1.89,25.37
							C322.57,428.86,335.2,430.4,351.75,426z"/>
					</g>
				</g>
				<g class="st16">
					<path class="st2" d="M351.11,423.55c7.19-1.91,14.78-4.85,22.45-8.59c20.57-10.03,41.72-25.77,57.29-42.68
						c5.82-6.31,10.88-12.77,14.82-19.16c2.72-4.41,4.8-8.59,6.24-12.48c3.35-9.06,3.21-16.54-0.54-21.69
						c-5.37-7.36-17.43-9.01-33.97-4.62c-5.1,1.36-10.4,3.22-15.79,5.54c0.51,0.24,1.03,0.47,1.54,0.71
						c4.97-2.07,9.85-3.78,14.57-5.03c16-4.24,27.59-2.78,32.63,4.15c5.05,6.93,3,18.56-5.75,32.75
						c-3.64,5.9-8.23,11.88-13.51,17.72c-15.96,17.68-38.18,34.23-59.61,44.38c-7.07,3.36-14.05,6.01-20.69,7.77
						c-16.01,4.25-27.6,2.77-32.64-4.16c-3.48-4.8-3.58-11.84-0.4-20.43c1.41-3.82,3.47-7.94,6.17-12.32
						c2.58-4.18,5.62-8.39,9.05-12.56c-0.07-0.57-0.14-1.14-0.21-1.72c-3.77,4.51-7.12,9.08-9.9,13.6
						c-2.73,4.42-4.83,8.62-6.28,12.52c-3.34,9.03-3.19,16.5,0.55,21.65C322.53,426.29,334.58,427.95,351.11,423.55z"/>
				</g>
			</g>
		</g>
	</g>
	<g id="Mercury" class="st6">
		<g id="Rings_1_">
			<g id="XMLID_1557_" class="st16">
				<path class="st17" d="M416.13,198.4c-4.85,0-9.66-1.17-14.09-3.49c-7.33-3.84-12.73-10.35-15.19-18.32
					c-5.05-16.35,3.99-33.8,20.15-38.91c7.78-2.46,16.05-1.73,23.28,2.06c7.33,3.84,12.73,10.35,15.19,18.32
					c5.05,16.35-3.99,33.8-20.15,38.91C422.3,197.92,419.21,198.4,416.13,198.4z M407.1,138.02l0.11,0.34
					c-15.79,4.99-24.61,22.05-19.68,38.02c2.41,7.79,7.68,14.14,14.84,17.89c7.06,3.7,15.14,4.41,22.73,2.01
					c15.79-4.99,24.61-22.05,19.68-38.02c-2.41-7.79-7.68-14.14-14.84-17.89c-7.07-3.7-15.14-4.42-22.73-2.01L407.1,138.02z"/>
			</g>
			<g id="XMLID_1555_" class="st15">
				<path class="st17" d="M416.12,200.65c-5.2,0-10.36-1.26-15.11-3.74c-7.87-4.12-13.65-11.09-16.29-19.64
					c-5.42-17.53,4.28-36.25,21.61-41.73l0,0c8.34-2.64,17.21-1.85,24.97,2.21c7.86,4.12,13.65,11.09,16.29,19.64
					c5.42,17.53-4.27,36.25-21.61,41.73C422.75,200.14,419.43,200.65,416.12,200.65z M406.55,136.21
					c-16.96,5.36-26.44,23.68-21.14,40.83c2.58,8.37,8.25,15.19,15.94,19.22c7.59,3.97,16.26,4.74,24.42,2.16
					c16.96-5.36,26.44-23.68,21.14-40.84c-2.58-8.36-8.25-15.19-15.94-19.22C423.38,134.4,414.7,133.63,406.55,136.21L406.55,136.21
					z"/>
			</g>
			<g id="XMLID_1553_" class="st8">
				<path class="st17" d="M416.12,203.43c-5.63,0-11.22-1.36-16.37-4.06c-8.52-4.46-14.79-12.02-17.65-21.28
					c-5.87-18.99,4.63-39.27,23.41-45.21l0.11,0.34l-0.11-0.34c9.03-2.86,18.64-2.01,27.05,2.4c8.52,4.46,14.79,12.02,17.65,21.28
					c5.87,18.99-4.63,39.27-23.41,45.21C423.3,202.88,419.7,203.43,416.12,203.43z M416.2,131.94c-3.51,0-7.03,0.54-10.47,1.63l0,0
					c-18.4,5.82-28.69,25.7-22.94,44.31c2.8,9.08,8.95,16.48,17.3,20.86c8.24,4.31,17.65,5.15,26.5,2.35
					c18.4-5.82,28.69-25.7,22.94-44.31c-2.8-9.08-8.95-16.48-17.3-20.86C427.19,133.27,421.72,131.94,416.2,131.94z"/>
			</g>
			<g id="XMLID_1242_" class="st14">
				<path class="st17" d="M416.12,206.88c-6.17,0-12.3-1.49-17.93-4.44c-9.34-4.89-16.21-13.17-19.34-23.32
					c-6.43-20.81,5.07-43.03,25.65-49.54c9.9-3.13,20.43-2.2,29.64,2.62c9.34,4.89,16.21,13.17,19.34,23.32
					c6.43,20.81-5.08,43.03-25.65,49.54C423.98,206.28,420.04,206.88,416.12,206.88z M404.6,129.92l0.11,0.34
					c-20.2,6.39-31.49,28.21-25.18,48.64c3.08,9.96,9.82,18.1,18.99,22.89c9.04,4.73,19.37,5.65,29.09,2.58
					c20.2-6.39,31.49-28.21,25.18-48.64c-3.08-9.96-9.82-18.09-18.99-22.89c-9.04-4.74-19.37-5.65-29.09-2.58L404.6,129.92z"/>
			</g>
		</g>
		<g id="Planet_1_">
			<path id="XMLID_1238_" class="st17" d="M407.75,140.1c14.86-4.7,30.68,3.68,35.32,18.71c4.65,15.03-3.64,31.03-18.5,35.73
				c-14.86,4.7-30.68-3.68-35.32-18.71C384.6,160.8,392.88,144.8,407.75,140.1z"/>
			<path class="st14" d="M432.31,168.26c-2.58-0.89-5.76-0.26-7.45,1.91c-0.76,0.98-1.22,2.24-2.23,2.96
				c-1.54,1.1-3.71,0.51-5.29-0.53c-1.58-1.04-2.92-2.48-4.68-3.18c-1.56-0.62-3.37-0.57-4.9,0.14c-0.53,0.25-1.04,0.58-1.38,1.07
				c-0.87,1.24-0.34,2.95,0.21,4.36c0.77,1.97,1.54,3.94,2.31,5.91c0.61,1.57,1.19,3.46,0.23,4.83c-0.54,0.77-1.45,1.18-2.12,1.83
				c-1.56,1.52-1.54,4.2-0.41,6.08c0.14,0.23,0.29,0.46,0.46,0.67c5.47,1.89,11.56,2.11,17.5,0.23c6.87-2.17,12.33-6.77,15.77-12.56
				c-0.01-0.07-0.02-0.15-0.03-0.23c-0.41-2.73-0.95-5.49-2.18-7.95C436.9,171.34,434.9,169.16,432.31,168.26z"/>
			<path class="st14" d="M437.35,161.77c0.26-1.2,0.06-2.46-0.23-3.65c-0.85-3.57-2.84-7.24-6.28-8.41
				c-1.44-0.49-3.09-0.53-4.25-1.52c-1.14-0.97-1.47-2.61-1.47-4.12c0.01-1.25,0.19-2.5,0.13-3.73c-5.47-1.89-11.57-2.11-17.52-0.23
				c-6.33,2-11.46,6.06-14.92,11.21c1.07,0.91,2.38,1.53,3.77,1.69c2.77,0.33,5.76-0.86,8.27,0.37c3.77,1.85,3.77,7.75,7.26,10.09
				c2.43,1.63,5.68,0.96,8.46,0.06c2.78-0.9,5.79-1.97,8.54-0.96c2.03,0.75,3.96,2.62,6.02,1.94
				C436.3,164.12,437.09,162.98,437.35,161.77z"/>
			<path class="st14" d="M397.33,168.83c-0.79-2.46,0.07-5.27-0.85-7.69c-0.99-2.6-3.63-3.93-6.37-4.74
				c-2.45,5.96-2.92,12.79-0.87,19.43c1.24,4.02,3.29,7.56,5.9,10.5c1.47-0.03,2.92-0.27,4.32-0.78c2.54-0.93,5-3.03,5.07-5.76
				c0.05-2.25-1.5-4.18-3.1-5.74C399.82,172.49,398.02,170.96,397.33,168.83z"/>
			<path id="XMLID_1235_" class="st14" d="M411.88,139.13c10.56-1.13,25.31,14.13,23.64,30.62c-1.77,17.54-21.54,26.99-33.26,22.38
				l-0.01,0c6.55,3.75,14.56,4.86,22.31,2.41c14.86-4.7,23.14-20.7,18.5-35.73C438.85,145.17,425.44,137.01,411.88,139.13z"/>
			<path id="XMLID_1229_" class="st14" d="M424.57,194.54c14.86-4.7,23.14-20.7,18.5-35.73c-3.02-9.78-10.78-16.75-19.92-19.12
				c1.14,0.31,15.49,4.23,17.93,24.35c2.54,20.95-16.5,30.5-20.83,31.51C421.69,195.33,423.14,195,424.57,194.54z"/>
			<path class="st11" d="M407.98,151.01c-0.73-2.35-3.2-3.66-5.53-2.93c-2.32,0.74-3.62,3.24-2.89,5.59
				c0.73,2.35,3.2,3.66,5.53,2.93C407.41,155.86,408.71,153.36,407.98,151.01z M396.74,158.78c-4,1.26-6.22,5.57-4.97,9.61
				c1.25,4.04,5.5,6.3,9.5,5.03c4-1.26,6.22-5.57,4.97-9.61C404.99,159.77,400.74,157.52,396.74,158.78z M410.96,157.44
				c-1.83,0.58-2.85,2.55-2.28,4.4c0.57,1.85,2.52,2.88,4.35,2.3c1.83-0.58,2.85-2.55,2.28-4.4
				C414.74,157.89,412.79,156.86,410.96,157.44z"/>
			<g class="st8">
				<path d="M425.01,151.47c-2.02,0.64-6.47,0.46-7.64-1.25c-0.41-0.6-0.59-1.63,0.89-3.08c1.71-1.68,6.18-1.05,7.93,0.64
					c0.92,0.89,0.97,1.95,0.12,2.92c-0.25,0.28-0.57,0.46-0.88,0.61l0,0C425.31,151.37,425.17,151.43,425.01,151.47z M419.81,147.08
					c-0.42,0.13-0.78,0.33-1.05,0.59c-0.9,0.88-1.17,1.6-0.8,2.15c0.98,1.44,5.51,1.61,7.17,0.84c0.24-0.11,0.49-0.24,0.65-0.43
					c0.59-0.67,0.56-1.29-0.08-1.91C424.47,147.13,421.61,146.51,419.81,147.08z"/>
			</g>
			<g class="st8">
				<path d="M422.85,190.94c-1.11,0.35-2.14,0.46-3.09,0.32c-1.33-0.19-2.46-0.87-3.11-1.87c-0.87-1.33-0.76-2.77,0.28-3.87l0,0
					c0.65-0.68,1.61-1.17,2.65-1.34c1.36-0.22,3.67,0.69,4.95,1.95c0.78,0.77,1.14,1.6,1.03,2.41c-0.12,0.95-0.93,1.74-2.27,2.24
					C423.15,190.84,423,190.9,422.85,190.94z M419.07,185.05c-0.64,0.2-1.21,0.54-1.62,0.98l0,0c-0.48,0.5-1.13,1.55-0.2,2.97
					c0.53,0.82,1.51,1.4,2.62,1.56c0.96,0.14,2.03-0.01,3.19-0.44c0.63-0.23,1.69-0.75,1.81-1.66c0.09-0.73-0.4-1.38-0.82-1.8
					c-1.23-1.21-3.31-1.92-4.34-1.75C419.48,184.93,419.27,184.98,419.07,185.05z"/>
			</g>
			<g>
				<path class="st17" d="M427.95,166.05c-0.02,0.01-0.03,0.02-0.05,0.03c-1.66,0.95-1.02,2.88-1.26,4.45
					c-0.06,0.41-0.1,0.84,0.04,1.22c0.27,0.74,1.16,1.1,1.93,0.96c0.77-0.14,1.42-0.65,1.95-1.23c0.77-0.83,1.38-1.88,1.43-3.01
					C432.08,165.96,429.97,164.93,427.95,166.05z M425.01,161.15c-0.67-2.95-4.53-6.41-7.72-6.06c-3.36,0.37-6.11,5.61-5.17,8.69
					c0.48,1.56,1.95,2.66,3.52,3.06c1.57,0.4,3.22,0.2,4.81-0.12c1.66-0.33,3.46-0.94,4.28-2.44
					C425.23,163.35,425.25,162.2,425.01,161.15z M397.67,168.67c-0.85,0.03-1.69,0.69-1.5,1.68c0.18,0.93,1.3,1.55,2.15,1.16
					c0.78-0.36,1.11-1.46,0.65-2.19C398.67,168.84,398.17,168.65,397.67,168.67z M406.28,183.66c-0.27-0.05-0.55-0.02-0.81,0.06
					c-0.87,0.28-1.77,1.41-0.68,2.16c0.33,0.23,0.77,0.22,1.16,0.14c0.91-0.19,1.86-1.4,0.82-2.16
					C406.62,183.76,406.46,183.69,406.28,183.66z"/>
				<path class="st8" d="M427.95,166.05c-0.02,0.01-0.03,0.02-0.05,0.03c-1.66,0.95-1.02,2.88-1.26,4.45
					c-0.06,0.41-0.1,0.84,0.04,1.22c0.27,0.74,1.16,1.1,1.93,0.96c0.77-0.14,1.42-0.65,1.95-1.23c0.77-0.83,1.38-1.88,1.43-3.01
					C432.08,165.96,429.97,164.93,427.95,166.05z M425.01,161.15c-0.67-2.95-4.53-6.41-7.72-6.06c-3.36,0.37-6.11,5.61-5.17,8.69
					c0.48,1.56,1.95,2.66,3.52,3.06c1.57,0.4,3.22,0.2,4.81-0.12c1.66-0.33,3.46-0.94,4.28-2.44
					C425.23,163.35,425.25,162.2,425.01,161.15z M397.67,168.67c-0.85,0.03-1.69,0.69-1.5,1.68c0.18,0.93,1.3,1.55,2.15,1.16
					c0.78-0.36,1.11-1.46,0.65-2.19C398.67,168.84,398.17,168.65,397.67,168.67z M406.28,183.66c-0.27-0.05-0.55-0.02-0.81,0.06
					c-0.87,0.28-1.77,1.41-0.68,2.16c0.33,0.23,0.77,0.22,1.16,0.14c0.91-0.19,1.86-1.4,0.82-2.16
					C406.62,183.76,406.46,183.69,406.28,183.66z"/>
			</g>
		</g>
	</g>
</g>
<g id="Character">
	<g id="Astronaut_00000178889252872823875190000001451928437916504207_">
		<g id="Bottom_00000103243929526908753980000006208026911390414487_">
			<g>
				<path class="st18" d="M264.78,293.33c-7.34-16.75-17.1-32.75-17.1-32.75l-93.35,16.48c-0.32,13.27,1.85,24.8,11.02,37.02
					c2.6,3.46,5.67,7.08,8.81,10.56c-1.32,3.26-2.89,8.75-2.48,15.81c0.68,11.73,5.32,16.22,5.32,16.22s1.34-0.1,5.55-0.23
					c-0.79,1.31-1.54,2.68-2.19,4.11c-4.26,9.44-9.5,21.88-9.5,21.88s2.18,9.22,9.71,14.33c7.53,5.11,14,3.49,14,3.49
					s25.7-24.77,33.1-31.59c4.96-4.57,10.93-11.33,12.02-13.89c13.02-1.55,22.75-8.35,26.6-13.77
					C273.18,331.32,273,312.08,264.78,293.33z"/>
				<g>
					<path class="st17" d="M178.76,387.29l-2.88-0.97c1.9-5.79,9.34-24.89,16.45-35.2c6.36-9.22,7.17-10.4-5.78-24.92
						c-13.56-15.19-22.38-31.64-22.47-41.9l3.04-0.03c0.09,9.56,8.6,25.21,21.69,39.88c13.08,14.65,13.7,17.61,6.02,28.74
						C187.99,362.78,180.55,381.84,178.76,387.29z"/>
				</g>
				<path class="st17" d="M239.71,354.76c5.75-14.28,1.58-27.28-2.71-36.25c-4.29-8.97-10.65-17.54-10.65-17.54s13.69-7.69,17-18.22
					c1.21,10.05-8.56,20.24-8.56,20.24S254.6,334.79,239.71,354.76z"/>
			</g>
			<g>
				<path class="st19" d="M188.24,347.65c-1.65,2.07-3.73,5.04-5.66,8.75c-0.25,0.01-0.48,0.04-0.71,0.06l-0.11,0.01
					c-3.76,0.31-6.65,0.72-7.93,1.56c-2.62,1.7-6.19,12.19-7.94,19.23c-1.76,7.06-9.87,9.21-15.26,7.28
					c-5.38-1.92-12.09-15.59-8.66-25.48c3.44-9.89,8.12-11.5,8.41-17.71c0.28-6.21,0.78-10.35,4.12-13.83
					c7.36-2.96,8.14-0.35,15.08-2.9c1.04-0.38,2.17-0.86,3.33-1.4l11.48,13.02C185.15,340.93,186.64,344.86,188.24,347.65z"/>
				<path class="st20" d="M174.16,324.64l17.21,19.5c0,0-4.75,4.43-8.82,12.3l-2.19,0.07c0,0,1.47-9.07,6.15-12.44L174.16,324.64z"
					/>
			</g>
			<path class="st19" d="M207.13,388.18l-2.18,2.09c-13.18-0.54-26.93-15.33-28.39-21.12l1.18-2.71
				c-2.98-1.51-7.45,12.25-11.99,19.36c-4.01,6.28-6.2,4.67-10.3,11.53c-0.58,4.82,1.49,8.43,4.97,13.55
				c3.48,5.12,0.72,9.26,3.88,19.25c3.16,9.99,16.67,16.78,22.11,15.03c5.44-1.75,10.62-8.44,7.81-15.12
				c-2.81-6.69-6.23-17.22-5.16-20.18c1.07-2.96,8.34-9.15,15.37-15.95C209.28,389.22,207.13,388.18,207.13,388.18z"/>
		</g>
		<g id="Top_00000158722435336197791890000016899587191206575549_">
			<g>
				<path class="st17" d="M217.87,186.21c15.03-3.78,23.63,6.14,35.5,6.38c12.97,0.27,18.04-4.19,22.96-14.33
					c8.83-5.1,19.49,0.48,21.37,5.6c-1.58,23.99-14.25,34.81-29.02,40.55c-13.97,5.43-31.62,3.6-41.53,0.21
					C213.32,209.49,215.19,192.73,217.87,186.21z"/>
				<g>
					<path class="st19" d="M274.26,165.3c0.79,0.89,1.33,1.98,2.09,2.89c0.59,0.7,1.31,1.29,2.11,1.72c0.52,0.28,1.08,0.5,1.54,0.87
						c1.12,0.91,0.58,1.81,0,2.85c-1.03,1.85-2.15,3.63-3.26,5.43c0.34,1.78,3.62,4.21,6.16,5.24c5.17,2.1,12.06,2.5,14.17,0.06
						c1.06-4.06,1.68-9.23,2.02-13.41c0.14-1.68,0.18-3.39-0.23-5.02c-0.33-1.31-0.95-2.52-1.64-3.68
						c-2.42-4.03-5.94-7.51-10.3-9.16c-4.36-1.65-9.6-1.25-13.28,1.64c-0.84,0.66-1.67,1.47-2.73,1.53
						c-1.29,0.07-2.48-0.74-3.84-0.67c-1.45,0.08-2.88,0.63-3.96,1.62c-0.32,0.29-0.61,0.63-0.78,1.03
						c-0.61,1.51,0.79,2.14,1.95,2.67c1.68,0.75,3.49,1.12,5.25,1.68C271.28,163.14,273.03,163.92,274.26,165.3z"/>
					<path class="st2" d="M276.33,178.26c-1.44,2.78-6.02,9.43-11.69,11.77c-0.94,6.34,11.53,21.02,25.51,19.49
						c3.7-5.13,8.3-15.09,7.55-25.65C290.52,187.58,278.3,184.12,276.33,178.26z"/>
					<g>
						<path class="st17" d="M316.22,235.55c1.05,2.25-3.9,4.62-4.96,2.37L241.85,89.37c-0.95-2.02,4.01-4.39,4.95-2.37
							L316.22,235.55z"/>
						<g>
							<path class="st2" d="M291.85,84.47c-15.37,11.13-29.6-8.5-45.44,5.24l14.45,30.52c8.34-12.34,27.05-3.6,37.87-17.62
								c8.07-10.46,6.08-19.97,11.55-24.98c0.63-0.58,0.2-1.65-0.65-1.66C302.53,75.91,297.95,80.05,291.85,84.47z"/>
							<path class="st21" d="M268.65,90.84l3.32,3.68l4.88-0.68c0.95-0.13,1.65,0.9,1.17,1.75l-2.43,4.33l2.15,4.48
								c0.42,0.88-0.34,1.86-1.28,1.67l-4.83-1l-3.55,3.45c-0.69,0.68-1.85,0.25-1.96-0.72l-0.55-4.95l-4.34-2.35
								c-0.85-0.46-0.81-1.71,0.07-2.11l4.49-2.06l0.87-4.91C266.81,90.47,268,90.12,268.65,90.84z"/>
						</g>
					</g>
					<path class="st19" d="M288.33,148.35c-0.59-0.19-1.14-0.43-1.63-0.86c-0.88-0.79-1.65-1.7-2.54-2.48
						c-0.94-0.82-1.93-1.62-3.09-2.05c-0.89-0.32-1.84-0.41-2.78-0.46c-2.77-0.15-5.62,0.04-7.68,2.15
						c-0.65,0.67-1.24,1.39-1.77,2.15c-0.48,0.69-0.89,1.42-1.28,2.16c-0.38,0.72-0.73,1.33-0.88,2.15
						c-0.03,0.18-0.06,0.38,0.02,0.55c0.07,0.15,0.21,0.25,0.36,0.34c0.98,0.56,2.24,0.43,3.24-0.08c1.63-0.83,2.55-2.61,4.33-3.21
						c0.78-0.26,1.63-0.29,2.43-0.09c0.6,0.15,1.63,0.63,1.83,1.33c-1.2,0.35-2.44,0.46-3.62,0.94c-1,0.41-2.14,1.05-2.75,1.99
						c-0.66,1.02-1.02,2.23-1.31,3.4c-0.29,1.18-0.49,2.46-0.08,3.64c0.15,0.44,0.39,0.86,0.76,1.14c0.36,0.28,0.87,0.4,1.3,0.24
						c-0.07,0.84,0.61,1.61,1.4,1.87c0.8,0.25,1.67,0.09,2.45-0.2c0.65-0.23,1.27-0.54,1.84-0.93c-0.26,0.5-0.3,1.1-0.1,1.63
						c0.43,1.15,1.86,1.47,2.93,1.67c1.29,0.23,2.6,0.32,3.9,0.27c-0.12,3,1.9,5.77,4.48,7.26c2.57,1.49,5.61,1.92,8.57,2.1
						c0.75-5.38,0.96-10.97-0.72-16.12c-0.34-1.03-0.79-1.97-1.33-2.9c-0.39-0.67-1-1.15-1.37-1.83c-0.19-0.36-0.32-0.75-0.56-1.07
						c-0.59-0.8-1.71-1.06-2.31-1.86c-0.27-0.36-0.41-0.8-0.66-1.17c-0.51-0.75-1.42-1.12-2.3-1.36
						C289.05,148.55,288.68,148.46,288.33,148.35z"/>
					<g>
						<path class="st20" d="M270.62,144.65c-1.54,1.71-2.73,3.76-3.59,5.88c-0.11,0.4-0.28,0.96-0.06,1.13
							c0.62,0.49,1.61,0.56,2.43,0.32c1.84-0.49,2.75-2.31,4.39-3.26c0.87-0.51,1.92-0.7,2.91-0.57c1.05,0.18,2.14,0.54,2.6,1.67
							c0.07,0.21-0.06,0.45-0.27,0.5c-2.11,0.55-4.21,0.77-5.74,2.31c-1.26,1.51-1.75,3.81-1.91,5.75c-0.05,1.01,0.46,2.8,1.66,2.48
							c0.23-0.09,0.5,0.03,0.58,0.26c0.11,2.71,3.56,1.62,5.04,0.56c0.35-0.26,0.83,0.18,0.61,0.55c-1.2,3.06,4.48,2.95,6.35,3.02
							c0.2-0.01,0.37,0.17,0.36,0.37c-0.1,6.49,7.2,9.1,12.69,9.35c-5.78,0.12-13.36-2.5-13.4-9.38c0,0,0.37,0.37,0.37,0.37
							c-2.59,0.09-8.69-0.02-7.12-4.12c0,0,0.61,0.55,0.61,0.55c-1.06,0.68-2.2,1.23-3.49,1.33c-1.38,0.14-3.01-0.88-2.9-2.47
							c0,0,0.62,0.47,0.62,0.47c-1.01,0.38-1.98-0.29-2.38-1.02c-0.8-1.43-0.55-3.09-0.19-4.56c0.39-1.46,0.79-2.95,1.87-4.11
							c1.61-1.65,4.11-1.99,6.13-2.47c0,0-0.27,0.5-0.27,0.5c-0.79-1.39-3.1-1.48-4.4-0.74c-1.58,0.88-2.67,2.75-4.59,3.17
							c-0.95,0.23-2.04,0.18-2.87-0.54c-0.57-0.83,0.29-2.05,0.65-2.81C268.26,147.53,269.24,145.92,270.62,144.65L270.62,144.65z"
							/>
					</g>
					<path class="st20" d="M286.16,149.03c-1.25-0.26-2.56-0.19-3.83-0.13c-0.66,0.03-1.31,0.12-1.96,0.22
						c-0.36,0.05-0.71,0.11-1.07,0.19c-0.27,0.06-0.56,0.09-0.8,0.24c-0.25,0.16-0.12,0.45,0.09,0.62
						c-0.03-0.01,0.01,0.02,0.04,0.04c0.01,0.01,0.01,0.01,0.02,0.02c0.02,0.01,0,0,0.02,0.02c0.05,0.03,0.1,0.05,0.16,0.06
						c0.01,0,0.02,0,0.02,0c0.01,0,0.02,0.01,0.03,0.01c-0.01-0.01-0.01-0.01-0.02-0.01c0.14,0.03,0.28,0.02,0.42,0.01
						c0.3-0.04,0.61-0.11,0.91-0.16c0.9-0.15,1.8-0.29,2.69-0.43c1.1-0.18,2.23-0.24,3.31-0.52
						C286.27,149.18,286.22,149.04,286.16,149.03z"/>
					<path class="st20" d="M288.41,155.09c-0.51-0.39-1.12-0.52-1.72-0.68c-0.7-0.19-1.43-0.37-2.15-0.45
						c-1.42-0.16-2.85,0.03-4.23,0.39c-1.37,0.37-2.7,0.94-3.87,1.76c-1.52,1.06-2.17,2.59-3,4.19c-0.07,0.14,0.16,0.48,0.29,0.32
						c1.04-1.28,1.95-2.66,3.34-3.58c1.19-0.78,2.51-1.38,3.88-1.74c1.26-0.33,2.57-0.43,3.87-0.45c0.63-0.01,1.24-0.01,1.86,0.08
						c0.57,0.08,1.15,0.37,1.73,0.32C288.48,155.24,288.44,155.11,288.41,155.09z"/>
					<path class="st20" d="M287.46,159c-0.31-0.24-0.79-0.33-1.17-0.4c-0.36-0.06-0.73-0.04-1.09-0.03
						c-0.8,0.03-1.58,0.19-2.35,0.42c-1.29,0.4-2.44,1.06-3.23,2.19c-0.05,0.07-0.1,0.16-0.07,0.25c0.01,0.02,0.02,0.04,0.04,0.05
						c0.03,0.01,0.05-0.01,0.07-0.02c0.36-0.21,0.73-0.42,1.09-0.62c0.31-0.18,0.62-0.3,0.94-0.45c0.64-0.3,1.3-0.55,1.98-0.72
						c0.66-0.16,1.35-0.26,2.03-0.29c0.37-0.02,0.73-0.03,1.1-0.08c0.23-0.03,0.47,0.03,0.66-0.12
						C287.54,159.14,287.5,159.03,287.46,159z"/>
				</g>
			</g>
			<g>
				<path class="st19" d="M154.44,273.24c-1.33,3.45,0.68,8.26,7.96,11.65c7.28,3.4,18.87,6.08,38.56,3.26
					c16.89-2.43,31.31-8.42,39.58-15.89c4.45-4.02,9.34-11.01,6.07-14.61L154.44,273.24z"/>
				<path class="st18" d="M246.62,257.65c-2.11,7.27-14.14,19.96-43.26,24.86c-28.59,4.81-50.74-3.32-50.52-12.98
					c0.13-14.78-8.62-25.07-11.59-41.22c-3.32-18.07,2.73-28.17,2.73-28.17c28.01-17.37,72.08-12.18,81.16-13.38
					c10.99,7.21,17.07,16.17,16.59,40.78C241.5,238.78,248.47,242.29,246.62,257.65z"/>
			</g>
			<g>
				<g>
					<g>
						<path class="st2" d="M238.11,231.62c-0.1-1.41-0.59-2.34-1.31-2.8l0.02-0.02l-5.25-3.36c0,0-0.02,0.02-0.02,0.02
							c-0.9-0.58-2.17-0.44-3.6,0.57c-9.14,6.44-20.35,10.59-34.32,13.59c-3.07,0.66-5.36,3.68-5.09,6.84l1.33,15.42
							c0.15,1.75,1.06,3.21,2.36,4.05c0,0,0,0,0,0l5.3,3.39c1.04,0.65,2.32,0.92,3.67,0.65c13.78-2.8,25.98-7.91,33.9-13.15
							c2.63-1.74,4.37-6,4.15-9.17L238.11,231.62z"/>
						<path class="st8" d="M188.55,246.46l1.33,15.42c0.15,1.75,1.06,3.21,2.36,4.05c0,0,0,0,0,0l5.3,3.39
							c0.14,0.09,0.3,0.15,0.45,0.23l-1.14-21.72l-7.48-5.01C188.76,243.93,188.44,245.18,188.55,246.46z"/>
						<path class="st2" d="M233.19,229.39c-9.14,6.44-20.35,10.59-34.32,13.59c-3.07,0.66-5.36,3.68-5.09,6.84l1.33,15.42
							c0.27,3.17,3.02,5.36,6.1,4.74c13.78-2.8,25.98-7.91,33.9-13.15c2.63-1.74,4.37-6,4.15-9.17l-1.15-16.04
							C237.88,228.45,235.77,227.57,233.19,229.39z"/>
						<path class="st22" d="M233.19,229.39c-9.14,6.44-20.35,10.59-34.32,13.59c-3.07,0.66-5.36,3.68-5.09,6.84l1.33,15.42
							c0.27,3.17,3.02,5.36,6.1,4.74c13.78-2.8,25.98-7.91,33.9-13.15c2.63-1.74,4.37-6,4.15-9.17l-1.15-16.04
							C237.88,228.45,235.77,227.57,233.19,229.39z"/>
					</g>
					<g>
						<path class="st2" d="M201.9,266.42c-0.03-0.48-0.05-0.97-0.1-1.45c-0.04-0.4-0.1-0.8-0.13-1.2c-0.14-1.84-0.29-3.67-0.47-5.5
							c-0.17-1.79-0.35-3.57-0.55-5.35c-0.11-0.99-0.23-1.97-0.36-2.95c-0.13-1.02-0.22-2.14-0.58-3.09
							c-0.18-0.47-1.19-0.54-1.24,0.06c-0.13,1.79,0.27,3.7,0.46,5.48c0.19,1.73,0.38,3.47,0.55,5.2c0.16,1.69,0.31,3.38,0.45,5.07
							c0.07,0.85,0.13,1.69,0.19,2.54c0.04,0.6-0.09,1.61,0.41,2.03c0.32,0.27,0.76,0.32,1.11,0.06c0.22-0.16,0.28-0.32,0.27-0.6
							c0-0.03,0-0.07-0.01-0.1C201.9,266.54,201.9,266.48,201.9,266.42z M206.86,265.02c-0.03-0.48-0.05-0.97-0.1-1.45
							c-0.04-0.4-0.1-0.8-0.13-1.2c-0.14-1.84-0.29-3.67-0.47-5.5c-0.17-1.79-0.35-3.57-0.55-5.35c-0.11-0.99-0.23-1.97-0.36-2.95
							c-0.13-1.02-0.22-2.14-0.58-3.1c-0.18-0.47-1.19-0.54-1.24,0.06c-0.13,1.79,0.27,3.7,0.46,5.48c0.19,1.73,0.38,3.47,0.55,5.2
							c0.16,1.69,0.31,3.38,0.45,5.07c0.07,0.85,0.13,1.69,0.19,2.54c0.04,0.6-0.09,1.61,0.41,2.03c0.32,0.27,0.76,0.32,1.11,0.06
							c0.22-0.16,0.28-0.32,0.27-0.6c0-0.03,0-0.07-0.01-0.1C206.87,265.14,206.87,265.08,206.86,265.02z M212.07,263.68
							c0-0.06-0.01-0.12-0.01-0.18c-0.03-0.48-0.05-0.97-0.1-1.45c-0.04-0.4-0.1-0.8-0.13-1.2c-0.14-1.84-0.29-3.67-0.47-5.5
							c-0.17-1.79-0.35-3.57-0.55-5.35c-0.11-0.99-0.23-1.97-0.36-2.95c-0.13-1.02-0.22-2.14-0.58-3.09
							c-0.18-0.47-1.2-0.54-1.24,0.06c-0.13,1.79,0.27,3.7,0.46,5.48c0.19,1.73,0.38,3.47,0.55,5.2c0.16,1.69,0.31,3.38,0.45,5.07
							c0.07,0.85,0.13,1.69,0.19,2.54c0.04,0.6-0.09,1.61,0.41,2.03c0.32,0.27,0.76,0.32,1.11,0.06c0.22-0.16,0.28-0.32,0.27-0.6
							C212.08,263.75,212.08,263.71,212.07,263.68z"/>
						<g class="st8">
							<path d="M211.09,262.82c-0.03-0.48-0.05-0.97-0.1-1.45c-0.04-0.4-0.1-0.8-0.13-1.2c-0.14-1.84-0.29-3.67-0.47-5.5
								c-0.17-1.79-0.35-3.57-0.55-5.35c-0.11-0.99-0.23-1.97-0.36-2.95c-0.12-0.9-0.21-1.88-0.48-2.76
								c-0.2,0.05-0.35,0.18-0.37,0.4c-0.13,1.79,0.27,3.7,0.46,5.48c0.19,1.73,0.38,3.47,0.55,5.2c0.16,1.69,0.31,3.38,0.45,5.07
								c0.07,0.85,0.13,1.69,0.19,2.54c0.03,0.44-0.03,1.08,0.13,1.57c0.15-0.02,0.29-0.06,0.42-0.16c0.22-0.16,0.28-0.32,0.27-0.6
								c0-0.03,0-0.07-0.01-0.1C211.1,262.94,211.1,262.88,211.09,262.82z"/>
							<path d="M200.93,265.75c-0.03-0.48-0.05-0.97-0.1-1.45c-0.04-0.4-0.1-0.8-0.13-1.2c-0.14-1.84-0.29-3.67-0.47-5.5
								c-0.17-1.79-0.35-3.57-0.55-5.35c-0.11-0.99-0.23-1.97-0.36-2.95c-0.12-0.9-0.21-1.88-0.48-2.76
								c-0.2,0.05-0.35,0.18-0.37,0.4c-0.13,1.79,0.27,3.7,0.46,5.48c0.19,1.73,0.38,3.47,0.55,5.2c0.16,1.69,0.31,3.38,0.45,5.07
								c0.07,0.85,0.13,1.69,0.19,2.54c0.03,0.44-0.03,1.08,0.13,1.57c0.15-0.02,0.29-0.06,0.42-0.16c0.22-0.16,0.28-0.32,0.27-0.6
								c0-0.03,0-0.07-0.01-0.1C200.94,265.87,200.93,265.81,200.93,265.75z"/>
							<path d="M205.9,264.35c-0.03-0.48-0.05-0.97-0.1-1.45c-0.04-0.4-0.1-0.8-0.13-1.2c-0.14-1.84-0.29-3.67-0.47-5.5
								c-0.17-1.79-0.35-3.57-0.55-5.35c-0.11-0.99-0.23-1.97-0.36-2.95c-0.12-0.9-0.21-1.88-0.48-2.76
								c-0.2,0.05-0.35,0.18-0.37,0.4c-0.13,1.79,0.27,3.7,0.46,5.48c0.19,1.73,0.38,3.47,0.55,5.2c0.16,1.69,0.31,3.38,0.45,5.07
								c0.07,0.85,0.13,1.69,0.19,2.54c0.03,0.44-0.03,1.08,0.13,1.57c0.15-0.02,0.29-0.06,0.42-0.16c0.22-0.16,0.28-0.32,0.27-0.6
								c0-0.03,0-0.07-0.01-0.1C205.91,264.47,205.9,264.41,205.9,264.35z"/>
						</g>
					</g>
					<g>
						<path class="st23" d="M222.58,241.24c0.56,0.29,0.93,0.95,0.98,1.92c0.1,1.94-1.12,4.36-2.73,5.42
							c-0.8,0.53-1.55,0.61-2.11,0.33c-0.34-0.18-1.63-0.84-1.97-1.02c-0.56-0.29-0.93-0.95-0.98-1.92
							c-0.1-1.94,1.12-4.36,2.73-5.42c0.8-0.53,1.55-0.61,2.11-0.33C220.95,240.4,222.24,241.06,222.58,241.24z"/>
						<path class="st19" d="M220.84,248.57c-0.8,0.53-1.55,0.61-2.11,0.33c-0.56-0.29-0.93-0.95-0.98-1.92
							c-0.1-1.94,1.12-4.36,2.73-5.42c0.8-0.53,1.55-0.61,2.11-0.33c0.56,0.29,0.93,0.95,0.98,1.92
							C223.67,245.09,222.45,247.52,220.84,248.57z"/>
					</g>
					<g>
						<path class="st17" d="M234.55,235.98c0.56,0.29,0.93,0.95,0.98,1.92c0.1,1.94-1.12,4.36-2.73,5.42
							c-0.8,0.53-1.55,0.61-2.11,0.33c-0.34-0.17-1.63-0.84-1.97-1.01c-0.56-0.29-0.93-0.95-0.98-1.92
							c-0.1-1.94,1.12-4.36,2.73-5.42c0.8-0.53,1.55-0.61,2.11-0.33C232.92,235.14,234.21,235.81,234.55,235.98z"/>
						<path class="st24" d="M232.81,243.32c-0.8,0.53-1.55,0.61-2.11,0.33c-0.56-0.29-0.93-0.95-0.98-1.92
							c-0.1-1.94,1.12-4.36,2.73-5.42c0.8-0.53,1.55-0.61,2.11-0.33c0.56,0.29,0.93,0.95,0.98,1.92
							C235.64,239.84,234.42,242.26,232.81,243.32z"/>
					</g>
					<g>
						<path class="st23" d="M223.22,253.39c0.56,0.29,0.93,0.95,0.98,1.92c0.1,1.94-1.12,4.36-2.73,5.42
							c-0.8,0.53-1.55,0.61-2.11,0.33c-0.34-0.17-1.63-0.84-1.97-1.02c-0.56-0.29-0.93-0.95-0.98-1.92
							c-0.1-1.94,1.12-4.36,2.73-5.42c0.8-0.53,1.55-0.61,2.11-0.33C221.59,252.55,222.88,253.22,223.22,253.39z"/>
						<path class="st19" d="M221.48,260.73c-0.8,0.53-1.55,0.61-2.11,0.33c-0.56-0.29-0.93-0.95-0.98-1.92
							c-0.1-1.94,1.12-4.36,2.73-5.42c0.8-0.53,1.55-0.61,2.11-0.33c0.56,0.29,0.93,0.95,0.98,1.92
							C224.3,257.24,223.08,259.67,221.48,260.73z"/>
					</g>
					<g>
						<path class="st23" d="M235.19,248.13c0.56,0.29,0.93,0.95,0.98,1.92c0.1,1.94-1.12,4.36-2.73,5.42
							c-0.8,0.53-1.55,0.61-2.11,0.33c-0.34-0.17-1.63-0.84-1.97-1.01c-0.56-0.29-0.93-0.95-0.98-1.92
							c-0.1-1.94,1.12-4.36,2.73-5.42c0.8-0.53,1.55-0.61,2.11-0.33C233.56,247.29,234.85,247.96,235.19,248.13z"/>
						<path class="st19" d="M233.45,255.47c-0.8,0.53-1.55,0.61-2.11,0.33c-0.56-0.29-0.93-0.95-0.98-1.92
							c-0.1-1.94,1.12-4.36,2.73-5.42c0.8-0.53,1.55-0.61,2.11-0.33c0.56,0.29,0.93,0.95,0.98,1.92
							C236.27,251.99,235.05,254.42,233.45,255.47z"/>
					</g>
				</g>
				<path class="st19" d="M189.04,252.25c-7.38,3.79-31.2,8.1-40.39-1.61c-1.76,2.68-0.81,6.14,1.98,9.01
					c2.79,2.87,9.19,5.85,18.31,5.47c15.18-0.64,22.58-4.22,22.58-4.22s2.47-1.46,1.61-5.51
					C192.27,251.32,189.04,252.25,189.04,252.25z"/>
			</g>
			<g>
				<path class="st17" d="M153.12,243.31c-4.67,1.92-12.47,5.74-17.6,12.77c-5.91,8.11-7.59,18.62-3.67,26.04
					c-8.07,9.39-17.13,9.2-22.37,8.5c-10.02-15.93-10.66-36.24-4.84-51.12c5.82-14.88,14.99-29.3,39.34-39.36
					C156.27,199.77,164.34,230.95,153.12,243.31z"/>
				<g>
					<path class="st19" d="M106.55,282.48c-0.11,0.2-0.22,0.4-0.32,0.61c-0.09,0.18-0.17,0.36-0.17,0.56c0,0.25,0.15,0.48,0.29,0.68
						c1.15,1.67,2.5,3.2,3.65,4.87c1.15,1.68,2.1,3.56,2.3,5.59c0.27,2.76,0,5.47,0.51,8.25c0.54,2.96,1.41,5.84,2.29,8.7
						c0.73,2.37,1.7,4.15,3.48,5.85c1.69,1.61,3.83,2.66,5.97,3.5c1.17,0.46,2.46,0.54,3.71,0.59c1.08,0.05,2.68,0.44,3.71,0.07
						c0.25-0.09,0.5-0.24,0.65-0.46c0.25-0.37,0.15-0.86-0.01-1.27c-0.41-1.04-1.18-1.9-2.1-2.55c-1.73-1.21-4.02-1.59-5.32-3.39
						c-0.52-0.71-0.8-1.67-1-2.52c-0.05-0.19,0.07-0.46,0.27-0.42c0.48,0.45,0.84,1.03,1.32,1.46c0.54,0.48,1.38,0.79,2.03,1.08
						c1.38,0.59,2.85,0.99,4.36,1.18c3.01,0.38,6.15-0.05,8.93-1.34c0.75-0.35,1.49-0.76,2.03-1.37c0.69-0.78,1.1-2.23,0.37-3.09
						c-0.34-0.4-0.87-0.62-1.39-0.75c0.51-0.34,0.77-0.98,0.71-1.57c-0.06-0.59-0.4-1.13-0.85-1.52c-0.45-0.38-0.99-0.58-1.57-0.71
						c0.18-0.62,0.02-1.29-0.33-1.82c-0.36-0.52-0.9-0.91-1.48-1.18c-0.49-0.22-1.02-0.38-1.43-0.71c-0.79-0.65-0.97-1.91-1.07-2.87
						c-0.12-1.19-0.01-2.39-0.02-3.59c-0.04-3.49-1.46-6.8-3.49-9.52c-1.79-2.41-5.19-7.17-6.98-9.58c-0.67-0.9-1.99-1.08-3.02-1.13
						c-3.12-0.15-6.4,0.89-9.2,2.21C110.43,277.73,108.13,279.64,106.55,282.48z"/>
					<path class="st20" d="M137.99,305.32c-0.51-0.03-1.01-0.11-1.52-0.17c-0.51-0.05-1.03-0.12-1.53-0.24
						c-0.65-0.15-1.3-0.33-1.87-0.69c-0.06-0.04-0.12-0.08-0.14-0.14c-0.06-0.12,0.03-0.27,0.1-0.39c0.16-0.24,0.98-1.63,0.62-1.81
						c-0.51,0.62-1.02,1.24-1.54,1.86c-0.22,0.26-0.41,0.53-0.68,0.74c-0.3,0.24-0.57,0.49-0.87,0.73
						c-0.06,0.05-0.13,0.09-0.19,0.14c-0.01-0.37-0.08-0.74-0.22-1.12c-0.37-0.99-1-1.87-1.81-2.57c-0.77-0.67-1.6-0.98-2.5-1.34
						c0.13-0.4,0.52-0.89,0.67-1.19c0.26-0.5,0.52-1,0.74-1.51c0.44-1.04,0.75-2.1,0.77-3.22c0.03-2.16-1.18-3.63-2.86-4.84
						c-0.21-0.15-0.3,0.07-0.23,0.25c0.59,1.4,1.51,2.76,1.48,4.33c-0.03,1.55-0.72,3.04-1.45,4.4c-0.26,0.5-0.83,1.21-0.89,1.78
						c-0.07,0.7,0.46,0.93,1.02,1.12c1.3,0.44,2.37,1.14,3.07,2.33c0.3,0.52,0.93,1.62,0.27,2.11c-0.52,0.39-1.55,0.3-2.18,0.35
						c-1.46,0.12-3.02,0.22-4.44-0.16c-1.52-0.41-2.55-1.42-3.55-2.54c-0.51-0.57-1.02-1.14-1.54-1.69
						c-0.53-0.57-1.03-1.27-1.68-1.71c-0.07-0.05-0.07,0.08-0.06,0.11c0.38,1.27,1.41,2.59,2.21,3.64c0.74,0.98,1.57,1.92,2.64,2.56
						c1.9,1.13,4.2,1.25,6.39,1.14c0.26-0.01,0.54-0.03,0.82-0.04c-0.61,0.34-1.23,0.66-1.79,1.08c-0.07,0.05-0.02,0.21,0.06,0.2
						c1.28-0.11,2.54-0.73,3.67-1.46c2.92,1.69,6.66,2.61,10,1.65c0.11-0.03,0.05-0.27-0.05-0.27c-1.81,0.02-3.63-0.03-5.39-0.45
						c-1.32-0.32-2.57-0.85-3.74-1.5c0.16-0.12,0.33-0.23,0.48-0.35c0.68-0.52,1.31-1.12,1.91-1.74c0.07,0.05,0.15,0.09,0.23,0.13
						c0.11,0.06,0.23,0.11,0.34,0.17c0.23,0.11,0.46,0.2,0.7,0.29c0.5,0.19,1.01,0.33,1.53,0.44c0.54,0.1,1.08,0.17,1.63,0.17
						c0.49,0,0.95-0.12,1.43-0.25C138.23,305.62,138.11,305.33,137.99,305.32z"/>
				</g>
				<path class="st2" d="M130.95,266.09c-0.55,2.95-1.65,11.41,0.9,16.03c-10.4-4.71-20.83,2.25-22.37,8.5
					c-4.65-4.85-7.82-12.85-8.83-25.31C111.74,258.17,124.59,260.02,130.95,266.09z"/>
			</g>
			<g id="Helmet_00000150801170610151223530000009447504922292626840_">
				<g>
					<g>
						<g>
							<path class="st19" d="M228.67,180.46c-14.33-23.56-72.1-17.55-80.08,9.04c-0.55,1.82-0.79,3.73-0.75,5.63
								c0.03,1.68,0.2,3.44,0.46,5.02c0.32,2,0.91,3.96,1.85,5.75c13.04,24.97,72.62,19.22,80.77-7.8c0.58-1.94,0.8-3.97,0.74-6
								c-0.04-1.33-0.16-2.77-0.36-4.16C230.91,185.29,230.05,182.73,228.67,180.46z"/>
						</g>
						<g>
							<path class="st20" d="M170.55,214.08c0.19,1.81-0.04,2.83-0.25,3.73c-0.16,0.69-0.3,1.31-0.18,2.11
								c0.17,0.04,0.34,0.09,0.51,0.13c-0.16-0.8-0.03-1.38,0.14-2.13c0.2-0.89,0.46-1.99,0.26-3.89c-0.22-2.07,0.05-3.81,2.08-5.56
								l-0.31-0.37C170.61,209.99,170.32,211.86,170.55,214.08z"/>
							<path class="st20" d="M191.65,213.93c-10.27,0.99-20.76-0.3-29.01-4.11l0,0c-8.04-3.71-12.8-9.24-13.4-15.56
								c-0.6-6.32,3.04-12.66,10.24-17.85c14.78-10.64,40.22-13.1,56.72-5.48c8.04,3.71,12.8,9.24,13.4,15.56
								c0.6,6.32-3.04,12.66-10.24,17.85C211.98,209.66,201.92,212.94,191.65,213.93z M187.25,167.3
								c-10.18,0.98-20.15,4.23-27.48,9.51c-7.05,5.08-10.62,11.26-10.04,17.4c0.58,6.14,5.24,11.53,13.11,15.16
								c16.36,7.56,41.59,5.12,56.24-5.43c7.05-5.08,10.62-11.26,10.04-17.4c-0.58-6.14-5.24-11.52-13.12-15.16
								C207.83,167.6,197.43,166.32,187.25,167.3z"/>
						</g>
					</g>
					<g>
						<path class="st18" d="M227.17,179.08l0.51,5.44c0.54,5.75-2.67,11.86-9.77,16.97c-14.19,10.23-38.54,12.58-54.39,5.26
							c-7.93-3.66-12.22-9.04-12.77-14.79l-0.51-5.44c0.54,5.75,4.84,11.14,12.77,14.8c15.85,7.32,40.2,4.97,54.39-5.26
							C224.5,190.94,227.72,184.83,227.17,179.08z"/>
						<path class="st25" d="M203.01,208.49c1.98-0.57,3.9-1.24,5.75-1.99l-0.51-5.44c-1.85,0.76-3.77,1.42-5.75,1.99L203.01,208.49z
							"/>
						<path class="st17" d="M226.1,185.85c-1.46,3.57-4.34,7.08-8.69,10.21c-0.34,0.24-0.69,0.48-1.04,0.71l0.51,5.44
							c0.35-0.23,0.7-0.48,1.04-0.72c4.35-3.13,7.23-6.64,8.69-10.21L226.1,185.85z"/>
						<path class="st17" d="M191.52,205.18c-10.06,1.08-20.4-0.13-28.51-3.87c-7.93-3.66-12.22-9.05-12.77-14.8l0.51,5.44
							c0.54,5.75,4.84,11.13,12.77,14.79c8.11,3.75,18.45,4.96,28.51,3.88L191.52,205.18z"/>
						<path class="st24" d="M164.26,207.07c5.11,2.23,11.04,3.49,17.21,3.83l-0.51-5.44c-6.17-0.34-12.1-1.6-17.21-3.83
							L164.26,207.07z"/>
					</g>
					<g>
						<path class="st20" d="M227.74,176.99c-0.55-5.86-4.94-11.35-13.02-15.09c-16.16-7.46-40.99-5.07-55.46,5.36
							c-7.24,5.21-10.51,11.44-9.96,17.31c0.03,0.35,0.17,1.76,0.2,2.11c0.55,5.86,4.94,11.35,13.02,15.09
							c16.16,7.46,40.99,5.07,55.46-5.36c7.24-5.21,10.51-11.44,9.96-17.31C227.91,178.75,227.77,177.34,227.74,176.99z"/>
						<path class="st19" d="M162.32,199.65c16.16,7.46,40.99,5.07,55.46-5.36c7.24-5.21,10.51-11.44,9.96-17.31
							c-0.55-5.86-4.94-11.35-13.02-15.09c-16.16-7.46-40.99-5.07-55.46,5.36c-7.24,5.21-10.51,11.44-9.96,17.31
							C149.86,190.43,154.24,195.92,162.32,199.65z"/>
					</g>
					<g>
						<path class="st20" d="M177.24,206.49c-3.26-0.28-6.39-0.95-9.2-2.02c-0.31-0.12-0.57-0.1-0.75,0.03
							c-0.14,0.1-0.68,0.49-0.82,0.6c-0.19,0.13-0.28,0.38-0.25,0.73l0,0.04c0.06,0.67,0.61,1.44,1.24,1.68
							c2.81,1.08,5.95,1.75,9.2,2.03c0.26,0.02,0.49-0.04,0.68-0.17c0.15-0.1,0.69-0.5,0.83-0.6c0.28-0.2,0.44-0.55,0.41-0.95
							l0-0.04C178.5,207.13,177.91,206.55,177.24,206.49z"/>
						<path class="st19" d="M167.45,207.54c2.81,1.08,5.95,1.75,9.2,2.03c0.67,0.06,1.16-0.46,1.09-1.14l0-0.04
							c-0.06-0.67-0.66-1.25-1.32-1.31c-3.26-0.28-6.39-0.95-9.2-2.02c-0.63-0.24-1.07,0.09-1.01,0.76l0,0.04
							C166.28,206.54,166.83,207.3,167.45,207.54z"/>
					</g>
				</g>
				<g>
					<g>
						<path class="st23" d="M224.06,171.27C224.06,171.28,224.06,171.28,224.06,171.27c0.51,5.41-2.51,11.14-9.16,15.94
							c-13.32,9.6-36.19,11.81-51.06,4.93c-7.44-3.44-11.48-8.5-11.99-13.89s2.5-11.13,9.17-15.93c13.32-9.6,36.19-11.81,51.06-4.93
							C219.52,160.82,223.55,165.88,224.06,171.27z"/>
						<path class="st19" d="M224.06,171.27C224.06,171.28,224.06,171.28,224.06,171.27c0.51,5.41-2.51,11.14-9.16,15.94
							c-13.32,9.6-36.19,11.81-51.06,4.93c-7.44-3.44-11.48-8.5-11.99-13.89s2.5-11.13,9.17-15.93c13.32-9.6,36.19-11.81,51.06-4.93
							C219.52,160.82,223.55,165.88,224.06,171.27z"/>
					</g>
					<ellipse class="st19" cx="186.41" cy="155.43" rx="42.94" ry="43.43"/>
					<path class="st18" d="M225.66,173.13c-0.47,0.98-3.09,5.57-12.28,9.8c-0.37,0.17-0.74,0.33-1.12,0.49
						c-5.58,2.33-13.11,3.49-20.51,3.26c-10.37-0.32-19.99-5.59-26.16-14.04l0,0c0.31-1.13,0.42-2.48,0.27-4.02
						c-0.32-3.36-1.77-6.91-3.8-9.82c1.79-3.94,3.83-16.85,26-30.48c10.74-6.6,25.45-5.25,29.51-2.85
						c-9.24-9.9-22.93-15.35-37.45-13.31c-22.37,3.14-38.72,23.58-37.12,46.36c0.63,8.96,3.87,17.07,8.89,23.64
						c0.22,0.29,0.36,0.64,0.4,1.01l0,0c0.51,5.4,4.55,10.45,11.99,13.89c14.88,6.87,37.74,4.66,51.06-4.93
						c6.66-4.8,9.67-10.54,9.16-15.94v0c-0.04-0.37,0.04-0.74,0.2-1.07C225.05,174.47,225.37,173.81,225.66,173.13z"/>
					<g>
						<path class="st17" d="M223.24,176.36c-1.28,3.57-4.07,7.09-8.4,10.22c-11.63,8.37-30.52,11.12-45.03,7.12
							c-2.12-0.58-4.14-1.3-6.04-2.18c-2.87-1.33-5.24-2.9-7.09-4.64c-2.04-1.45-4.02-4.02-4.93-4.93c0,0,0.59,2.17,0.7,2.54
							l0.18,0.58c0.03,0.09,0.06,0.18,0.08,0.27c0.53,1.93,1.54,3.78,3,5.52c2,2.37,4.87,4.49,8.59,6.21
							c14.88,6.87,37.74,4.66,51.06-4.93c6.66-4.8,9.67-10.54,9.16-15.93c-0.03-0.37,0.03-0.74,0.2-1.06
							c0.31-0.63,0.61-1.26,0.89-1.9C225.35,173.75,224.67,174.89,223.24,176.36z"/>
					</g>
					<path class="st20" d="M217.58,125.48c4.87,6.16-1.2,18.01-7.85,22.65c3.56,1.61,5.87,7.67,4.52,11.71
						c7.03,2.2,12.79,8.03,11.42,13.3l0,0c2.91-6.63,4.22-14.09,3.49-21.83C228.2,141.24,223.95,132.3,217.58,125.48z"/>
					<g>
						<g>
							<path class="st17" d="M160.08,177.22c-0.77,0.07-1.62-0.09-2.5-0.5c-3.93-1.82-7.57-8-8.12-13.78
								c-0.32-3.37,0.45-5.99,2.11-7.18c1.15-0.83,2.61-0.88,4.21-0.14c3.93,1.82,7.57,8,8.12,13.78c0.32,3.37-0.45,5.99-2.11,7.18
								C161.27,176.94,160.69,177.16,160.08,177.22z M153.31,155.51c-0.55,0.05-1.06,0.24-1.52,0.57c-1.52,1.1-2.25,3.65-1.95,6.82
								c0.53,5.66,4.07,11.69,7.89,13.46c1.46,0.68,2.79,0.64,3.82-0.1c1.52-1.1,2.25-3.65,1.95-6.82
								c-0.53-5.66-4.07-11.69-7.89-13.46C154.79,155.6,154.01,155.44,153.31,155.51z"/>
						</g>
						<path class="st17" d="M205.34,116.3c-8.13-1.22-22.58-0.13-37.74,16.64l-6.35,1.02c0,0-7.95,11.4-8.74,21.52
							c2.22-0.89,6.79,1.27,9.8,8.42c3.02,7.15,0.39,11.39,0.39,11.39l2.79,3.21c5.96,6.86,14.35,11.11,23.36,11.7
							c6.74,0.44,13.66-0.21,18.79-1.72c2.12-0.62,4.23-1.41,6.22-2.42c5.74-2.89,8.94-5.85,10.7-8.05
							c0.03-0.61,0.03-1.22-0.03-1.83v0c0-0.04,0-0.08,0-0.12c-1.95,2.22-5.51,5.57-11.03,8.31c-1.78,0.88-3.79,1.59-5.89,2.16
							c-4.73,1.29-10.95,1.89-17.15,1.6c-9.92-0.47-19.13-5.38-25.23-13.3l-0.76-0.98c0,0,0.83-3.65-0.19-7.83
							c-1.02-4.18-3.85-7.64-3.85-7.64s3.48-18.02,25.47-30.71c13.05-7.53,23.21-6.59,29.87-4.02
							C212.68,120.7,209.16,118.22,205.34,116.3z"/>
						<path class="st8" d="M159.31,157.72c4.11-12.27,12.1-22.25,24.88-30.12c10.69-6.58,20.63-8.08,30.09-5.3
							c-2.3-2-4.81-3.76-7.49-5.24c-0.04-0.01-12.02-1.99-23.66,4.51c-11.66,6.51-15.04,12.44-15.04,12.44l-6.74,0.97
							c0,0-7.26,11.81-7.92,19.69c0.72-0.09,2.19,0.35,2.19,0.35l0.26-0.76c0.69,0.2,1.33,0.52,1.91,0.95l-0.33,0.95
							C157.46,156.17,158.43,156.82,159.31,157.72z"/>
					</g>
					<g>
						<g>
							<path class="st2" d="M148,157.8c-1.46,0.65-2.5,2.29-2.76,4.74c-0.52,4.91,2.25,11.26,6.19,14.17
								c1.97,1.46,3.86,1.78,5.33,1.13c0.89-0.4,2.51-1.12,3.4-1.51c1.46-0.65,2.5-2.29,2.76-4.74c0.52-4.91-2.25-11.26-6.19-14.17
								c-1.97-1.46-3.86-1.78-5.33-1.13C150.51,156.69,148.88,157.41,148,157.8z"/>
							<path class="st8" d="M148,157.8c-1.46,0.65-2.5,2.29-2.76,4.74c-0.52,4.91,2.25,11.26,6.19,14.17
								c1.97,1.46,3.86,1.78,5.33,1.13c0.89-0.4,2.51-1.12,3.4-1.51c1.46-0.65,2.5-2.29,2.76-4.74c0.52-4.91-2.25-11.26-6.19-14.17
								c-1.97-1.46-3.86-1.78-5.33-1.13C150.51,156.69,148.88,157.41,148,157.8z"/>
							<path class="st2" d="M151.42,176.72c1.97,1.46,3.86,1.78,5.33,1.13c1.46-0.65,2.5-2.29,2.76-4.74
								c0.52-4.91-2.25-11.26-6.19-14.17c-1.97-1.46-3.86-1.78-5.33-1.13c-1.46,0.65-2.5,2.29-2.76,4.74
								C144.71,167.46,147.48,173.8,151.42,176.72z"/>
							<path class="st2" d="M151.42,176.72c1.97,1.46,3.86,1.78,5.33,1.13c1.46-0.65,2.5-2.29,2.76-4.74
								c0.52-4.91-2.25-11.26-6.19-14.17c-1.97-1.46-3.86-1.78-5.33-1.13c-1.46,0.65-2.5,2.29-2.76,4.74
								C144.71,167.46,147.48,173.8,151.42,176.72z"/>
						</g>
						<g>
							<g>
								<path class="st17" d="M156.61,171.15c0.25-3.04-1.57-6.91-4.05-8.64c-1.24-0.87-2.42-1.04-3.31-0.6
									c-0.27,0.13-2.1,1-2.37,1.13c-0.9,0.43-1.51,1.45-1.64,2.97c-0.25,3.04,1.57,6.91,4.05,8.64c1.24,0.87,2.42,1.04,3.31,0.61
									c0.27-0.13,2.11-1,2.38-1.14C155.88,173.69,156.49,172.67,156.61,171.15z"/>
							</g>
							<path class="st25" d="M150.18,163.64c2.48,1.73,4.29,5.6,4.05,8.64c-0.25,3.04-2.45,4.1-4.93,2.36
								c-2.48-1.73-4.29-5.6-4.05-8.64C145.49,162.97,147.7,161.91,150.18,163.64z"/>
							<path class="st23" d="M149.89,164.98c1.92,1.35,3.33,4.35,3.14,6.71c-0.19,2.36-1.9,3.18-3.83,1.83
								c-1.92-1.35-3.33-4.35-3.14-6.71C146.25,164.45,147.97,163.63,149.89,164.98z"/>
							<g>
								<path class="st19" d="M151.71,167.32l-2.34,2.01l-2.22-4.74c0.69-0.33,1.6-0.2,2.56,0.47
									C150.49,165.6,151.18,166.4,151.71,167.32z"/>
								<path class="st20" d="M152.86,171.77c-0.1,1.18-0.57,1.97-1.27,2.3l-2.22-4.74l2.34-2.01
									C152.51,168.7,152.97,170.35,152.86,171.77z"/>
								<path class="st19" d="M151.6,174.07c-0.69,0.33-1.6,0.2-2.56-0.47c-0.77-0.54-1.46-1.34-1.99-2.27l2.34-2.01L151.6,174.07z"
									/>
								<path class="st20" d="M149.38,169.33l-2.34,2.01c-0.8-1.38-1.26-3.03-1.15-4.44c0.1-1.18,0.57-1.97,1.27-2.3L149.38,169.33z
									"/>
							</g>
						</g>
					</g>
				</g>
				<path class="st23" d="M163.05,156.2c-0.05,0.14-0.1,0.28-0.14,0.4c-0.32,0.9-0.58,1.65-0.84,2.21c2.03,2.9,3.48,6.45,3.8,9.81
					c0.15,1.54,0.04,2.89-0.27,4.02l1,1.3l0.95,1.14c0.6-1.35,1.37-3.23,0.97-7.4C168.13,163.51,165.98,158.43,163.05,156.2z"/>
				<path class="st26" d="M229.15,151.31c0.29,3.12,0.26,6.19-0.08,9.18c-0.34,2.99-0.98,5.91-1.9,8.7
					c6.85-25.72-9.46-42.48-9.46-42.48c-7.62-3.76-23.08-1.37-32.01,3.12c0.77-0.5,1.56-1.01,2.38-1.51
					c10.73-6.6,25.45-5.25,29.51-2.85C223.95,132.3,228.2,141.24,229.15,151.31z"/>
				<path class="st27" d="M223.23,140.58c-1.35-4.27-3.55-7.88-7.53-10.02c-3.57-1.92-7.79-2.55-11.78-2.02
					c-1.16,0.16-2.37,0.43-3.24,1.22c-1.28,1.17-1.46,3.23-0.88,4.87c0.59,1.65,1.8,2.98,3.01,4.23
					c4.91,5.09,10.44,9.89,13.28,16.39c1.31,3,1.99,6.23,2.97,9.36c0.53,1.67,1.95,3.31,3.88,2.5c2.18-0.91,2.29-3.72,2.48-5.73
					c0.24-2.46,0.34-4.93,0.24-7.4C225.5,149.43,224.6,144.92,223.23,140.58z M223.46,170.84c-0.03-0.61-0.3-1.2-0.79-1.53
					c-0.43-0.29-0.98-0.35-1.49-0.26c-1.55,0.26-2.63,1.56-2.5,3.17c0.03,0.36,0.21,0.73,0.46,0.99c0.61,0.64,1.6,0.89,2.44,0.6
					c0.93-0.32,1.68-1.5,1.85-2.44C223.46,171.19,223.47,171.01,223.46,170.84z"/>
				<path class="st27" d="M180.3,142.55c-3.32-0.95-7.84,5.15-9.27,8.95c-1.06,2.82-1.13,6.17-0.7,9.06
					c0.15,1.01,0.49,2.17,1.02,3.2c0.96,1.85,3.09,3.47,5.16,2.1c0.92-0.61,1.5-1.61,2-2.6C180.21,159.9,186.66,144.37,180.3,142.55
					z M177.35,169.03c-1.75-0.44-3.52,0.98-3.53,2.62c-0.01,0.89,0.72,1.76,1.35,1.97c0.99,0.32,2.39-0.1,3.01-0.92
					C179.13,171.43,179.12,169.48,177.35,169.03z"/>
			</g>
		</g>
	</g>
</g>
</svg>
