<?xml version="1.0" encoding="utf-8"?>
<!-- Generator: Adobe Illustrator 26.1.0, SVG Export Plug-In . SVG Version: 6.00 Build 0)  -->
<svg version="1.1" id="Layer_1" xmlns="http://www.w3.org/2000/svg" xmlns:xlink="http://www.w3.org/1999/xlink" x="0px" y="0px"
	 viewBox="0 0 371.5 392" style="enable-background:new 0 0 371.5 392;" xml:space="preserve">
<style type="text/css">
	.st0{opacity:0.75;fill:#263238;enable-background:new    ;}
	.st1{opacity:0.8;}
	.st2{fill:#BA68C8;}
	.st3{opacity:0.7;fill:#FFFFFF;enable-background:new    ;}
	.st4{opacity:0.8;fill:#FFFFFF;enable-background:new    ;}
	.st5{display:none;}
	.st6{display:inline;}
	.st7{opacity:0.75;fill:#FFFFFF;enable-background:new    ;}
	.st8{opacity:0.2;}
	.st9{opacity:0.3;fill:#BA68C8;enable-background:new    ;}
	.st10{opacity:0.2;fill:#BA68C8;enable-background:new    ;}
	.st11{opacity:0.4;fill:#FFFFFF;enable-background:new    ;}
	.st12{opacity:0.6;}
	.st13{opacity:0.7;}
	.st14{opacity:0.1;}
	.st15{opacity:0.4;}
	.st16{opacity:0.5;}
	.st17{fill:#E0E0E0;}
	.st18{opacity:0.1;enable-background:new    ;}
	.st19{opacity:0.2;enable-background:new    ;}
	.st20{fill:#F0F0F0;}
	.st21{fill:#455A64;}
	.st22{fill:#37474F;}
	.st23{opacity:0.5;fill:#FFFFFF;enable-background:new    ;}
	.st24{opacity:0.3;fill:#FFFFFF;enable-background:new    ;}
	.st25{fill:#263238;}
	.st26{fill:#F5F5F5;}
	.st27{fill:#FAFAFA;}
	.st28{opacity:0.3;fill:#FAFAFA;enable-background:new    ;}
	.st29{opacity:0.2;fill:#FAFAFA;enable-background:new    ;}
</style>
<g id="Background_00000078736267566981498740000003540967147850458005_">
	<path id="Background" class="st0" d="M57.8,98.1C68.9,71,87.1,46.8,110.7,29c22.4-16.8,54.3-21.7,82.4-17.5
		c28,4.2,62.8,20.9,80.6,43.7c16.8,21.6,26.6,40.4,44.7,61.2c16.2,18.6,27.7,32.4,37.8,55.7c2.7,6.4,4.4,13.1,5.2,20
		c1.7,16.5-2.1,33.6-10.1,48.2c-11.4,20.6-31.7,40-52.9,49.8c-48.2,22.3-92.7,28.1-159.3,2.9c-33.9-12.8-65.1-36.4-80.4-69.7
		C40.2,183,41.5,137.5,57.8,98.1z M333.7,83.2c-2.4,3-6.3,5.1-10,4.3c-3.5-0.7-6.1-3.5-8.5-6.2c-8.7-10-16.8-20.4-24.3-31.3
		c-6.6-9.5-15.8-20.1-7.2-31.1c13.4-17.1,36.3,0.9,45.2,14c7.8,11.4,11.1,25.9,8.9,39.6C337.1,76.3,336,80.2,333.7,83.2z"/>
</g>
<g id="Stars">
	<g id="Stars_00000176729652218174900280000013382111409598376106_">
		<g id="XMLID_3582_">
			<g>
				<g id="XMLID_00000102510675802420047770000014299042069812488122_" class="st1">
					<path class="st2" d="M23.4,268.9c5.9,0,10.7-5,10.7-11s-4.8-11-10.7-11s-10.7,5-10.7,11S17.5,268.9,23.4,268.9z M23.4,247.4
						c5.6,0,10.1,4.7,10.1,10.3c0,5.7-4.5,10.3-10.1,10.3s-10.1-4.7-10.1-10.3S17.8,247.4,23.4,247.4z"/>
				</g>
				<path id="XMLID_00000098942989990663937430000007826681234177175442_" class="st2" d="M20.3,257.8c0,1.8,1.3,3.1,3.1,3.1
					c1.7,0,3.1-1.4,3.1-3.1c0-1.8-1.3-3.1-3.1-3.1C21.8,254.6,20.3,256.1,20.3,257.8z"/>
				<path id="XMLID_00000094614316631662351580000011262631375242283144_" class="st3" d="M20.3,257.8c0,1.8,1.3,3.1,3.1,3.1
					c1.7,0,3.1-1.4,3.1-3.1c0-1.8-1.3-3.1-3.1-3.1C21.8,254.6,20.3,256.1,20.3,257.8z"/>
			</g>
		</g>
		<g id="XMLID_15357_">
			<g id="XMLID_15389_" class="st1">
				<path class="st2" d="M58.7,26.2c4.2,0,7.6-3.5,7.6-7.8s-3.4-7.8-7.6-7.8s-7.6,3.5-7.6,7.8C51.2,22.7,54.6,26.2,58.7,26.2z
					 M58.7,11.3c3.8,0,6.9,3.2,6.9,7.1s-3.1,7.1-6.9,7.1s-6.9-3.2-6.9-7.1S55,11.3,58.7,11.3z"/>
			</g>
			<path id="XMLID_15358_" class="st2" d="M56.6,18.5c0,1.2,1,2.1,2.1,2.1c1.2,0,2.1-1,2.1-2.1c0-1.2-1-2.1-2.1-2.1
				C57.6,16.3,56.6,17.3,56.6,18.5z"/>
			<path id="XMLID_00000171695773426246005100000005727367649953849534_" class="st3" d="M56.6,18.5c0,1.2,1,2.1,2.1,2.1
				c1.2,0,2.1-1,2.1-2.1c0-1.2-1-2.1-2.1-2.1C57.6,16.3,56.6,17.3,56.6,18.5z"/>
		</g>
		<g id="XMLID_1661_">
			<g id="XMLID_4504_" class="st1">
				<path class="st2" d="M330.2,332.4c4.4,0,8.1-3.7,8.1-8.3c0-4.6-3.6-8.3-8.1-8.3s-8.1,3.7-8.1,8.3S325.8,332.4,330.2,332.4z
					 M330.2,316.6c4,0,7.4,3.4,7.4,7.6s-3.3,7.6-7.4,7.6c-4,0-7.4-3.4-7.4-7.6C322.8,319.9,326.1,316.6,330.2,316.6z"/>
			</g>
			<path id="XMLID_4379_" class="st2" d="M327.9,324.1c0,1.3,1.1,2.3,2.3,2.3s2.3-1.1,2.3-2.3c0-1.3-1.1-2.3-2.3-2.3
				C328.9,321.8,327.9,322.8,327.9,324.1z"/>
			<path id="XMLID_00000098178512523192721140000006984570232578912652_" class="st3" d="M327.9,324.1c0,1.3,1.1,2.3,2.3,2.3
				s2.3-1.1,2.3-2.3c0-1.3-1.1-2.3-2.3-2.3C328.9,321.8,327.9,322.8,327.9,324.1z"/>
		</g>
		<g>
			<g>
				<g>
					<path id="XMLID_00000095306319762751287040000007768985675832191666_" class="st2" d="M11.2,79.3c0,1.3,1,2.2,2.2,2.2
						s2.2-1,2.2-2.2c0-1.3-1-2.2-2.2-2.2S11.2,78,11.2,79.3z"/>
					<path id="XMLID_00000023973935222584576570000003110340480407654807_" class="st3" d="M11.2,79.3c0,1.3,1,2.2,2.2,2.2
						s2.2-1,2.2-2.2c0-1.3-1-2.2-2.2-2.2S11.2,78,11.2,79.3z"/>
				</g>
				<g>
					<path id="XMLID_00000119836890576304783320000010309447270179787408_" class="st2" d="M17.8,85.5c0,0.8,0.6,1.4,1.3,1.4
						s1.3-0.6,1.3-1.4c0-0.8-0.6-1.4-1.3-1.4C18.4,84.2,17.8,84.7,17.8,85.5z"/>
					<path id="XMLID_00000047042363854494053150000003208862422249302189_" class="st3" d="M17.8,85.5c0,0.8,0.6,1.4,1.3,1.4
						s1.3-0.6,1.3-1.4c0-0.8-0.6-1.4-1.3-1.4C18.4,84.2,17.8,84.7,17.8,85.5z"/>
				</g>
				<g>
					<path id="XMLID_00000155856121026375593820000007703484898371285427_" class="st2" d="M21.5,76.9c0,0.6,0.5,1.1,1.1,1.1
						c0.6,0,1.1-0.5,1.1-1.1s-0.5-1.1-1.1-1.1C22,75.9,21.5,76.4,21.5,76.9z"/>
					<path id="XMLID_00000004524451807125685180000009764728891022884526_" class="st4" d="M21.5,76.9c0,0.6,0.5,1.1,1.1,1.1
						c0.6,0,1.1-0.5,1.1-1.1s-0.5-1.1-1.1-1.1C22,75.9,21.5,76.4,21.5,76.9z"/>
				</g>
			</g>
			<g>
				<g>
					<path id="XMLID_00000119806295701304566120000013632646708475166101_" class="st2" d="M349.3,118.2c0,1.3,1,2.2,2.2,2.2
						s2.2-1,2.2-2.2c0-1.3-1-2.2-2.2-2.2C350.2,115.8,349.3,116.9,349.3,118.2z"/>
					<path id="XMLID_00000098220487527860436250000000302795090827091845_" class="st3" d="M349.3,118.2c0,1.3,1,2.2,2.2,2.2
						s2.2-1,2.2-2.2c0-1.3-1-2.2-2.2-2.2C350.2,115.8,349.3,116.9,349.3,118.2z"/>
				</g>
				<g>
					<path id="XMLID_00000041259086046380175380000007438828814668452749_" class="st2" d="M355.9,124.4c0,0.8,0.6,1.4,1.3,1.4
						c0.8,0,1.3-0.6,1.3-1.4c0-0.8-0.6-1.4-1.3-1.4C356.4,123,355.9,123.6,355.9,124.4z"/>
					<path id="XMLID_00000047031929150160743480000008024667988817190794_" class="st3" d="M355.9,124.4c0,0.8,0.6,1.4,1.3,1.4
						c0.8,0,1.3-0.6,1.3-1.4c0-0.8-0.6-1.4-1.3-1.4C356.4,123,355.9,123.6,355.9,124.4z"/>
				</g>
				<g>
					<path id="XMLID_00000046338515912661391480000006481582427690281623_" class="st2" d="M359.6,115.8c0,0.6,0.5,1.1,1.1,1.1
						c0.6,0,1.1-0.5,1.1-1.1s-0.5-1.1-1.1-1.1C360.1,114.7,359.6,115.2,359.6,115.8z"/>
					<path id="XMLID_00000044180162072316431640000016777344378124237239_" class="st4" d="M359.6,115.8c0,0.6,0.5,1.1,1.1,1.1
						c0.6,0,1.1-0.5,1.1-1.1s-0.5-1.1-1.1-1.1C360.1,114.7,359.6,115.2,359.6,115.8z"/>
				</g>
			</g>
			<g>
				<g>
					<path id="XMLID_00000150790252068847012350000007429135625792832141_" class="st2" d="M151.6,350.1c0,1.3,1,2.2,2.2,2.2
						c1.2,0,2.2-1,2.2-2.2s-1-2.2-2.2-2.2C152.6,347.9,151.6,348.8,151.6,350.1z"/>
					<path id="XMLID_00000047769685620291790560000010785455325488561536_" class="st3" d="M151.6,350.1c0,1.3,1,2.2,2.2,2.2
						c1.2,0,2.2-1,2.2-2.2s-1-2.2-2.2-2.2C152.6,347.9,151.6,348.8,151.6,350.1z"/>
				</g>
				<g>
					<path id="XMLID_00000018218707522278659970000008291326484533947792_" class="st2" d="M158.3,356.3c0,0.8,0.6,1.4,1.3,1.4
						s1.3-0.6,1.3-1.4c0-0.8-0.6-1.4-1.3-1.4S158.3,355.6,158.3,356.3z"/>
					<path id="XMLID_00000111186730558286273240000008410584823071821213_" class="st3" d="M158.3,356.3c0,0.8,0.6,1.4,1.3,1.4
						s1.3-0.6,1.3-1.4c0-0.8-0.6-1.4-1.3-1.4S158.3,355.6,158.3,356.3z"/>
				</g>
				<g>
					<path id="XMLID_00000124144449242781755610000008040885320703037085_" class="st2" d="M162,347.9c0,0.6,0.5,1.1,1.1,1.1
						s1.1-0.5,1.1-1.1s-0.5-1.1-1.1-1.1C162.5,346.7,162,347.2,162,347.9z"/>
					<path id="XMLID_00000159459658007944111210000006470443705524408705_" class="st4" d="M162,347.9c0,0.6,0.5,1.1,1.1,1.1
						s1.1-0.5,1.1-1.1s-0.5-1.1-1.1-1.1C162.5,346.7,162,347.2,162,347.9z"/>
				</g>
			</g>
			<g>
				<g>
					<path id="XMLID_00000097484231683676504920000015494814956690874028_" class="st2" d="M20.7,177.5c0,0.9-0.8,1.7-1.7,1.6
						c-0.9,0-1.5-0.8-1.5-1.8c0-0.9,0.8-1.7,1.7-1.6C20,175.8,20.7,176.6,20.7,177.5z"/>
					<path id="XMLID_00000016041571615987050830000008726899822692133041_" class="st3" d="M20.7,177.5c0,0.9-0.8,1.7-1.7,1.6
						c-0.9,0-1.5-0.8-1.5-1.8c0-0.9,0.8-1.7,1.7-1.6C20,175.8,20.7,176.6,20.7,177.5z"/>
				</g>
				<g>
					<path id="XMLID_00000127761795772228795290000017114163470140770733_" class="st2" d="M24,184.5c-0.4-0.3-0.9-0.3-1.2,0
						c-0.3,0.4-0.3,0.9,0,1.3c0.4,0.3,0.9,0.3,1.2,0C24.3,185.5,24.3,184.9,24,184.5z"/>
					<path id="XMLID_00000152949911707899092760000004003894690788785836_" class="st4" d="M24,184.5c-0.4-0.3-0.9-0.3-1.2,0
						c-0.3,0.4-0.3,0.9,0,1.3c0.4,0.3,0.9,0.3,1.2,0C24.3,185.5,24.3,184.9,24,184.5z"/>
				</g>
			</g>
			<g>
				<g>
					<path id="XMLID_00000127728727669466871960000015920349110528521661_" class="st2" d="M244.1,8.3c0.4,0.8,0.1,1.9-0.7,2.2
						c-0.8,0.4-1.7,0.1-2.2-0.7c-0.4-0.8-0.1-1.9,0.7-2.2C242.6,7.1,243.7,7.4,244.1,8.3z"/>
					<path id="XMLID_00000104705850102299015290000004560014664986869393_" class="st3" d="M244.1,8.3c0.4,0.8,0.1,1.9-0.7,2.2
						c-0.8,0.4-1.7,0.1-2.2-0.7c-0.4-0.8-0.1-1.9,0.7-2.2C242.6,7.1,243.7,7.4,244.1,8.3z"/>
				</g>
				<g>
					<path id="XMLID_00000067235505782873833430000013215397837617390984_" class="st2" d="M250.4,12.5c-0.5-0.1-1,0.2-1.1,0.7
						s0.2,1,0.7,1.1c0.5,0.1,1-0.2,1.1-0.7C251.2,13.1,250.9,12.7,250.4,12.5z"/>
					<path id="XMLID_00000031192940892862578750000002915957528603725980_" class="st4" d="M250.4,12.5c-0.5-0.1-1,0.2-1.1,0.7
						s0.2,1,0.7,1.1c0.5,0.1,1-0.2,1.1-0.7C251.2,13.1,250.9,12.7,250.4,12.5z"/>
				</g>
			</g>
			<g>
				<g>
					<path id="XMLID_00000123422735440748712140000008478251235189297073_" class="st2" d="M50,320c-0.9,0-1.6-0.8-1.6-1.7
						c0-0.9,0.8-1.7,1.6-1.7c0.9,0,1.6,0.8,1.6,1.7C51.5,319.2,50.8,320,50,320z"/>
					<path id="XMLID_00000111914022673981707780000008009369526324205243_" class="st3" d="M50,320c-0.9,0-1.6-0.8-1.6-1.7
						c0-0.9,0.8-1.7,1.6-1.7c0.9,0,1.6,0.8,1.6,1.7C51.5,319.2,50.8,320,50,320z"/>
				</g>
				<g>
					<path id="XMLID_00000085936822550210194780000002993068694082039691_" class="st2" d="M43.2,323.7c0.3-0.4,0.3-1-0.1-1.3
						c-0.4-0.3-0.9-0.3-1.2,0.1c-0.3,0.4-0.3,1,0.1,1.3C42.4,324.1,42.9,324.1,43.2,323.7z"/>
					<path id="XMLID_00000091718394813819058180000007093644667633372091_" class="st4" d="M43.2,323.7c0.3-0.4,0.3-1-0.1-1.3
						c-0.4-0.3-0.9-0.3-1.2,0.1c-0.3,0.4-0.3,1,0.1,1.3C42.4,324.1,42.9,324.1,43.2,323.7z"/>
				</g>
				<g>
					<path id="XMLID_00000116219269608168933120000002847222060878775219_" class="st2" d="M43.7,315.4c0.3-0.4,0.3-1-0.1-1.3
						c-0.4-0.3-0.9-0.3-1.2,0.1c-0.3,0.4-0.3,1,0.1,1.3C42.9,315.8,43.4,315.8,43.7,315.4z"/>
					<path id="XMLID_00000032625133606367222330000016583531315152612758_" class="st4" d="M43.7,315.4c0.3-0.4,0.3-1-0.1-1.3
						c-0.4-0.3-0.9-0.3-1.2,0.1c-0.3,0.4-0.3,1,0.1,1.3C42.9,315.8,43.4,315.8,43.7,315.4z"/>
				</g>
			</g>
		</g>
	</g>
</g>
<g id="Planets" class="st5">
	<g id="Saturn_00000134213852057262396550000010986103149428409245_" class="st6">
		<g id="Planet_7_">
			<ellipse id="XMLID_1519_" class="st2" cx="270.2" cy="304.7" rx="49.4" ry="50"/>
			<ellipse id="XMLID_1551_" class="st7" cx="270.2" cy="304.7" rx="49.4" ry="50"/>
			<g class="st8">
				<path class="st2" d="M229.6,311.8c4.1-0.7,8.1-1.6,12-2.6c4-1,7.9-2.2,11.8-3.5c4-1.3,8.1-3.4,12.3-3.4c3.7,0,7.3,0.5,11,0
					c3.7-0.6,7.2-1.7,10.5-3.4c6.9-3.4,12.7-8.6,17.8-14.4c2.2-2.4,4.3-5,6.3-7.5c-0.8-1.2-1.6-2.3-2.4-3.4
					c-2.1,2.6-4.2,5.2-6.4,7.8c-4.6,5.3-9.8,10.3-16,13.6c-3.2,1.7-6.6,3-10.2,3.6c-3.8,0.6-7.4-0.2-11.2,0c-3.9,0.1-7.5,1.7-11.1,3
					c-3.6,1.3-7.3,2.5-11,3.5c-4.3,1.2-8.6,2.2-13,3.1c-2.7,0.6-5.4,1-8.1,1.5c-0.3,0.1-0.6,0.1-0.9,0.1c0.1,1,0.2,2.1,0.4,3.1
					C224.2,312.8,226.9,312.2,229.6,311.8z"/>
				<path class="st2" d="M235,299.6c6.3-1.2,12.3-3.4,17.9-6.3c5.4-2.8,10.7-7.2,17.2-6.3c4.6,0.7,10.5,0.2,14.6-2.1
					c5.6-3.2,11.1-7.4,15.2-12.5c1.2-1.5,2.5-2.8,3.7-4.3c-1-0.9-2-1.8-3.1-2.7c-0.3,0.4-0.6,0.7-0.9,1c-1,1.2-2.1,2.3-3.1,3.5
					c-2.3,2.5-4.3,5.1-7.1,7.1c-2.9,2.1-6.1,4-9.5,5.2c-1.9,0.7-7.6,2.2-8.9-0.3c-0.4-0.7,0.2-1.4,0.7-1.9
					c4.4-4.5,9.1-8.7,12.7-13.9c0.9-1.3,1.8-2.6,2.3-4.1c0.3-1,0.4-2.1,0.5-3.2c0-0.3,0-0.6,0-0.8c-0.9-0.3-1.7-0.6-2.6-0.9
					c0,0.1,0,0.2-0.1,0.3c-0.7,3.6-3.8,7.5-6,10.3c-3,4-6.8,7.3-10.6,10.5c-9,7.7-19.1,14-30.7,17c-5.3,1.4-10.5,1.7-15.8,1.6
					c-0.2,1.2-0.4,2.4-0.5,3.7C225.6,300.9,230.4,300.4,235,299.6z"/>
				<path class="st2" d="M250,282.8c8.9-3.8,17.9-9.1,24.5-16.3c1.7-1.8,3.2-3.8,4.3-6c0.7-1.3,1.5-3,1.7-4.6
					c-0.8-0.2-1.5-0.3-2.3-0.4c0,0.1-0.1,0.2-0.1,0.4c-0.3,1-0.7,1.9-1.2,2.8c-1,2-2.3,3.8-3.8,5.4c-3.1,3.5-6.8,6.2-10.7,8.8
					c-8.5,5.6-17.7,9.8-27.6,12.1c-3.6,0.9-7.2,1.5-10.9,1.9c-0.3,0.9-0.6,1.8-0.9,2.7C232.3,288.7,241.4,286.5,250,282.8z"/>
				<path class="st2" d="M231.2,278.1c3.1,0,6.1-0.4,9.1-1.2c5.7-1.4,11.1-3.9,16.2-6.7c5.1-2.9,10.4-5.9,14.8-9.9
					c1.7-1.5,3.1-3.3,4.3-5.3c-1.4-0.2-2.9-0.3-4.3-0.3c-1.2,1.7-2.8,3.1-4.4,4.4c-4.2,3.3-9,6.2-13.7,8.7
					c-4.7,2.5-9.6,4.7-14.8,5.9c-2.5,0.6-5.1,0.9-7.6,0.9c-0.8,1.1-1.6,2.2-2.3,3.3C229.3,278.1,230.3,278.1,231.2,278.1z"/>
				<path class="st2" d="M315.7,315.7c-3.4,5.5-7.5,10.5-12.3,14.7c-4.7,4.1-10.7,8.5-17.3,8.4c-3.3-0.1-6.1-2.3-9.4-2.3
					c-3.6-0.1-7,1.7-10.3,2.9c-4.2,1.6-8.5,2.9-12.8,4c-3.9,1-8,1.7-12,2.1c1.3,1,2.7,1.8,4.1,2.7c4.1-0.4,8.1-1.1,12.1-2.2
					c3.9-1.1,7.8-2.4,11.6-3.8c1.8-0.7,3.5-1.4,5.3-1.8c1.3-0.3,7.2,0.2,6.4,2.2c-0.5,1.2-3,1.9-4,2.5c-1.5,0.8-3.1,1.7-4.6,2.5
					c-3.4,1.9-6.8,3.8-10.4,5.4c-0.6,0.3-1.2,0.5-1.8,0.8c1.8,0.4,3.6,0.7,5.5,0.8c2.8-1.3,5.6-2.8,8.3-4.2
					c4.4-2.4,9.1-4.6,13.7-6.7s9.4-3.8,13.6-6.7c5.9-4.1,11-9.4,15.2-15.2l0,0c1.5-4.1,2.4-8.5,2.8-13
					C318.3,311.1,317.1,313.5,315.7,315.7z"/>
				<path class="st2" d="M255.7,311.7c-3.7,2.3-7.8,4.1-11.9,5.6c-3.9,1.4-8,2.5-12,3.5c-2.3,0.5-4.7,1-7.1,1.4
					c-0.2,0-0.5,0.1-0.7,0.1c0.4,1,0.8,2,1.2,3c2.2-0.3,4.5-0.6,6.7-1c4.5-0.8,8.9-2,13.2-3.5c4.3-1.5,8.3-3.4,12.2-5.8
					c3.7-2.3,7-5.2,11.1-6.5c0.5-0.1,0.2-1-0.2-1.1C263.5,306.6,259.5,309.3,255.7,311.7z"/>
				<path class="st2" d="M273.3,327.4c7.3-3.6,14.4-7.9,21.3-12.3c6.7-4.3,12.7-9.3,17.6-15.6c2-2.6,3.8-5.3,5.6-8
					c-0.4-1.6-1-3.2-1.5-4.7c-1.9,3-3.9,5.9-6,8.7c-4.6,6.1-9.9,11.1-16.2,15.4c-6.3,4.3-12.9,8.2-19.6,11.7
					c-6.8,3.6-13.8,6.7-21.3,8.5c-3.9,1-7.9,1.6-11.9,1.8c-4.2,0.2-8.2-0.1-12.3-0.6c0.7,1.1,1.4,2.1,2.2,3.1c6.3,1.5,13,1.1,19.2,0
					C258.4,334,266,331,273.3,327.4z"/>
				<path class="st2" d="M283.3,309.2c-3.9,2.4-8.1,4.9-12.3,6.6c-0.1,0.1-0.1,0.4,0,0.4c4.4-1.3,8.7-2.7,12.8-4.9
					c3.9-2.1,7.7-4.5,11.2-7.3c6.7-5.4,12.6-11.9,17.3-19.2c0.6-0.9,1.2-1.9,1.7-2.9c-0.5-1-1-1.9-1.6-2.8
					C305.6,291.5,295.4,301.7,283.3,309.2z"/>
				<path class="st2" d="M316.9,300.8c-2.5,3.7-5.4,7.2-8.3,10.6c-3.2,3.8-6.7,7.2-10.8,10c-2,1.3-4,2.6-6,3.8
					c-1.2,0.7-2.5,1.3-3.7,2.1c-1.1,0.7-2.4,1.1-3.4,1.9c-0.4,0.3,0,1.3,0.4,1.2c1.2-0.1,2.3-0.7,3.5-1s2.3-0.7,3.5-1.1
					c2.6-1,5-2.2,7.4-3.7c4.6-2.8,8.4-6.6,11.9-10.6c2.8-3.3,5.7-6.7,8.2-10.3c0-2.1-0.2-4.3-0.6-6.4
					C318.3,298.5,317.6,299.7,316.9,300.8z"/>
			</g>
			<path id="XMLID_1518_" class="st9" d="M266.6,254.9c18.6-0.5,42.2,28.3,37,56.9c-5.5,30.4-41.4,44.1-61.2,34.3l0,0
				c10.9,7.5,24.8,10.6,38.6,7.4c26.6-6.1,43.3-32.8,37.3-59.8C312.9,269.3,290.6,253.1,266.6,254.9z"/>
			<path id="XMLID_1517_" class="st10" d="M281,353.5c26.6-6.1,43.3-32.8,37.3-59.8c-3.9-17.5-16.5-30.8-32.1-36.3
				c1.9,0.7,26.5,9.6,27.9,45.1c1.5,37-33.1,50.9-40.8,52C275.9,354.4,278.5,354.1,281,353.5z"/>
			<path class="st11" d="M258.2,275.1c-0.9-4.2-5.1-6.9-9.2-5.9c-4.2,1-6.8,5.1-5.8,9.3c0.9,4.2,5.1,6.9,9.2,5.9
				C256.5,283.5,259.1,279.3,258.2,275.1z M237.4,287c-7.2,1.6-11.7,8.8-10,16.1c1.6,7.2,8.7,11.8,15.9,10.2
				c7.2-1.6,11.7-8.8,10-16.1C251.7,289.9,244.6,285.4,237.4,287z M262.5,286.7c-3.3,0.7-5.3,4-4.6,7.4c0.7,3.3,4,5.4,7.3,4.6
				c3.3-0.7,5.3-4,4.6-7.4C269,288,265.7,286,262.5,286.7z"/>
		</g>
		<g id="Rings_00000107551761541314430250000001610249817820582549_">
			<g class="st12">
				<path class="st2" d="M243.4,348.2c0.6-0.2,1.2-0.3,1.8-0.5c26.2-7.8,58.2-31.8,73.1-54.9c0.4-0.5,0.7-1.1,1-1.6
					c14.8-24.2,4.8-37.8-22.4-30.5c-0.7,0.2-1.4,0.4-2.1,0.6c2.2,1.3,4.3,2.7,6.3,4.3c9.2,0.2,13.5,5.4,11.9,13.8
					c-0.7,3.5-2.3,7.6-5.1,12.1c-11.8,19.4-39.1,39.8-60.8,45.7c-5.1,1.4-9.4,1.8-12.9,1.5c-8.5-0.9-12.1-6.6-9.7-15.5
					c-0.6-1.4-1.1-2.9-1.5-4.4c-0.3-1-0.5-2-0.8-3c-0.4,0.6-0.8,1.3-1.2,1.9C206.2,341.9,216.2,355.6,243.4,348.2z"/>
			</g>
			<g class="st13">
				<path class="st2" d="M239.7,362.1c6.9-1.9,14.2-4.7,21.5-8.3c21-10.2,42.6-26.4,58.3-43.8c5.5-6.1,10.3-12.3,14.1-18.5
					c18.3-29.9,5.9-46.8-27.7-37.7c-4.9,1.3-10,3.1-15.2,5.3c1,0.4,2,0.9,2.9,1.5c1.6-0.6,3.3-1.1,4.9-1.5
					c28.4-7.7,38.9,6.6,23.4,31.9c-0.9,1.5-1.9,3-3,4.5c-15.7,22.4-45.6,44.8-71.3,53.5c-1.7,0.6-3.4,1.1-5.1,1.6
					c-28.4,7.7-38.9-6.6-23.4-31.9c0.9-1.4,1.8-2.8,2.8-4.3c-0.2-1.1-0.4-2.2-0.5-3.3c-3.6,4.3-6.8,8.8-9.4,13.1
					C193.7,354.3,206.1,371.2,239.7,362.1z"/>
			</g>
			<g>
				<path class="st2" d="M301.9,257.4c4.8-1.2,9.7-2,14.6-1.8c2.5,0.1,4.9,0.5,7.2,1.2c2.3,0.8,4.5,1.9,6.3,3.7
					c1.7,1.7,3,3.9,3.7,6.2c0.7,2.4,0.8,4.8,0.6,7.3c-0.5,4.9-2.2,9.6-4.4,14.1c-4.5,8.8-10.8,16.7-17.6,23.9
					c-6.8,7.2-14.3,13.7-22.2,19.7c-7.9,5.9-16.3,11.3-25.1,15.8c-8.8,4.5-18,8.3-27.7,10.1c-4.8,0.9-9.8,1.3-14.6,0.4
					c-2.4-0.4-4.8-1.2-6.9-2.4c-2.1-1.2-3.9-2.9-5.1-5c-1.3-2.1-1.9-4.5-2-7s0.2-5,0.8-7.4c1.2-4.8,3.4-9.4,5.9-13.7
					c-2.6,4.2-4.9,8.7-6.2,13.6c-0.6,2.4-1,4.9-0.9,7.5c0.1,2.5,0.7,5.1,1.9,7.3c1.2,2.2,3.1,4.1,5.3,5.3c2.2,1.3,4.6,2.1,7.1,2.5
					c4.9,0.9,10,0.6,14.9-0.3s9.7-2.3,14.4-4c4.7-1.7,9.2-3.8,13.6-6c8.9-4.5,17.3-9.9,25.3-15.8c7.9-6,15.4-12.6,22.3-19.9
					c3.4-3.6,6.7-7.4,9.7-11.5c3-4,5.7-8.2,7.9-12.8c2.2-4.5,4-9.3,4.4-14.4c0.2-2.5,0-5.1-0.7-7.6c-0.7-2.4-2.1-4.7-4-6.4
					c-1.8-1.8-4.2-2.9-6.5-3.6c-2.4-0.7-4.9-1-7.4-1.1C311.6,255.2,306.7,256.1,301.9,257.4z"/>
			</g>
			<g>
				<path class="st2" d="M306.1,261.8c3.4,0.2,6.9,1,9.6,3.1l1,0.8l0.8,1l0.4,0.5c0.1,0.2,0.2,0.4,0.3,0.5l0.6,1.1
					c0.7,1.6,1.2,3.2,1.2,4.9c0.2,3.4-0.6,6.8-1.8,10c-1.2,3.2-2.9,6.2-4.7,9.1c-3.7,5.7-8.2,11-13,15.9s-10,9.3-15.4,13.5
					c-5.4,4.1-11.2,7.9-17.1,11.2c-6,3.3-12.2,6.1-18.7,8.2c-3.2,1-6.6,1.8-9.9,2.2c-3.4,0.4-6.8,0.4-10.1-0.5
					c-0.8-0.3-1.6-0.4-2.4-0.8l-1.2-0.5c-0.4-0.2-0.7-0.5-1.1-0.7c-0.7-0.4-1.3-1.1-1.9-1.6c-0.3-0.3-0.5-0.7-0.8-1
					s-0.5-0.7-0.7-1.1c-1.7-3-1.9-6.7-1.2-10c-0.7,3.4-0.6,7,1,10.1c0.2,0.4,0.4,0.8,0.7,1.1c0.3,0.3,0.5,0.7,0.8,1
					c0.6,0.6,1.2,1.3,2,1.7c0.4,0.2,0.7,0.5,1.1,0.7l1.2,0.6c0.8,0.4,1.6,0.6,2.4,0.9c3.3,0.9,6.8,1,10.3,0.7
					c3.4-0.3,6.8-1.1,10.1-2c6.6-1.9,12.9-4.9,18.9-8.1c6-3.3,11.8-7.1,17.3-11.2c5.5-4.2,10.7-8.7,15.5-13.6s9.3-10.2,13-16.1
					c1.8-3,3.5-6,4.6-9.3c1.2-3.3,1.9-6.7,1.7-10.3c-0.1-1.8-0.6-3.5-1.4-5l-0.7-1.1c-0.1-0.2-0.2-0.4-0.4-0.5l-0.4-0.5l-0.9-1
					l-1-0.8C313,262.6,309.4,261.9,306.1,261.8z"/>
			</g>
			<g>
				<g>
					<g class="st14">
						<path class="st2" d="M238.1,376.8c12.7-3.4,26.5-9.5,40.1-17.5c14.6-8.6,29-19.3,41.5-30.9c11.5-10.7,21.5-22.2,28.4-33.5
							c3.3-5.3,5.9-10.5,7.7-15.3c6.6-17.8,1.9-28.3-3.2-34c-8.6-9.6-24.6-11.9-45.1-6.4c-8.8,2.3-18.1,6-27.4,10.6
							c0.8,0.1,1.5,0.3,2.2,0.5c8.7-4.2,17.4-7.6,25.6-9.7c19.9-5.3,35.5-3.2,43.7,6c4.8,5.4,9.2,15.4,2.9,32.5
							c-1.8,4.8-4.3,9.8-7.5,15.1c-6.4,10.4-15.4,21-25.9,31c-13.7,13.1-29.9,25.2-46.4,34.5c-12.5,7.1-25.2,12.6-36.9,15.7
							c-20,5.3-35.5,3.2-43.7-6c-4.8-5.4-9.2-15.4-2.9-32.5c1.8-4.8,4.3-9.9,7.6-15.1c4.5-7.3,10.2-14.6,16.7-21.8
							c0.1-0.8,0.1-1.5,0.2-2.3c-7.2,7.7-13.4,15.5-18.1,23.3c-3.3,5.3-5.9,10.5-7.7,15.4c-6.6,17.7-1.9,28.2,3.2,33.9
							C201.6,379.9,217.6,382.2,238.1,376.8z"/>
					</g>
				</g>
				<g>
					<g class="st8">
						<path class="st2" d="M239.5,370c10.2-2.7,21.1-7.4,32-13.3c16.9-9.3,33.7-21.8,47.5-35.4c8.9-8.7,16.5-17.9,22.1-27
							c3-4.8,5.3-9.5,6.9-13.9c5.7-15.4,1.8-24.4-2.5-29.1c-7.4-8.2-21.4-10.1-39.7-5.3c-7.2,1.9-14.7,4.8-22.3,8.4
							c0.6,0.2,1.3,0.3,1.9,0.5c7.1-3.3,14.1-5.9,20.7-7.6c17.7-4.7,31.4-3,38.4,4.9c4,4.5,7.7,13,2.2,27.8
							c-1.6,4.3-3.9,8.9-6.8,13.7c-5.2,8.4-12.1,16.9-20.2,25c-14.6,14.7-32.8,28.3-51,38c-10.1,5.4-20.2,9.5-29.6,12.1
							c-17.7,4.7-31.4,3-38.4-4.9c-4-4.5-7.7-13-2.2-27.8c1.6-4.3,3.9-8.9,6.9-13.7c3.6-5.9,8.2-11.9,13.3-17.7c0-0.7,0-1.3,0-2
							c-5.7,6.3-10.6,12.7-14.5,19c-3,4.8-5.3,9.5-7,13.9c-5.7,15.4-1.8,24.3,2.5,29.1C207.2,372.9,221.3,374.8,239.5,370z"/>
					</g>
				</g>
				<g>
					<g class="st15">
						<path class="st2" d="M240.3,365c8.4-2.2,17.3-5.8,26.3-10.5c18.6-9.6,37.4-23.6,52-38.8c7-7.3,13.1-14.8,17.7-22.3
							c2.8-4.5,4.9-8.8,6.4-12.9c5-13.6,1.7-21.3-1.9-25.4c-6.4-7.2-19-8.7-35.6-4.3c-5.9,1.6-12.2,3.9-18.5,6.7
							c0.6,0.2,1.1,0.4,1.7,0.6c5.8-2.6,11.6-4.6,17.1-6.1c16.1-4.3,28.3-2.9,34.3,3.9c3.4,3.8,6.5,11.1,1.6,24.1
							c-1.5,4-3.6,8.2-6.3,12.7c-4.3,6.9-9.8,13.9-16.2,20.7c-15.1,16.1-35.2,31-54.8,40.8c-8.3,4.2-16.5,7.4-24.3,9.5
							c-16.1,4.3-28.3,2.9-34.3-3.9c-3.4-3.8-6.5-11.1-1.6-24.1c1.5-4,3.6-8.3,6.4-12.7c3-4.9,6.7-9.8,10.8-14.7
							c0-0.6-0.1-1.2-0.1-1.8c-4.5,5.2-8.5,10.6-11.8,15.8c-2.8,4.5-5,8.9-6.5,12.9c-5,13.6-1.7,21.3,1.9,25.4
							C211.1,367.9,223.7,369.4,240.3,365z"/>
					</g>
				</g>
				<g class="st16">
					<path class="st2" d="M239.6,362.6c7.2-1.9,14.8-4.9,22.5-8.6c20.6-10,41.7-25.8,57.3-42.7c5.8-6.3,10.9-12.8,14.8-19.2
						c2.7-4.4,4.8-8.6,6.2-12.5c3.4-9.1,3.2-16.5-0.5-21.7c-5.4-7.4-17.4-9-34-4.6c-5.1,1.4-10.4,3.2-15.8,5.5
						c0.5,0.2,1,0.5,1.5,0.7c5-2.1,9.9-3.8,14.6-5c16-4.2,27.6-2.8,32.6,4.2c5,6.9,3,18.6-5.7,32.7c-3.6,5.9-8.2,11.9-13.5,17.7
						c-16,17.7-38.2,34.2-59.6,44.4c-7.1,3.4-14,6-20.7,7.8c-16,4.3-27.6,2.8-32.6-4.2c-3.5-4.8-3.6-11.8-0.4-20.4
						c1.4-3.8,3.5-7.9,6.2-12.3c2.6-4.2,5.6-8.4,9-12.6c-0.1-0.6-0.1-1.1-0.2-1.7c-3.8,4.5-7.1,9.1-9.9,13.6
						c-2.7,4.4-4.8,8.6-6.3,12.5c-3.3,9-3.2,16.5,0.5,21.7C211,365.3,223.1,366.9,239.6,362.6z"/>
				</g>
			</g>
		</g>
	</g>
	<g id="Mercury" class="st6">
		<g id="Rings_1_">
			<g id="XMLID_1557_" class="st16">
				<path class="st17" d="M304.6,137.4c-4.8,0-9.7-1.2-14.1-3.5c-7.3-3.8-12.7-10.3-15.2-18.3c-5.1-16.3,4-33.8,20.1-38.9
					c7.8-2.5,16-1.7,23.3,2.1s12.7,10.3,15.2,18.3c5.1,16.3-4,33.8-20.1,38.9C310.8,136.9,307.7,137.4,304.6,137.4z M295.6,77
					l0.1,0.3c-15.8,5-24.6,22-19.7,38c2.4,7.8,7.7,14.1,14.8,17.9c7.1,3.7,15.1,4.4,22.7,2c15.8-5,24.6-22,19.7-38
					c-2.4-7.8-7.7-14.1-14.8-17.9c-7.1-3.7-15.1-4.4-22.7-2L295.6,77z"/>
			</g>
			<g id="XMLID_1555_" class="st15">
				<path class="st17" d="M304.6,139.6c-5.2,0-10.4-1.3-15.1-3.7c-7.9-4.1-13.7-11.1-16.3-19.6c-5.4-17.5,4.3-36.3,21.6-41.7l0,0
					c8.3-2.6,17.2-1.9,25,2.2c7.9,4.1,13.7,11.1,16.3,19.6c5.4,17.5-4.3,36.3-21.6,41.7C311.2,139.1,307.9,139.6,304.6,139.6z
					 M295,75.2c-17,5.4-26.4,23.7-21.1,40.8c2.6,8.4,8.2,15.2,15.9,19.2c7.6,4,16.3,4.7,24.4,2.2c17-5.4,26.4-23.7,21.1-40.8
					c-2.6-8.4-8.2-15.2-15.9-19.2C311.9,73.4,303.2,72.6,295,75.2L295,75.2z"/>
			</g>
			<g id="XMLID_1553_" class="st8">
				<path class="st17" d="M304.6,142.4c-5.6,0-11.2-1.4-16.4-4.1c-8.5-4.5-14.8-12-17.7-21.3c-5.9-19,4.6-39.3,23.4-45.2l0.1,0.3
					l-0.1-0.3c9-2.9,18.6-2,27.1,2.4c8.5,4.5,14.8,12,17.7,21.3c5.9,19-4.6,39.3-23.4,45.2C311.8,141.9,308.2,142.4,304.6,142.4z
					 M304.7,70.9c-3.5,0-7,0.5-10.5,1.6l0,0c-18.4,5.8-28.7,25.7-22.9,44.3c2.8,9.1,8.9,16.5,17.3,20.9c8.2,4.3,17.6,5.1,26.5,2.3
					c18.4-5.8,28.7-25.7,22.9-44.3c-2.8-9.1-8.9-16.5-17.3-20.9C315.7,72.3,310.2,70.9,304.7,70.9z"/>
			</g>
			<g id="XMLID_1242_" class="st14">
				<path class="st17" d="M304.6,145.9c-6.2,0-12.3-1.5-17.9-4.4c-9.3-4.9-16.2-13.2-19.3-23.3c-6.4-20.8,5.1-43,25.6-49.5
					c9.9-3.1,20.4-2.2,29.6,2.6c9.3,4.9,16.2,13.2,19.3,23.3c6.4,20.8-5.1,43-25.6,49.5C312.5,145.3,308.5,145.9,304.6,145.9z
					 M293.1,68.9l0.1,0.3c-20.2,6.4-31.5,28.2-25.2,48.6c3.1,10,9.8,18.1,19,22.9c9,4.7,19.4,5.6,29.1,2.6
					c20.2-6.4,31.5-28.2,25.2-48.6c-3.1-10-9.8-18.1-19-22.9c-9-4.7-19.4-5.6-29.1-2.6L293.1,68.9z"/>
			</g>
		</g>
		<g id="Planet_1_">
			<path id="XMLID_1238_" class="st17" d="M296.2,79.1c14.9-4.7,30.7,3.7,35.3,18.7c4.6,15-3.6,31-18.5,35.7s-30.7-3.7-35.3-18.7
				C273.1,99.8,281.4,83.8,296.2,79.1z"/>
			<path class="st18" d="M320.8,107.3c-2.6-0.9-5.8-0.3-7.4,1.9c-0.8,1-1.2,2.2-2.2,3c-1.5,1.1-3.7,0.5-5.3-0.5
				c-1.6-1-2.9-2.5-4.7-3.2c-1.6-0.6-3.4-0.6-4.9,0.1c-0.5,0.2-1,0.6-1.4,1.1c-0.9,1.2-0.3,2.9,0.2,4.4c0.8,2,1.5,3.9,2.3,5.9
				c0.6,1.6,1.2,3.5,0.2,4.8c-0.5,0.8-1.5,1.2-2.1,1.8c-1.6,1.5-1.5,4.2-0.4,6.1c0.1,0.2,0.3,0.5,0.5,0.7c5.5,1.9,11.6,2.1,17.5,0.2
				c6.9-2.2,12.3-6.8,15.8-12.6c0-0.1,0-0.2,0-0.2c-0.4-2.7-0.9-5.5-2.2-8C325.4,110.3,323.4,108.2,320.8,107.3z"/>
			<path class="st18" d="M325.8,100.8c0.3-1.2,0.1-2.5-0.2-3.7c-0.9-3.6-2.8-7.2-6.3-8.4c-1.4-0.5-3.1-0.5-4.2-1.5s-1.5-2.6-1.5-4.1
				c0-1.2,0.2-2.5,0.1-3.7c-5.5-1.9-11.6-2.1-17.5-0.2c-6.3,2-11.5,6.1-14.9,11.2c1.1,0.9,2.4,1.5,3.8,1.7c2.8,0.3,5.8-0.9,8.3,0.4
				c3.8,1.8,3.8,7.7,7.3,10.1c2.4,1.6,5.7,1,8.5,0.1s5.8-2,8.5-1c2,0.8,4,2.6,6,1.9C324.8,103.1,325.6,102,325.8,100.8z"/>
			<path class="st18" d="M285.8,107.8c-0.8-2.5,0.1-5.3-0.9-7.7c-1-2.6-3.6-3.9-6.4-4.7c-2.4,6-2.9,12.8-0.9,19.4
				c1.2,4,3.3,7.6,5.9,10.5c1.5,0,2.9-0.3,4.3-0.8c2.5-0.9,5-3,5.1-5.8c0.1-2.2-1.5-4.2-3.1-5.7C288.3,111.5,286.5,110,285.8,107.8z
				"/>
			<path id="XMLID_1235_" class="st18" d="M300.4,78.1C311,77,325.7,92.2,324,108.7c-1.8,17.5-21.5,27-33.3,22.4l0,0
				c6.6,3.8,14.6,4.9,22.3,2.4c14.9-4.7,23.1-20.7,18.5-35.7C327.4,84.2,313.9,76,300.4,78.1z"/>
			<path id="XMLID_1229_" class="st18" d="M313.1,133.5c14.9-4.7,23.1-20.7,18.5-35.7c-3-9.8-10.8-16.7-19.9-19.1
				c1.1,0.3,15.5,4.2,17.9,24.3c2.5,20.9-16.5,30.5-20.8,31.5C310.2,134.3,311.6,134,313.1,133.5z"/>
			<path class="st11" d="M296.5,90c-0.7-2.4-3.2-3.7-5.5-2.9c-2.3,0.7-3.6,3.2-2.9,5.6c0.7,2.4,3.2,3.7,5.5,2.9
				C295.9,94.9,297.2,92.4,296.5,90z M285.2,97.8c-4,1.3-6.2,5.6-5,9.6s5.5,6.3,9.5,5s6.2-5.6,5-9.6S289.2,96.5,285.2,97.8z
				 M299.5,96.4c-1.8,0.6-2.9,2.5-2.3,4.4s2.5,2.9,4.4,2.3c1.8-0.6,2.9-2.5,2.3-4.4C303.2,96.9,301.3,95.9,299.5,96.4z"/>
			<g class="st8">
				<path d="M313.5,90.5c-2,0.6-6.5,0.5-7.6-1.2c-0.4-0.6-0.6-1.6,0.9-3.1c1.7-1.7,6.2-1,7.9,0.6c0.9,0.9,1,2,0.1,2.9
					c-0.2,0.3-0.6,0.5-0.9,0.6l0,0C313.8,90.4,313.7,90.4,313.5,90.5z M308.3,86.1c-0.4,0.1-0.8,0.3-1,0.6c-0.9,0.9-1.2,1.6-0.8,2.1
					c1,1.4,5.5,1.6,7.2,0.8c0.2-0.1,0.5-0.2,0.6-0.4c0.6-0.7,0.6-1.3-0.1-1.9C313,86.1,310.1,85.5,308.3,86.1z"/>
			</g>
			<g class="st8">
				<path d="M311.3,129.9c-1.1,0.3-2.1,0.5-3.1,0.3c-1.3-0.2-2.5-0.9-3.1-1.9c-0.9-1.3-0.8-2.8,0.3-3.9l0,0c0.6-0.7,1.6-1.2,2.7-1.3
					c1.4-0.2,3.7,0.7,5,1.9c0.8,0.8,1.1,1.6,1,2.4c-0.1,0.9-0.9,1.7-2.3,2.2C311.6,129.8,311.5,129.9,311.3,129.9z M307.6,124
					c-0.6,0.2-1.2,0.5-1.6,1l0,0c-0.5,0.5-1.1,1.5-0.2,3c0.5,0.8,1.5,1.4,2.6,1.6c1,0.1,2,0,3.2-0.4c0.6-0.2,1.7-0.8,1.8-1.7
					c0.1-0.7-0.4-1.4-0.8-1.8c-1.2-1.2-3.3-1.9-4.3-1.8C308,123.9,307.8,124,307.6,124z"/>
			</g>
			<g>
				<path class="st17" d="M316.4,105.1L316.4,105.1c-1.7,1-1.1,2.9-1.3,4.5c-0.1,0.4-0.1,0.8,0,1.2c0.3,0.7,1.2,1.1,1.9,1
					c0.8-0.1,1.4-0.7,1.9-1.2c0.8-0.8,1.4-1.9,1.4-3C320.6,105,318.5,103.9,316.4,105.1z M313.5,100.1c-0.7-3-4.5-6.4-7.7-6.1
					c-3.4,0.4-6.1,5.6-5.2,8.7c0.5,1.6,2,2.7,3.5,3.1c1.6,0.4,3.2,0.2,4.8-0.1c1.7-0.3,3.5-0.9,4.3-2.4
					C313.7,102.3,313.7,101.2,313.5,100.1z M286.2,107.7c-0.9,0-1.7,0.7-1.5,1.7c0.2,0.9,1.3,1.5,2.2,1.2c0.8-0.4,1.1-1.5,0.6-2.2
					C287.2,107.8,286.7,107.6,286.2,107.7z M294.8,122.7c-0.3,0-0.6,0-0.8,0.1c-0.9,0.3-1.8,1.4-0.7,2.2c0.3,0.2,0.8,0.2,1.2,0.1
					c0.9-0.2,1.9-1.4,0.8-2.2C295.1,122.8,295,122.7,294.8,122.7z"/>
				<path class="st19" d="M316.4,105.1L316.4,105.1c-1.7,1-1.1,2.9-1.3,4.5c-0.1,0.4-0.1,0.8,0,1.2c0.3,0.7,1.2,1.1,1.9,1
					c0.8-0.1,1.4-0.7,1.9-1.2c0.8-0.8,1.4-1.9,1.4-3C320.6,105,318.5,103.9,316.4,105.1z M313.5,100.1c-0.7-3-4.5-6.4-7.7-6.1
					c-3.4,0.4-6.1,5.6-5.2,8.7c0.5,1.6,2,2.7,3.5,3.1c1.6,0.4,3.2,0.2,4.8-0.1c1.7-0.3,3.5-0.9,4.3-2.4
					C313.7,102.3,313.7,101.2,313.5,100.1z M286.2,107.7c-0.9,0-1.7,0.7-1.5,1.7c0.2,0.9,1.3,1.5,2.2,1.2c0.8-0.4,1.1-1.5,0.6-2.2
					C287.2,107.8,286.7,107.6,286.2,107.7z M294.8,122.7c-0.3,0-0.6,0-0.8,0.1c-0.9,0.3-1.8,1.4-0.7,2.2c0.3,0.2,0.8,0.2,1.2,0.1
					c0.9-0.2,1.9-1.4,0.8-2.2C295.1,122.8,295,122.7,294.8,122.7z"/>
			</g>
		</g>
	</g>
</g>
<g id="Character">
	<g id="Astronaut_00000178889252872823875190000001451928437916504207_">
		<g id="Bottom_00000103243929526908753980000006208026911390414487_">
			<g>
				<path class="st20" d="M132.8,232.3c7.3-16.8,17.1-32.8,17.1-32.8l93.3,16.5c0.3,13.3-1.9,24.8-11,37c-2.6,3.5-5.7,7.1-8.8,10.6
					c1.3,3.3,2.9,8.7,2.5,15.8c-0.7,11.7-5.3,16.2-5.3,16.2s-1.3-0.1-5.6-0.2c0.8,1.3,1.5,2.7,2.2,4.1c4.3,9.4,9.5,21.9,9.5,21.9
					s-2.2,9.2-9.7,14.3c-7.5,5.1-14,3.5-14,3.5s-25.7-24.8-33.1-31.6c-5-4.6-10.9-11.3-12-13.9c-13-1.6-22.8-8.3-26.6-13.8
					C124.4,270.3,124.6,251.1,132.8,232.3z"/>
				<g>
					<path class="st17" d="M218.9,326.3l2.9-1c-1.9-5.8-9.3-24.9-16.5-35.2c-6.4-9.2-7.2-10.4,5.8-24.9
						c13.6-15.2,22.4-31.6,22.5-41.9h-3c-0.1,9.6-8.6,25.2-21.7,39.9c-13.1,14.7-13.7,17.6-6,28.7
						C209.6,301.8,217.1,320.8,218.9,326.3z"/>
				</g>
				<path class="st17" d="M157.9,293.8c-5.8-14.3-1.6-27.3,2.7-36.2c4.3-9,10.7-17.5,10.7-17.5s-13.7-7.7-17-18.2
					c-1.2,10.1,8.6,20.2,8.6,20.2S143,273.8,157.9,293.8z"/>
			</g>
			<g>
				<path class="st21" d="M209.4,286.6c1.6,2.1,3.7,5,5.7,8.8c0.2,0,0.5,0,0.7,0.1h0.1c3.8,0.3,6.6,0.7,7.9,1.6
					c2.6,1.7,6.2,12.2,7.9,19.2c1.8,7.1,9.9,9.2,15.3,7.3c5.4-1.9,12.1-15.6,8.7-25.5c-3.4-9.9-8.1-11.5-8.4-17.7
					s-0.8-10.3-4.1-13.8c-7.4-3-8.1-0.3-15.1-2.9c-1-0.4-2.2-0.9-3.3-1.4l-11.5,13C212.5,279.9,211,283.9,209.4,286.6z"/>
				<path class="st22" d="M223.4,263.6l-17.2,19.5c0,0,4.7,4.4,8.8,12.3l2.2,0.1c0,0-1.5-9.1-6.1-12.4L223.4,263.6z"/>
			</g>
			<path class="st21" d="M190.5,327.2l2.2,2.1c13.2-0.5,26.9-15.3,28.4-21.1l-1.2-2.7c3-1.5,7.4,12.3,12,19.4
				c4,6.3,6.2,4.7,10.3,11.5c0.6,4.8-1.5,8.4-5,13.5s-0.7,9.3-3.9,19.2c-3.2,10-16.7,16.8-22.1,15s-10.6-8.4-7.8-15.1
				c2.8-6.7,6.2-17.2,5.2-20.2c-1.1-3-8.3-9.1-15.4-15.9C188.3,328.2,190.5,327.2,190.5,327.2z"/>
		</g>
		<g id="Top_00000158722435336197791890000016899587191206575549_">
			<g>
				<path class="st17" d="M179.7,125.2c-15-3.8-23.6,6.1-35.5,6.4c-13,0.3-18-4.2-23-14.3c-8.8-5.1-19.5,0.5-21.4,5.6
					c1.6,24,14.3,34.8,29,40.5c14,5.4,31.6,3.6,41.5,0.2C184.3,148.5,182.4,131.7,179.7,125.2z"/>
				<g>
					<path class="st21" d="M123.3,104.3c-0.8,0.9-1.3,2-2.1,2.9c-0.6,0.7-1.3,1.3-2.1,1.7c-0.5,0.3-1.1,0.5-1.5,0.9
						c-1.1,0.9-0.6,1.8,0,2.9c1,1.8,2.2,3.6,3.3,5.4c-0.3,1.8-3.6,4.2-6.2,5.2c-5.2,2.1-12.1,2.5-14.2,0.1c-1.1-4.1-1.7-9.2-2-13.4
						c-0.1-1.7-0.2-3.4,0.2-5c0.3-1.3,1-2.5,1.6-3.7c2.4-4,5.9-7.5,10.3-9.2c4.4-1.7,9.6-1.3,13.3,1.6c0.8,0.7,1.7,1.5,2.7,1.5
						c1.3,0.1,2.5-0.7,3.8-0.7c1.4,0.1,2.9,0.6,4,1.6c0.3,0.3,0.6,0.6,0.8,1c0.6,1.5-0.8,2.1-2,2.7c-1.7,0.8-3.5,1.1-5.2,1.7
						C126.3,102.1,124.6,102.9,123.3,104.3z"/>
					<path class="st2" d="M121.3,117.3c1.4,2.8,6,9.4,11.7,11.8c0.9,6.3-11.5,21-25.5,19.5c-3.7-5.1-8.3-15.1-7.6-25.7
						C107.1,126.6,119.3,123.1,121.3,117.3z"/>
					<g>
						<path class="st17" d="M81.4,174.6c-1.1,2.3,3.9,4.6,5,2.4l69.4-148.5c0.9-2-4-4.4-5-2.4L81.4,174.6z"/>
						<g>
							<path class="st2" d="M105.8,23.5c15.4,11.1,29.6-8.5,45.4,5.2l-14.4,30.5c-8.3-12.3-27-3.6-37.9-17.6
								c-8.1-10.5-6.1-20-11.5-25c-0.6-0.6-0.2-1.7,0.6-1.7C95.1,14.9,99.7,19,105.8,23.5z"/>
							<path class="st23" d="M129,29.8l-3.3,3.7l-4.9-0.7c-1-0.1-1.6,0.9-1.2,1.7l2.4,4.3l-2.1,4.5c-0.4,0.9,0.3,1.9,1.3,1.7l4.8-1
								l3.6,3.5c0.7,0.7,1.9,0.3,2-0.7l0.5-5l4.3-2.4c0.8-0.5,0.8-1.7-0.1-2.1l-4.5-2.1l-0.9-4.9C130.8,29.5,129.6,29.1,129,29.8z"
								/>
						</g>
					</g>
					<path class="st21" d="M109.3,87.3c0.6-0.2,1.1-0.4,1.6-0.9c0.9-0.8,1.6-1.7,2.5-2.5s1.9-1.6,3.1-2c0.9-0.3,1.8-0.4,2.8-0.5
						c2.8-0.1,5.6,0,7.7,2.2c0.6,0.7,1.2,1.4,1.8,2.2c0.5,0.7,0.9,1.4,1.3,2.2c0.4,0.7,0.7,1.3,0.9,2.2c0,0.2,0.1,0.4,0,0.5
						c-0.1,0.2-0.2,0.3-0.4,0.3c-1,0.6-2.2,0.4-3.2-0.1c-1.6-0.8-2.6-2.6-4.3-3.2c-0.8-0.3-1.6-0.3-2.4-0.1
						c-0.6,0.1-1.6,0.6-1.8,1.3c1.2,0.4,2.4,0.5,3.6,0.9c1,0.4,2.1,1.1,2.8,2c0.7,1,1,2.2,1.3,3.4s0.5,2.5,0.1,3.6
						c-0.2,0.4-0.4,0.9-0.8,1.1c-0.4,0.3-0.9,0.4-1.3,0.2c0.1,0.8-0.6,1.6-1.4,1.9c-0.8,0.3-1.7,0.1-2.5-0.2
						c-0.6-0.2-1.3-0.5-1.8-0.9c0.3,0.5,0.3,1.1,0.1,1.6c-0.4,1.1-1.9,1.5-2.9,1.7c-1.3,0.2-2.6,0.3-3.9,0.3c0.1,3-1.9,5.8-4.5,7.3
						s-5.6,1.9-8.6,2.1c-0.7-5.4-1-11,0.7-16.1c0.3-1,0.8-2,1.3-2.9c0.4-0.7,1-1.1,1.4-1.8c0.2-0.4,0.3-0.7,0.6-1.1
						c0.6-0.8,1.7-1.1,2.3-1.9c0.3-0.4,0.4-0.8,0.7-1.2c0.5-0.8,1.4-1.1,2.3-1.4C108.6,87.5,108.9,87.5,109.3,87.3z"/>
					<g>
						<path class="st22" d="M127,83.6c1.5,1.7,2.7,3.8,3.6,5.9c0.1,0.4,0.3,1,0.1,1.1c-0.6,0.5-1.6,0.6-2.4,0.3
							c-1.8-0.5-2.8-2.3-4.4-3.3c-0.9-0.5-1.9-0.7-2.9-0.6c-1.1,0.2-2.1,0.5-2.6,1.7c-0.1,0.2,0.1,0.4,0.3,0.5
							c2.1,0.5,4.2,0.8,5.7,2.3c1.3,1.5,1.8,3.8,1.9,5.7c0.1,1-0.5,2.8-1.7,2.5c-0.2-0.1-0.5,0-0.6,0.3c-0.1,2.7-3.6,1.6-5,0.6
							c-0.4-0.3-0.8,0.2-0.6,0.6c1.2,3.1-4.5,3-6.4,3c-0.2,0-0.4,0.2-0.4,0.4c0.1,6.5-7.2,9.1-12.7,9.3c5.8,0.1,13.4-2.5,13.4-9.4
							l-0.4,0.4c2.6,0.1,8.7,0,7.1-4.1l-0.6,0.6c1.1,0.7,2.2,1.2,3.5,1.3c1.4,0.1,3-0.9,2.9-2.5l-0.6,0.5c1,0.4,2-0.3,2.4-1
							c0.8-1.4,0.6-3.1,0.2-4.6c-0.4-1.5-0.8-2.9-1.9-4.1c-1.6-1.7-4.1-2-6.1-2.5l0.3,0.5c0.8-1.4,3.1-1.5,4.4-0.7
							c1.6,0.9,2.7,2.8,4.6,3.2c1,0.2,2,0.2,2.9-0.5c0.6-0.8-0.3-2-0.7-2.8C129.4,86.5,128.4,84.9,127,83.6L127,83.6z"/>
					</g>
					<path class="st22" d="M111.4,88c1.2-0.3,2.6-0.2,3.8-0.1c0.7,0,1.3,0.1,2,0.2c0.4,0.1,0.7,0.1,1.1,0.2c0.3,0.1,0.6,0.1,0.8,0.2
						c0.2,0.2,0.1,0.4-0.1,0.6l0,0l0,0l0,0c0,0-0.1,0.1-0.2,0.1l0,0l0,0l0,0c-0.1,0-0.3,0-0.4,0c-0.3,0-0.6-0.1-0.9-0.2
						c-0.9-0.2-1.8-0.3-2.7-0.4c-1.1-0.2-2.2-0.2-3.3-0.5C111.3,88.2,111.4,88,111.4,88z"/>
					<path class="st22" d="M109.2,94.1c0.5-0.4,1.1-0.5,1.7-0.7c0.7-0.2,1.4-0.4,2.2-0.5c1.4-0.2,2.9,0,4.2,0.4
						c1.4,0.4,2.7,0.9,3.9,1.8c1.5,1.1,2.2,2.6,3,4.2c0.1,0.1-0.2,0.5-0.3,0.3c-1-1.3-2-2.7-3.3-3.6c-1.2-0.8-2.5-1.4-3.9-1.7
						c-1.3-0.3-2.6-0.4-3.9-0.5c-0.6,0-1.2,0-1.9,0.1c-0.6,0.1-1.2,0.4-1.7,0.3C109.1,94.2,109.2,94.1,109.2,94.1z"/>
					<path class="st22" d="M110.1,98c0.3-0.2,0.8-0.3,1.2-0.4c0.4-0.1,0.7,0,1.1,0c0.8,0,1.6,0.2,2.3,0.4c1.3,0.4,2.4,1.1,3.2,2.2
						c0.1,0.1,0.1,0.2,0.1,0.2l0,0h-0.1c-0.4-0.2-0.7-0.4-1.1-0.6c-0.3-0.2-0.6-0.3-0.9-0.5c-0.6-0.3-1.3-0.6-2-0.7
						c-0.7-0.2-1.3-0.3-2-0.3c-0.4,0-0.7,0-1.1-0.1C110.6,98.2,110.3,98.2,110.1,98C110.1,98.1,110.1,98,110.1,98z"/>
				</g>
			</g>
			<g>
				<path class="st21" d="M243.2,212.2c1.3,3.5-0.7,8.3-8,11.7c-7.3,3.4-18.9,6.1-38.6,3.3c-16.9-2.4-31.3-8.4-39.6-15.9
					c-4.5-4-9.3-11-6.1-14.6L243.2,212.2z"/>
				<path class="st20" d="M151,196.7c2.1,7.3,14.1,20,43.3,24.9c28.6,4.8,50.7-3.3,50.5-13c-0.1-14.8,8.6-25.1,11.6-41.2
					c3.3-18.1-2.7-28.2-2.7-28.2c-28-17.4-72.1-12.2-81.2-13.4c-11,7.2-17.1,16.2-16.6,40.8C156.1,177.8,149.1,181.3,151,196.7z"/>
			</g>
			<g>
				<g>
					<g>
						<path class="st2" d="M159.5,170.6c0.1-1.4,0.6-2.3,1.3-2.8l0,0l5.2-3.4l0,0c0.9-0.6,2.2-0.4,3.6,0.6
							c9.1,6.4,20.3,10.6,34.3,13.6c3.1,0.7,5.4,3.7,5.1,6.8l-1.3,15.4c-0.2,1.8-1.1,3.2-2.4,4.1l0,0l-5.3,3.4
							c-1,0.7-2.3,0.9-3.7,0.6c-13.8-2.8-26-7.9-33.9-13.1c-2.6-1.7-4.4-6-4.1-9.2L159.5,170.6z"/>
						<path class="st19" d="M209.1,185.5l-1.3,15.4c-0.2,1.8-1.1,3.2-2.4,4.1l0,0l-5.3,3.4c-0.1,0.1-0.3,0.2-0.5,0.2l1.1-21.7l7.5-5
							C208.8,182.9,209.2,184.2,209.1,185.5z"/>
						<path class="st2" d="M164.4,168.4c9.1,6.4,20.3,10.6,34.3,13.6c3.1,0.7,5.4,3.7,5.1,6.8l-1.3,15.4c-0.3,3.2-3,5.4-6.1,4.7
							c-13.8-2.8-26-7.9-33.9-13.1c-2.6-1.7-4.4-6-4.1-9.2l1.1-16C159.7,167.5,161.8,166.6,164.4,168.4z"/>
						<path class="st24" d="M164.4,168.4c9.1,6.4,20.3,10.6,34.3,13.6c3.1,0.7,5.4,3.7,5.1,6.8l-1.3,15.4c-0.3,3.2-3,5.4-6.1,4.7
							c-13.8-2.8-26-7.9-33.9-13.1c-2.6-1.7-4.4-6-4.1-9.2l1.1-16C159.7,167.5,161.8,166.6,164.4,168.4z"/>
					</g>
					<g>
						<path class="st2" d="M195.7,205.4c0-0.5,0.1-1,0.1-1.5c0-0.4,0.1-0.8,0.1-1.2c0.1-1.8,0.3-3.7,0.5-5.5s0.3-3.6,0.5-5.4
							c0.1-1,0.2-2,0.4-3c0.1-1,0.2-2.1,0.6-3.1c0.2-0.5,1.2-0.5,1.2,0.1c0.1,1.8-0.3,3.7-0.5,5.5c-0.2,1.7-0.4,3.5-0.5,5.2
							c-0.2,1.7-0.3,3.4-0.4,5.1c-0.1,0.8-0.1,1.7-0.2,2.5c0,0.6,0.1,1.6-0.4,2c-0.3,0.3-0.8,0.3-1.1,0.1c-0.2-0.2-0.3-0.3-0.3-0.6
							v-0.1C195.7,205.5,195.7,205.5,195.7,205.4z M190.7,204c0-0.5,0.1-1,0.1-1.5c0-0.4,0.1-0.8,0.1-1.2c0.1-1.8,0.3-3.7,0.5-5.5
							c0.2-1.8,0.3-3.6,0.5-5.4c0.1-1,0.2-2,0.4-3c0.1-1,0.2-2.1,0.6-3.1c0.2-0.5,1.2-0.5,1.2,0.1c0.1,1.8-0.3,3.7-0.5,5.5
							c-0.2,1.7-0.4,3.5-0.5,5.2c-0.2,1.7-0.3,3.4-0.4,5.1c-0.1,0.8-0.1,1.7-0.2,2.5c0,0.6,0.1,1.6-0.4,2c-0.3,0.3-0.8,0.3-1.1,0.1
							c-0.2-0.2-0.3-0.3-0.3-0.6v-0.1C190.7,204.1,190.7,204.1,190.7,204z M185.5,202.7c0-0.1,0-0.1,0-0.2c0-0.5,0.1-1,0.1-1.5
							c0-0.4,0.1-0.8,0.1-1.2c0.1-1.8,0.3-3.7,0.5-5.5c0.2-1.8,0.3-3.6,0.5-5.4c0.1-1,0.2-2,0.4-3c0.1-1,0.2-2.1,0.6-3.1
							c0.2-0.5,1.2-0.5,1.2,0.1c0.1,1.8-0.3,3.7-0.5,5.5c-0.2,1.7-0.4,3.5-0.5,5.2c-0.2,1.7-0.3,3.4-0.4,5.1
							c-0.1,0.8-0.1,1.7-0.2,2.5c0,0.6,0.1,1.6-0.4,2c-0.3,0.3-0.8,0.3-1.1,0.1C185.6,203.1,185.5,203,185.5,202.7L185.5,202.7z"/>
						<g class="st8">
							<path d="M186.5,201.8c0-0.5,0.1-1,0.1-1.5c0-0.4,0.1-0.8,0.1-1.2c0.1-1.8,0.3-3.7,0.5-5.5c0.2-1.8,0.3-3.6,0.5-5.4
								c0.1-1,0.2-2,0.4-3c0.1-0.9,0.2-1.9,0.5-2.8c0.2,0,0.4,0.2,0.4,0.4c0.1,1.8-0.3,3.7-0.5,5.5c-0.2,1.7-0.4,3.5-0.5,5.2
								c-0.2,1.7-0.3,3.4-0.4,5.1c-0.1,0.8-0.1,1.7-0.2,2.5c0,0.4,0,1.1-0.1,1.6c-0.1,0-0.3-0.1-0.4-0.2c-0.2-0.2-0.3-0.3-0.3-0.6
								v-0.1C186.5,201.9,186.5,201.9,186.5,201.8z"/>
							<path d="M196.7,204.7c0-0.5,0.1-1,0.1-1.5c0-0.4,0.1-0.8,0.1-1.2c0.1-1.8,0.3-3.7,0.5-5.5c0.2-1.8,0.3-3.6,0.5-5.4
								c0.1-1,0.2-2,0.4-3c0.1-0.9,0.2-1.9,0.5-2.8c0.2,0,0.4,0.2,0.4,0.4c0.1,1.8-0.3,3.7-0.5,5.5c-0.2,1.7-0.4,3.5-0.5,5.2
								c-0.2,1.7-0.3,3.4-0.4,5.1c-0.1,0.8-0.1,1.7-0.2,2.5c0,0.4,0,1.1-0.1,1.6c-0.1,0-0.3-0.1-0.4-0.2c-0.2-0.2-0.3-0.3-0.3-0.6
								v-0.1C196.7,204.9,196.7,204.8,196.7,204.7z"/>
							<path d="M191.7,203.3c0-0.5,0.1-1,0.1-1.5c0-0.4,0.1-0.8,0.1-1.2c0.1-1.8,0.3-3.7,0.5-5.5c0.2-1.8,0.3-3.6,0.5-5.4
								c0.1-1,0.2-2,0.4-3c0.1-0.9,0.2-1.9,0.5-2.8c0.2,0,0.4,0.2,0.4,0.4c0.1,1.8-0.3,3.7-0.5,5.5c-0.2,1.7-0.4,3.5-0.5,5.2
								c-0.2,1.7-0.3,3.4-0.4,5.1c-0.1,0.8-0.1,1.7-0.2,2.5c0,0.4,0,1.1-0.1,1.6c-0.1,0-0.3-0.1-0.4-0.2c-0.2-0.2-0.3-0.3-0.3-0.6
								v-0.1C191.7,203.5,191.7,203.4,191.7,203.3z"/>
						</g>
					</g>
					<g>
						<path class="st25" d="M175,180.2c-0.6,0.3-0.9,1-1,1.9c-0.1,1.9,1.1,4.4,2.7,5.4c0.8,0.5,1.6,0.6,2.1,0.3c0.3-0.2,1.6-0.8,2-1
							c0.6-0.3,0.9-1,1-1.9c0.1-1.9-1.1-4.4-2.7-5.4c-0.8-0.5-1.6-0.6-2.1-0.3C176.7,179.4,175.4,180.1,175,180.2z"/>
						<path class="st21" d="M176.8,187.6c0.8,0.5,1.6,0.6,2.1,0.3c0.6-0.3,0.9-1,1-1.9c0.1-1.9-1.1-4.4-2.7-5.4
							c-0.8-0.5-1.6-0.6-2.1-0.3c-0.6,0.3-0.9,1-1,1.9C173.9,184.1,175.2,186.5,176.8,187.6z"/>
					</g>
					<g>
						<path class="st17" d="M163.1,175c-0.6,0.3-0.9,1-1,1.9c-0.1,1.9,1.1,4.4,2.7,5.4c0.8,0.5,1.6,0.6,2.1,0.3c0.3-0.2,1.6-0.8,2-1
							c0.6-0.3,0.9-1,1-1.9c0.1-1.9-1.1-4.4-2.7-5.4c-0.8-0.5-1.6-0.6-2.1-0.3C164.7,174.1,163.4,174.8,163.1,175z"/>
						<path class="st26" d="M164.8,182.3c0.8,0.5,1.6,0.6,2.1,0.3c0.6-0.3,0.9-1,1-1.9c0.1-1.9-1.1-4.4-2.7-5.4
							c-0.8-0.5-1.6-0.6-2.1-0.3s-0.9,1-1,1.9C162,178.8,163.2,181.3,164.8,182.3z"/>
					</g>
					<g>
						<path class="st25" d="M174.4,192.4c-0.6,0.3-0.9,1-1,1.9c-0.1,1.9,1.1,4.4,2.7,5.4c0.8,0.5,1.6,0.6,2.1,0.3
							c0.3-0.2,1.6-0.8,2-1c0.6-0.3,0.9-1,1-1.9c0.1-1.9-1.1-4.4-2.7-5.4c-0.8-0.5-1.6-0.6-2.1-0.3
							C176,191.6,174.7,192.2,174.4,192.4z"/>
						<path class="st21" d="M176.1,199.7c0.8,0.5,1.6,0.6,2.1,0.3c0.6-0.3,0.9-1,1-1.9c0.1-1.9-1.1-4.4-2.7-5.4
							c-0.8-0.5-1.6-0.6-2.1-0.3s-0.9,1-1,1.9C173.3,196.2,174.5,198.7,176.1,199.7z"/>
					</g>
					<g>
						<path class="st25" d="M162.4,187.1c-0.6,0.3-0.9,1-1,1.9c-0.1,1.9,1.1,4.4,2.7,5.4c0.8,0.5,1.6,0.6,2.1,0.3
							c0.3-0.2,1.6-0.8,2-1c0.6-0.3,0.9-1,1-1.9c0.1-1.9-1.1-4.4-2.7-5.4c-0.8-0.5-1.6-0.6-2.1-0.3
							C164.1,186.3,162.8,187,162.4,187.1z"/>
						<path class="st21" d="M164.2,194.5c0.8,0.5,1.6,0.6,2.1,0.3c0.6-0.3,0.9-1,1-1.9c0.1-1.9-1.1-4.4-2.7-5.4
							c-0.8-0.5-1.6-0.6-2.1-0.3c-0.6,0.3-0.9,1-1,1.9C161.3,191,162.6,193.4,164.2,194.5z"/>
					</g>
				</g>
				<path class="st21" d="M208.6,191.3c7.4,3.8,31.2,8.1,40.4-1.6c1.8,2.7,0.8,6.1-2,9c-2.8,2.9-9.2,5.9-18.3,5.5
					c-15.2-0.6-22.6-4.2-22.6-4.2s-2.5-1.5-1.6-5.5C205.3,190.3,208.6,191.3,208.6,191.3z"/>
			</g>
			<g>
				<path class="st17" d="M244.5,182.3c4.7,1.9,12.5,5.7,17.6,12.8c5.9,8.1,7.6,18.6,3.7,26c8.1,9.4,17.1,9.2,22.4,8.5
					c10-15.9,10.7-36.2,4.8-51.1c-5.8-14.9-15-29.3-39.3-39.4C241.3,138.8,233.3,170,244.5,182.3z"/>
				<g>
					<path class="st21" d="M291.1,221.5c0.1,0.2,0.2,0.4,0.3,0.6c0.1,0.2,0.2,0.4,0.2,0.6c0,0.3-0.1,0.5-0.3,0.7
						c-1.2,1.7-2.5,3.2-3.7,4.9c-1.1,1.7-2.1,3.6-2.3,5.6c-0.3,2.8,0,5.5-0.5,8.2c-0.5,3-1.4,5.8-2.3,8.7c-0.7,2.4-1.7,4.2-3.5,5.9
						c-1.7,1.6-3.8,2.7-6,3.5c-1.2,0.5-2.5,0.5-3.7,0.6c-1.1,0-2.7,0.4-3.7,0.1c-0.3-0.1-0.5-0.2-0.7-0.5c-0.2-0.4-0.2-0.9,0-1.3
						c0.4-1,1.2-1.9,2.1-2.5c1.7-1.2,4-1.6,5.3-3.4c0.5-0.7,0.8-1.7,1-2.5c0-0.2-0.1-0.5-0.3-0.4c-0.5,0.5-0.8,1-1.3,1.5
						s-1.4,0.8-2,1.1c-1.4,0.6-2.9,1-4.4,1.2c-3,0.4-6.2-0.1-8.9-1.3c-0.7-0.3-1.5-0.8-2-1.4c-0.7-0.8-1.1-2.2-0.4-3.1
						c0.3-0.4,0.9-0.6,1.4-0.7c-0.5-0.3-0.8-1-0.7-1.6c0.1-0.6,0.4-1.1,0.9-1.5c0.4-0.4,1-0.6,1.6-0.7c-0.2-0.6,0-1.3,0.3-1.8
						c0.4-0.5,0.9-0.9,1.5-1.2c0.5-0.2,1-0.4,1.4-0.7c0.8-0.7,1-1.9,1.1-2.9c0.1-1.2,0-2.4,0-3.6c0-3.5,1.5-6.8,3.5-9.5
						c1.8-2.4,5.2-7.2,7-9.6c0.7-0.9,2-1.1,3-1.1c3.1-0.1,6.4,0.9,9.2,2.2C287.2,216.7,289.5,218.6,291.1,221.5z"/>
					<path class="st22" d="M259.6,244.3c0.5,0,1-0.1,1.5-0.2s1-0.1,1.5-0.2c0.7-0.1,1.3-0.3,1.9-0.7c0.1,0,0.1-0.1,0.1-0.1
						c0.1-0.1,0-0.3-0.1-0.4c-0.2-0.2-1-1.6-0.6-1.8c0.5,0.6,1,1.2,1.5,1.9c0.2,0.3,0.4,0.5,0.7,0.7c0.3,0.2,0.6,0.5,0.9,0.7
						c0.1,0,0.1,0.1,0.2,0.1c0-0.4,0.1-0.7,0.2-1.1c0.4-1,1-1.9,1.8-2.6s1.6-1,2.5-1.3c-0.1-0.4-0.5-0.9-0.7-1.2
						c-0.3-0.5-0.5-1-0.7-1.5c-0.4-1-0.8-2.1-0.8-3.2c0-2.2,1.2-3.6,2.9-4.8c0.2-0.2,0.3,0.1,0.2,0.3c-0.6,1.4-1.5,2.8-1.5,4.3
						c0,1.6,0.7,3,1.4,4.4c0.3,0.5,0.8,1.2,0.9,1.8c0.1,0.7-0.5,0.9-1,1.1c-1.3,0.4-2.4,1.1-3.1,2.3c-0.3,0.5-0.9,1.6-0.3,2.1
						c0.5,0.4,1.6,0.3,2.2,0.3c1.5,0.1,3,0.2,4.4-0.2c1.5-0.4,2.6-1.4,3.6-2.5c0.5-0.6,1-1.1,1.5-1.7s1-1.3,1.7-1.7
						c0.1,0,0.1,0.1,0.1,0.1c-0.4,1.3-1.4,2.6-2.2,3.6c-0.7,1-1.6,1.9-2.6,2.6c-1.9,1.1-4.2,1.3-6.4,1.1c-0.3,0-0.5,0-0.8,0
						c0.6,0.3,1.2,0.7,1.8,1.1c0.1,0,0,0.2-0.1,0.2c-1.3-0.1-2.5-0.7-3.7-1.5c-2.9,1.7-6.7,2.6-10,1.6c-0.1,0-0.1-0.3,0.1-0.3
						c1.8,0,3.6,0,5.4-0.5c1.3-0.3,2.6-0.8,3.7-1.5c-0.2-0.1-0.3-0.2-0.5-0.3c-0.7-0.5-1.3-1.1-1.9-1.7c-0.1,0.1-0.1,0.1-0.2,0.1
						c-0.1,0.1-0.2,0.1-0.3,0.2c-0.2,0.1-0.5,0.2-0.7,0.3c-0.5,0.2-1,0.3-1.5,0.4s-1.1,0.2-1.6,0.2s-1-0.1-1.4-0.2
						C259.4,244.6,259.5,244.3,259.6,244.3z"/>
				</g>
				<path class="st2" d="M266.7,205.1c0.5,3,1.6,11.4-0.9,16c10.4-4.7,20.8,2.2,22.4,8.5c4.6-4.8,7.8-12.9,8.8-25.3
					C285.9,197.2,273,199,266.7,205.1z"/>
			</g>
			<g id="Helmet_00000150801170610151223530000009447504922292626840_">
				<g>
					<g>
						<g>
							<path class="st21" d="M168.9,119.5c14.3-23.6,72.1-17.5,80.1,9c0.5,1.8,0.8,3.7,0.8,5.6c0,1.7-0.2,3.4-0.5,5
								c-0.3,2-0.9,4-1.9,5.7c-13,25-72.6,19.2-80.8-7.8c-0.6-1.9-0.8-4-0.7-6c0-1.3,0.2-2.8,0.4-4.2
								C166.7,124.3,167.6,121.7,168.9,119.5z"/>
						</g>
						<g>
							<path class="st22" d="M227.1,153.1c-0.2,1.8,0,2.8,0.2,3.7c0.2,0.7,0.3,1.3,0.2,2.1c-0.2,0-0.3,0.1-0.5,0.1
								c0.2-0.8,0-1.4-0.1-2.1c-0.2-0.9-0.5-2-0.3-3.9c0.2-2.1-0.1-3.8-2.1-5.6l0.3-0.4C227,149,227.3,150.9,227.1,153.1z"/>
							<path class="st22" d="M206,152.9c10.3,1,20.8-0.3,29-4.1l0,0c8-3.7,12.8-9.2,13.4-15.6c0.6-6.3-3-12.7-10.2-17.8
								c-14.8-10.6-40.2-13.1-56.7-5.5c-8,3.7-12.8,9.2-13.4,15.6c-0.6,6.3,3,12.7,10.2,17.8C185.6,148.7,195.7,151.9,206,152.9z
								 M210.4,106.3c10.2,1,20.2,4.2,27.5,9.5c7.1,5.1,10.6,11.3,10,17.4c-0.6,6.1-5.2,11.5-13.1,15.2c-16.4,7.6-41.6,5.1-56.2-5.4
								c-7.1-5.1-10.6-11.3-10-17.4s5.2-11.5,13.1-15.2C189.8,106.6,200.2,105.3,210.4,106.3z"/>
						</g>
					</g>
					<g>
						<path class="st20" d="M170.4,118.1l-0.5,5.4c-0.5,5.7,2.7,11.9,9.8,17c14.2,10.2,38.5,12.6,54.4,5.3c7.9-3.7,12.2-9,12.8-14.8
							l0.5-5.4c-0.5,5.7-4.8,11.1-12.8,14.8c-15.8,7.3-40.2,5-54.4-5.3C173.1,129.9,169.9,123.8,170.4,118.1z"/>
						<path class="st27" d="M194.6,147.5c-2-0.6-3.9-1.2-5.7-2l0.5-5.4c1.8,0.8,3.8,1.4,5.7,2L194.6,147.5z"/>
						<path class="st17" d="M171.5,124.8c1.5,3.6,4.3,7.1,8.7,10.2c0.3,0.2,0.7,0.5,1,0.7l-0.5,5.4c-0.3-0.2-0.7-0.5-1-0.7
							c-4.3-3.1-7.2-6.6-8.7-10.2L171.5,124.8z"/>
						<path class="st17" d="M206.1,144.2c10.1,1.1,20.4-0.1,28.5-3.9c7.9-3.7,12.2-9,12.8-14.8l-0.5,5.4
							c-0.5,5.7-4.8,11.1-12.8,14.8c-8.1,3.7-18.4,5-28.5,3.9L206.1,144.2z"/>
						<path class="st26" d="M233.3,146.1c-5.1,2.2-11,3.5-17.2,3.8l0.5-5.4c6.2-0.3,12.1-1.6,17.2-3.8L233.3,146.1z"/>
					</g>
					<g>
						<path class="st22" d="M169.9,116c0.6-5.9,4.9-11.4,13-15.1c16.2-7.5,41-5.1,55.5,5.4c7.2,5.2,10.5,11.4,10,17.3
							c0,0.4-0.2,1.8-0.2,2.1c-0.6,5.9-4.9,11.4-13,15.1c-16.2,7.5-41,5.1-55.5-5.4c-7.2-5.2-10.5-11.4-10-17.3
							C169.7,117.7,169.8,116.3,169.9,116z"/>
						<path class="st21" d="M235.3,138.7c-16.2,7.5-41,5.1-55.5-5.4c-7.2-5.2-10.5-11.4-10-17.3c0.6-5.9,4.9-11.4,13-15.1
							c16.2-7.5,41-5.1,55.5,5.4c7.2,5.2,10.5,11.4,10,17.3C247.8,129.4,243.4,134.9,235.3,138.7z"/>
					</g>
					<g>
						<path class="st22" d="M220.4,145.5c3.3-0.3,6.4-0.9,9.2-2c0.3-0.1,0.6-0.1,0.8,0c0.1,0.1,0.7,0.5,0.8,0.6
							c0.2,0.1,0.3,0.4,0.3,0.7l0,0c-0.1,0.7-0.6,1.4-1.2,1.7c-2.8,1.1-5.9,1.7-9.2,2c-0.3,0-0.5,0-0.7-0.2
							c-0.1-0.1-0.7-0.5-0.8-0.6c-0.3-0.2-0.4-0.5-0.4-1l0,0C219.1,146.1,219.7,145.6,220.4,145.5z"/>
						<path class="st21" d="M230.2,146.5c-2.8,1.1-5.9,1.7-9.2,2c-0.7,0.1-1.2-0.5-1.1-1.1l0,0c0.1-0.7,0.7-1.2,1.3-1.3
							c3.3-0.3,6.4-0.9,9.2-2c0.6-0.2,1.1,0.1,1,0.8l0,0C231.3,145.5,230.8,146.3,230.2,146.5z"/>
					</g>
				</g>
				<g>
					<g>
						<path class="st25" d="M173.6,110.3L173.6,110.3c-0.5,5.4,2.5,11.1,9.2,15.9c13.3,9.6,36.2,11.8,51.1,4.9
							c7.4-3.4,11.5-8.5,12-13.9s-2.5-11.1-9.2-15.9c-13.3-9.6-36.2-11.8-51.1-4.9C178.1,99.8,174.1,104.9,173.6,110.3z"/>
						<path class="st21" d="M173.6,110.3L173.6,110.3c-0.5,5.4,2.5,11.1,9.2,15.9c13.3,9.6,36.2,11.8,51.1,4.9
							c7.4-3.4,11.5-8.5,12-13.9s-2.5-11.1-9.2-15.9c-13.3-9.6-36.2-11.8-51.1-4.9C178.1,99.8,174.1,104.9,173.6,110.3z"/>
					</g>
					<ellipse class="st21" cx="211.2" cy="94.4" rx="42.9" ry="43.4"/>
					<path class="st20" d="M171.9,112.1c0.5,1,3.1,5.6,12.3,9.8c0.4,0.2,0.7,0.3,1.1,0.5c5.6,2.3,13.1,3.5,20.5,3.3
						c10.4-0.3,20-5.6,26.2-14l0,0c-0.3-1.1-0.4-2.5-0.3-4c0.3-3.4,1.8-6.9,3.8-9.8c-1.8-3.9-3.8-16.9-26-30.5
						c-10.7-6.6-25.5-5.2-29.5-2.9c9.2-9.9,22.9-15.4,37.4-13.3c22.4,3.1,38.7,23.6,37.1,46.4c-0.6,9-3.9,17.1-8.9,23.6
						c-0.2,0.3-0.4,0.6-0.4,1l0,0c-0.5,5.4-4.5,10.5-12,13.9c-14.9,6.9-37.7,4.7-51.1-4.9c-6.7-4.8-9.7-10.5-9.2-15.9l0,0
						c0-0.4,0-0.7-0.2-1.1C172.6,113.5,172.2,112.8,171.9,112.1z"/>
					<g>
						<path class="st17" d="M174.4,115.4c1.3,3.6,4.1,7.1,8.4,10.2c11.6,8.4,30.5,11.1,45,7.1c2.1-0.6,4.1-1.3,6-2.2
							c2.9-1.3,5.2-2.9,7.1-4.6c2-1.5,4-4,4.9-4.9c0,0-0.6,2.2-0.7,2.5l-0.2,0.6c0,0.1-0.1,0.2-0.1,0.3c-0.5,1.9-1.5,3.8-3,5.5
							c-2,2.4-4.9,4.5-8.6,6.2c-14.9,6.9-37.7,4.7-51.1-4.9c-6.7-4.8-9.7-10.5-9.2-15.9c0-0.4,0-0.7-0.2-1.1
							c-0.3-0.6-0.6-1.3-0.9-1.9C172.3,112.7,172.9,113.9,174.4,115.4z"/>
					</g>
					<path class="st22" d="M180,64.5c-4.9,6.2,1.2,18,7.9,22.6c-3.6,1.6-5.9,7.7-4.5,11.7c-7,2.2-12.8,8-11.4,13.3l0,0
						c-2.9-6.6-4.2-14.1-3.5-21.8C169.4,80.2,173.7,71.3,180,64.5z"/>
					<g>
						<g>
							<path class="st17" d="M237.5,116.2c0.8,0.1,1.6-0.1,2.5-0.5c3.9-1.8,7.6-8,8.1-13.8c0.3-3.4-0.5-6-2.1-7.2
								c-1.2-0.8-2.6-0.9-4.2-0.1c-3.9,1.8-7.6,8-8.1,13.8c-0.3,3.4,0.5,6,2.1,7.2C236.3,115.9,236.9,116.2,237.5,116.2z
								 M244.3,94.5c0.6,0.1,1.1,0.2,1.5,0.6c1.5,1.1,2.2,3.6,1.9,6.8c-0.5,5.7-4.1,11.7-7.9,13.5c-1.5,0.7-2.8,0.6-3.8-0.1
								c-1.5-1.1-2.2-3.6-1.9-6.8c0.5-5.7,4.1-11.7,7.9-13.5C242.8,94.6,243.6,94.4,244.3,94.5z"/>
						</g>
						<path class="st17" d="M192.3,55.3c8.1-1.2,22.6-0.1,37.7,16.6l6.3,1c0,0,8,11.4,8.7,21.5c-2.2-0.9-6.8,1.3-9.8,8.4
							c-3,7.2-0.4,11.4-0.4,11.4l-2.8,3.2c-6,6.9-14.4,11.1-23.4,11.7c-6.7,0.4-13.7-0.2-18.8-1.7c-2.1-0.6-4.2-1.4-6.2-2.4
							c-5.7-2.9-8.9-5.9-10.7-8c0-0.6,0-1.2,0-1.8l0,0v-0.1c2,2.2,5.5,5.6,11,8.3c1.8,0.9,3.8,1.6,5.9,2.2c4.7,1.3,11,1.9,17.1,1.6
							c9.9-0.5,19.1-5.4,25.2-13.3l0.8-1c0,0-0.8-3.7,0.2-7.8c1-4.2,3.9-7.6,3.9-7.6s-3.5-18-25.5-30.7c-13-7.5-23.2-6.6-29.9-4
							C184.9,59.7,188.4,57.2,192.3,55.3z"/>
						<path class="st19" d="M238.3,96.7c-4.1-12.3-12.1-22.3-24.9-30.1c-10.7-6.6-20.6-8.1-30.1-5.3c2.3-2,4.8-3.8,7.5-5.2
							c0,0,12-2,23.7,4.5c11.7,6.5,15,12.4,15,12.4l6.7,1c0,0,7.3,11.8,7.9,19.7c-0.7-0.1-2.2,0.3-2.2,0.3l-0.3-0.8
							c-0.7,0.2-1.3,0.5-1.9,1l0.3,0.9C240.2,95.2,239.2,95.8,238.3,96.7z"/>
					</g>
					<g>
						<g>
							<path class="st2" d="M249.6,96.8c1.5,0.7,2.5,2.3,2.8,4.7c0.5,4.9-2.2,11.3-6.2,14.2c-2,1.5-3.9,1.8-5.3,1.1
								c-0.9-0.4-2.5-1.1-3.4-1.5c-1.5-0.7-2.5-2.3-2.8-4.7c-0.5-4.9,2.2-11.3,6.2-14.2c2-1.5,3.9-1.8,5.3-1.1
								C247.1,95.7,248.7,96.4,249.6,96.8z"/>
							<path class="st19" d="M249.6,96.8c1.5,0.7,2.5,2.3,2.8,4.7c0.5,4.9-2.2,11.3-6.2,14.2c-2,1.5-3.9,1.8-5.3,1.1
								c-0.9-0.4-2.5-1.1-3.4-1.5c-1.5-0.7-2.5-2.3-2.8-4.7c-0.5-4.9,2.2-11.3,6.2-14.2c2-1.5,3.9-1.8,5.3-1.1
								C247.1,95.7,248.7,96.4,249.6,96.8z"/>
							<path class="st2" d="M246.2,115.7c-2,1.5-3.9,1.8-5.3,1.1c-1.5-0.7-2.5-2.3-2.8-4.7c-0.5-4.9,2.2-11.3,6.2-14.2
								c2-1.5,3.9-1.8,5.3-1.1c1.5,0.7,2.5,2.3,2.8,4.7C252.9,106.5,250.1,112.8,246.2,115.7z"/>
							<path class="st2" d="M246.2,115.7c-2,1.5-3.9,1.8-5.3,1.1c-1.5-0.7-2.5-2.3-2.8-4.7c-0.5-4.9,2.2-11.3,6.2-14.2
								c2-1.5,3.9-1.8,5.3-1.1c1.5,0.7,2.5,2.3,2.8,4.7C252.9,106.5,250.1,112.8,246.2,115.7z"/>
						</g>
						<g>
							<g>
								<path class="st17" d="M241,110.1c-0.2-3,1.6-6.9,4-8.6c1.2-0.9,2.4-1,3.3-0.6c0.3,0.1,2.1,1,2.4,1.1c0.9,0.4,1.5,1.5,1.6,3
									c0.2,3-1.6,6.9-4,8.6c-1.2,0.9-2.4,1-3.3,0.6c-0.3-0.1-2.1-1-2.4-1.1C241.7,112.7,241.1,111.7,241,110.1z"/>
							</g>
							<path class="st27" d="M247.4,102.6c-2.5,1.7-4.3,5.6-4,8.6c0.2,3,2.5,4.1,4.9,2.4c2.5-1.7,4.3-5.6,4-8.6
								C252.1,102,249.9,100.9,247.4,102.6z"/>
							<path class="st25" d="M247.7,104c-1.9,1.3-3.3,4.3-3.1,6.7c0.2,2.4,1.9,3.2,3.8,1.8c1.9-1.3,3.3-4.3,3.1-6.7
								C251.4,103.5,249.6,102.6,247.7,104z"/>
							<g>
								<path class="st21" d="M245.9,106.3l2.3,2l2.2-4.7c-0.7-0.3-1.6-0.2-2.6,0.5C247.1,104.6,246.4,105.4,245.9,106.3z"/>
								<path class="st22" d="M244.8,110.8c0.1,1.2,0.6,2,1.3,2.3l2.2-4.7l-2.3-2C245.1,107.7,244.6,109.4,244.8,110.8z"/>
								<path class="st21" d="M246,113.1c0.7,0.3,1.6,0.2,2.6-0.5c0.8-0.5,1.5-1.3,2-2.3l-2.3-2L246,113.1z"/>
								<path class="st22" d="M248.2,108.3l2.3,2c0.8-1.4,1.3-3,1.1-4.4c-0.1-1.2-0.6-2-1.3-2.3L248.2,108.3z"/>
							</g>
						</g>
					</g>
				</g>
				<path class="st25" d="M234.6,95.2c0.1,0.1,0.1,0.3,0.1,0.4c0.3,0.9,0.6,1.6,0.8,2.2c-2,2.9-3.5,6.4-3.8,9.8
					c-0.1,1.5,0,2.9,0.3,4l-1,1.3l-1,1.1c-0.6-1.4-1.4-3.2-1-7.4C229.5,102.5,231.6,97.4,234.6,95.2z"/>
				<path class="st28" d="M168.5,90.3c-0.3,3.1-0.3,6.2,0.1,9.2c0.3,3,1,5.9,1.9,8.7c-6.8-25.7,9.5-42.5,9.5-42.5
					c7.6-3.8,23.1-1.4,32,3.1c-0.8-0.5-1.6-1-2.4-1.5c-10.7-6.6-25.4-5.2-29.5-2.9C173.7,71.3,169.4,80.2,168.5,90.3z"/>
				<path class="st29" d="M174.4,79.6c1.3-4.3,3.5-7.9,7.5-10c3.6-1.9,7.8-2.6,11.8-2c1.2,0.2,2.4,0.4,3.2,1.2
					c1.3,1.2,1.5,3.2,0.9,4.9c-0.6,1.6-1.8,3-3,4.2c-4.9,5.1-10.4,9.9-13.3,16.4c-1.3,3-2,6.2-3,9.4c-0.5,1.7-1.9,3.3-3.9,2.5
					c-2.2-0.9-2.3-3.7-2.5-5.7c-0.2-2.5-0.3-4.9-0.2-7.4C172.1,88.4,173,83.9,174.4,79.6z M174.1,109.8c0-0.6,0.3-1.2,0.8-1.5
					c0.4-0.3,1-0.3,1.5-0.3c1.6,0.3,2.6,1.6,2.5,3.2c0,0.4-0.2,0.7-0.5,1c-0.6,0.6-1.6,0.9-2.4,0.6c-0.9-0.3-1.7-1.5-1.9-2.4
					C174.1,110.2,174.1,110,174.1,109.8z"/>
				<path class="st29" d="M217.3,81.6c3.3-0.9,7.8,5.2,9.3,9c1.1,2.8,1.1,6.2,0.7,9.1c-0.1,1-0.5,2.2-1,3.2c-1,1.8-3.1,3.5-5.2,2.1
					c-0.9-0.6-1.5-1.6-2-2.6C217.4,98.9,210.9,83.4,217.3,81.6z M220.3,108c1.8-0.4,3.5,1,3.5,2.6c0,0.9-0.7,1.8-1.4,2
					c-1,0.3-2.4-0.1-3-0.9C218.5,110.4,218.5,108.5,220.3,108z"/>
			</g>
		</g>
	</g>
</g>
</svg>
